%TF.GenerationSoftware,KiCad,Pcbnew,9.0.5*%
%TF.CreationDate,2025-12-11T12:43:02+01:00*%
%TF.ProjectId,MemShield,4d656d53-6869-4656-9c64-2e6b69636164,rev?*%
%TF.SameCoordinates,Original*%
%TF.FileFunction,Soldermask,Bot*%
%TF.FilePolarity,Negative*%
%FSLAX46Y46*%
G04 Gerber Fmt 4.6, Leading zero omitted, Abs format (unit mm)*
G04 Created by KiCad (PCBNEW 9.0.5) date 2025-12-11 12:43:02*
%MOMM*%
%LPD*%
G01*
G04 APERTURE LIST*
G04 Aperture macros list*
%AMRoundRect*
0 Rectangle with rounded corners*
0 $1 Rounding radius*
0 $2 $3 $4 $5 $6 $7 $8 $9 X,Y pos of 4 corners*
0 Add a 4 corners polygon primitive as box body*
4,1,4,$2,$3,$4,$5,$6,$7,$8,$9,$2,$3,0*
0 Add four circle primitives for the rounded corners*
1,1,$1+$1,$2,$3*
1,1,$1+$1,$4,$5*
1,1,$1+$1,$6,$7*
1,1,$1+$1,$8,$9*
0 Add four rect primitives between the rounded corners*
20,1,$1+$1,$2,$3,$4,$5,0*
20,1,$1+$1,$4,$5,$6,$7,0*
20,1,$1+$1,$6,$7,$8,$9,0*
20,1,$1+$1,$8,$9,$2,$3,0*%
%AMRotRect*
0 Rectangle, with rotation*
0 The origin of the aperture is its center*
0 $1 length*
0 $2 width*
0 $3 Rotation angle, in degrees counterclockwise*
0 Add horizontal line*
21,1,$1,$2,0,0,$3*%
%AMFreePoly0*
4,1,23,0.500000,-0.750000,0.000000,-0.750000,0.000000,-0.745722,-0.065263,-0.745722,-0.191342,-0.711940,-0.304381,-0.646677,-0.396677,-0.554381,-0.461940,-0.441342,-0.495722,-0.315263,-0.495722,-0.250000,-0.500000,-0.250000,-0.500000,0.250000,-0.495722,0.250000,-0.495722,0.315263,-0.461940,0.441342,-0.396677,0.554381,-0.304381,0.646677,-0.191342,0.711940,-0.065263,0.745722,0.000000,0.745722,
0.000000,0.750000,0.500000,0.750000,0.500000,-0.750000,0.500000,-0.750000,$1*%
%AMFreePoly1*
4,1,23,0.000000,0.745722,0.065263,0.745722,0.191342,0.711940,0.304381,0.646677,0.396677,0.554381,0.461940,0.441342,0.495722,0.315263,0.495722,0.250000,0.500000,0.250000,0.500000,-0.250000,0.495722,-0.250000,0.495722,-0.315263,0.461940,-0.441342,0.396677,-0.554381,0.304381,-0.646677,0.191342,-0.711940,0.065263,-0.745722,0.000000,-0.745722,0.000000,-0.750000,-0.500000,-0.750000,
-0.500000,0.750000,0.000000,0.750000,0.000000,0.745722,0.000000,0.745722,$1*%
%AMFreePoly2*
4,1,33,0.181428,0.598088,0.294623,0.551201,0.396496,0.483132,0.483132,0.396496,0.551201,0.294623,0.598088,0.181428,0.621990,0.061261,0.621990,-0.061261,0.598088,-0.181428,0.551201,-0.294623,0.483132,-0.396496,0.396496,-0.483132,0.294623,-0.551201,0.181428,-0.598088,0.061261,-0.621990,-0.061261,-0.621990,-0.181428,-0.598088,-0.294623,-0.551201,-0.396496,-0.483132,-0.483132,-0.396496,
-0.551201,-0.294623,-0.598088,-0.181428,-0.621990,-0.061261,-0.621990,0.061261,-0.598088,0.181428,-0.551201,0.294623,-0.483132,0.396496,-0.396496,0.483132,-0.294623,0.551201,-0.181428,0.598088,-0.061261,0.621990,0.061261,0.621990,0.181428,0.598088,0.181428,0.598088,$1*%
G04 Aperture macros list end*
%ADD10C,0.000000*%
%ADD11R,0.850000X0.850000*%
%ADD12C,1.066800*%
%ADD13C,1.254000*%
%ADD14C,1.016000*%
%ADD15R,0.654800X0.558800*%
%ADD16FreePoly0,270.000000*%
%ADD17FreePoly1,270.000000*%
%ADD18R,0.609600X0.504800*%
%ADD19RotRect,0.504800X0.558800X300.000000*%
%ADD20R,0.350000X0.550000*%
%ADD21FreePoly2,270.000000*%
%ADD22C,0.950000*%
%ADD23R,1.000000X1.600000*%
%ADD24FreePoly0,232.500000*%
%ADD25FreePoly1,232.500000*%
%ADD26R,0.504800X0.558800*%
%ADD27RotRect,0.504800X0.558800X240.000000*%
%ADD28RotRect,0.550000X0.350000X30.000000*%
%ADD29FreePoly2,30.000000*%
%ADD30RoundRect,0.102000X-0.450000X0.325000X-0.450000X-0.325000X0.450000X-0.325000X0.450000X0.325000X0*%
%ADD31R,0.800000X0.650000*%
%ADD32FreePoly0,90.000000*%
%ADD33FreePoly1,90.000000*%
%ADD34RotRect,0.550000X0.350000X210.000000*%
%ADD35FreePoly2,210.000000*%
%ADD36R,0.504800X0.609600*%
%ADD37RoundRect,0.102000X-0.325000X-0.450000X0.325000X-0.450000X0.325000X0.450000X-0.325000X0.450000X0*%
%ADD38RotRect,0.550000X0.350000X330.000000*%
%ADD39FreePoly2,330.000000*%
%ADD40R,0.558800X0.504800*%
%ADD41RotRect,0.504800X0.558800X120.000000*%
%ADD42FreePoly2,90.000000*%
%ADD43RoundRect,0.102000X-1.000000X0.350000X-1.000000X-0.350000X1.000000X-0.350000X1.000000X0.350000X0*%
%ADD44RoundRect,0.102000X-0.700000X1.350000X-0.700000X-1.350000X0.700000X-1.350000X0.700000X1.350000X0*%
%ADD45RoundRect,0.102000X-1.300000X0.500000X-1.300000X-0.500000X1.300000X-0.500000X1.300000X0.500000X0*%
%ADD46RoundRect,0.102000X-1.300000X0.750000X-1.300000X-0.750000X1.300000X-0.750000X1.300000X0.750000X0*%
%ADD47RoundRect,0.102000X-0.600000X0.600000X-0.600000X-0.600000X0.600000X-0.600000X0.600000X0.600000X0*%
%ADD48RotRect,0.504800X0.558800X60.000000*%
%ADD49RotRect,0.550000X0.350000X150.000000*%
%ADD50FreePoly2,150.000000*%
G04 APERTURE END LIST*
%TO.C,J7*%
G36*
X140740100Y-89166820D02*
G01*
X142240100Y-89166820D01*
X142240100Y-89466820D01*
X140740100Y-89466820D01*
X140740100Y-89166820D01*
G37*
D10*
%TO.C,J4*%
G36*
X122080734Y-111870068D02*
G01*
X121898106Y-112108074D01*
X120708076Y-111194932D01*
X120890704Y-110956926D01*
X122080734Y-111870068D01*
G37*
%TO.C,J9*%
G36*
X147940100Y-89116820D02*
G01*
X149440100Y-89116820D01*
X149440100Y-89416820D01*
X147940100Y-89416820D01*
X147940100Y-89116820D01*
G37*
%TO.C,J15*%
G36*
X126540100Y-103216820D02*
G01*
X125040100Y-103216820D01*
X125040100Y-102916820D01*
X126540100Y-102916820D01*
X126540100Y-103216820D01*
G37*
%TO.C,J2*%
G36*
X129376429Y-117754388D02*
G01*
X129193801Y-117992394D01*
X128003771Y-117079252D01*
X128186399Y-116841246D01*
X129376429Y-117754388D01*
G37*
%TO.C,J3*%
G36*
X124180734Y-113470068D02*
G01*
X123998106Y-113708074D01*
X122808076Y-112794932D01*
X122990704Y-112556926D01*
X124180734Y-113470068D01*
G37*
%TO.C,J6*%
G36*
X151960100Y-89406820D02*
G01*
X150460100Y-89406820D01*
X150460100Y-89106820D01*
X151960100Y-89106820D01*
X151960100Y-89406820D01*
G37*
%TO.C,J8*%
G36*
X138040100Y-89166820D02*
G01*
X139540100Y-89166820D01*
X139540100Y-89466820D01*
X138040100Y-89466820D01*
X138040100Y-89166820D01*
G37*
%TO.C,J16*%
G36*
X129040100Y-103216820D02*
G01*
X127540100Y-103216820D01*
X127540100Y-102916820D01*
X129040100Y-102916820D01*
X129040100Y-103216820D01*
G37*
%TO.C,J5*%
G36*
X126280734Y-115070068D02*
G01*
X126098106Y-115308074D01*
X124908076Y-114394932D01*
X125090704Y-114156926D01*
X126280734Y-115070068D01*
G37*
%TO.C,J17*%
G36*
X131710100Y-103166820D02*
G01*
X130210100Y-103166820D01*
X130210100Y-102866820D01*
X131710100Y-102866820D01*
X131710100Y-103166820D01*
G37*
%TD*%
D11*
%TO.C,GND*%
X134440100Y-122266820D03*
%TD*%
D12*
%TO.C,J12*%
X143615100Y-122493820D03*
X144865100Y-122493820D03*
X146115100Y-122493820D03*
X147365100Y-122493820D03*
%TD*%
D11*
%TO.C,VBAT*%
X138270100Y-120966820D03*
%TD*%
%TO.C,3V3*%
X131840100Y-120806820D03*
%TD*%
D12*
%TO.C,J11*%
X167967100Y-108891820D03*
X167967100Y-107641820D03*
X167967100Y-106391820D03*
X167967100Y-105141820D03*
%TD*%
%TO.C,J13*%
X147365100Y-91539820D03*
X146115100Y-91539820D03*
X144865100Y-91539820D03*
X143615100Y-91539820D03*
%TD*%
D13*
%TO.C,P3*%
X134030100Y-96016820D03*
X134030100Y-97286820D03*
X132760100Y-96016820D03*
X132760100Y-97286820D03*
X131490100Y-96016820D03*
X131490100Y-97286820D03*
X130220100Y-96016820D03*
X130220100Y-97286820D03*
X128950100Y-96016820D03*
X128950100Y-97286820D03*
%TD*%
D14*
%TO.C,P5*%
X161230100Y-96916820D03*
X161230100Y-95646820D03*
X159960100Y-96916820D03*
X159960100Y-95646820D03*
X158690100Y-96916820D03*
X158690100Y-95646820D03*
X157420100Y-96916820D03*
X157420100Y-95646820D03*
%TD*%
D12*
%TO.C,J10*%
X123013100Y-105141820D03*
X123013100Y-106391820D03*
X123013100Y-107641820D03*
X123013100Y-108891820D03*
%TD*%
D15*
%TO.C,R8*%
X168510100Y-103866820D03*
X169596700Y-103866820D03*
%TD*%
D16*
%TO.C,J7*%
X141490100Y-88666820D03*
D17*
X141490100Y-89966820D03*
%TD*%
D18*
%TO.C,D4*%
X167390100Y-100804220D03*
X167390100Y-99816820D03*
%TD*%
D19*
%TO.C,C26*%
X155920688Y-121941431D03*
X156388988Y-122752551D03*
%TD*%
D18*
%TO.C,D2*%
X162490100Y-100535820D03*
X162490100Y-99548420D03*
%TD*%
D15*
%TO.C,R13*%
X168720100Y-110276820D03*
X169806700Y-110276820D03*
%TD*%
D20*
%TO.C,M3*%
X163015100Y-106491820D03*
X163665100Y-106491820D03*
D21*
X164690100Y-107016820D03*
D20*
X163665100Y-107541820D03*
X163015100Y-107541820D03*
%TD*%
D22*
%TO.C,P1*%
X154490100Y-96016820D03*
D23*
X154490100Y-94416820D03*
X152490100Y-97616820D03*
D22*
X152490100Y-96016820D03*
X150490100Y-96016820D03*
D23*
X150490100Y-94416820D03*
X148490100Y-97616820D03*
D22*
X148490100Y-96016820D03*
X146490100Y-96016820D03*
D23*
X146490100Y-94416820D03*
X144490100Y-97616820D03*
D22*
X144490100Y-96016820D03*
X142490100Y-96016820D03*
D23*
X142490100Y-94416820D03*
X140490100Y-97616820D03*
D22*
X140490100Y-96016820D03*
X138490100Y-96016820D03*
D23*
X138490100Y-94416820D03*
X136490100Y-97616820D03*
D22*
X136490100Y-96016820D03*
%TD*%
D15*
%TO.C,R10*%
X168510100Y-101366820D03*
X169596700Y-101366820D03*
%TD*%
D24*
%TO.C,J4*%
X121790100Y-111016820D03*
D25*
X120998710Y-112048180D03*
%TD*%
D26*
%TO.C,C19*%
X152126700Y-114516820D03*
X151190100Y-114516820D03*
%TD*%
D16*
%TO.C,J9*%
X148690100Y-88616820D03*
D17*
X148690100Y-89916820D03*
%TD*%
D27*
%TO.C,C27*%
X137907087Y-123395283D03*
X137438787Y-124206403D03*
%TD*%
D28*
%TO.C,M2*%
X136272936Y-92129912D03*
X135947936Y-91566996D03*
D29*
X135890099Y-90416820D03*
D28*
X136857263Y-91041996D03*
X137182263Y-91604912D03*
%TD*%
D30*
%TO.C,R17*%
X165590100Y-112966820D03*
X165590100Y-114416820D03*
%TD*%
D31*
%TO.C,C21*%
X160990100Y-107341820D03*
X160990100Y-105691820D03*
%TD*%
D15*
%TO.C,R9*%
X168546800Y-102616820D03*
X169633400Y-102616820D03*
%TD*%
D32*
%TO.C,J15*%
X125790100Y-103716820D03*
D33*
X125790100Y-102416820D03*
%TD*%
D34*
%TO.C,M4*%
X154707263Y-121953728D03*
X155032263Y-122516644D03*
D35*
X155090100Y-123666820D03*
D34*
X154122936Y-123041644D03*
X153797936Y-122478728D03*
%TD*%
D18*
%TO.C,D3*%
X161290100Y-100535820D03*
X161290100Y-99548420D03*
%TD*%
D22*
%TO.C,P2*%
X154490100Y-118016820D03*
D23*
X154490100Y-116416820D03*
X152490100Y-119616820D03*
D22*
X152490100Y-118016820D03*
X150490100Y-118016820D03*
D23*
X150490100Y-116416820D03*
X148490100Y-119616820D03*
D22*
X148490100Y-118016820D03*
X146490100Y-118016820D03*
D23*
X146490100Y-116416820D03*
X144490100Y-119616820D03*
D22*
X144490100Y-118016820D03*
X142490100Y-118016820D03*
D23*
X142490100Y-116416820D03*
X140490100Y-119616820D03*
D22*
X140490100Y-118016820D03*
X138490100Y-118016820D03*
D23*
X138490100Y-116416820D03*
X136490100Y-119616820D03*
D22*
X136490100Y-118016820D03*
%TD*%
D36*
%TO.C,D7*%
X153196400Y-114516820D03*
X154183800Y-114516820D03*
%TD*%
D37*
%TO.C,R19*%
X148365100Y-114616820D03*
X149815100Y-114616820D03*
%TD*%
D24*
%TO.C,J2*%
X129085795Y-116901140D03*
D25*
X128294405Y-117932500D03*
%TD*%
D24*
%TO.C,J3*%
X123890100Y-112616820D03*
D25*
X123098710Y-113648180D03*
%TD*%
D15*
%TO.C,R12*%
X168746800Y-111516820D03*
X169833400Y-111516820D03*
%TD*%
D18*
%TO.C,D5*%
X166290100Y-100235820D03*
X166290100Y-99248420D03*
%TD*%
D30*
%TO.C,R14*%
X162590100Y-112966820D03*
X162590100Y-114416820D03*
%TD*%
D32*
%TO.C,J6*%
X151210100Y-89906820D03*
D33*
X151210100Y-88606820D03*
%TD*%
D26*
%TO.C,C23*%
X127058400Y-108616820D03*
X126121800Y-108616820D03*
%TD*%
D16*
%TO.C,J8*%
X138790100Y-88666820D03*
D17*
X138790100Y-89966820D03*
%TD*%
D38*
%TO.C,M7*%
X153761510Y-91588582D03*
X154086510Y-91025666D03*
D39*
X155053673Y-90400491D03*
D38*
X154995837Y-91550666D03*
X154670837Y-92113582D03*
%TD*%
D18*
%TO.C,D6*%
X165090100Y-100235820D03*
X165090100Y-99248420D03*
%TD*%
D32*
%TO.C,J16*%
X128290100Y-103716820D03*
D33*
X128290100Y-102416820D03*
%TD*%
D15*
%TO.C,R11*%
X168750100Y-112756820D03*
X169836700Y-112756820D03*
%TD*%
D40*
%TO.C,C20*%
X162160100Y-106265120D03*
X162160100Y-105328520D03*
%TD*%
D26*
%TO.C,C25*%
X163283500Y-105297530D03*
X164220100Y-105297530D03*
%TD*%
D41*
%TO.C,C24*%
X135424250Y-92822380D03*
X134955950Y-92011260D03*
%TD*%
D24*
%TO.C,J5*%
X125990100Y-114216820D03*
D25*
X125198710Y-115248180D03*
%TD*%
D30*
%TO.C,R15*%
X161090100Y-112966820D03*
X161090100Y-114416820D03*
%TD*%
%TO.C,R18*%
X164090100Y-112966820D03*
X164090100Y-114416820D03*
%TD*%
D20*
%TO.C,M1*%
X127965100Y-107541820D03*
X127315100Y-107541820D03*
D42*
X126290100Y-107016820D03*
D20*
X127315100Y-106491820D03*
X127965100Y-106491820D03*
%TD*%
D32*
%TO.C,J17*%
X130960100Y-103666820D03*
D33*
X130960100Y-102366820D03*
%TD*%
D18*
%TO.C,D1*%
X163690100Y-100416820D03*
X163690100Y-99429420D03*
%TD*%
D43*
%TO.C,J1*%
X158790100Y-109216820D03*
X158790100Y-108116820D03*
X158790100Y-107016820D03*
X158790100Y-105916820D03*
X158790100Y-104816820D03*
X158790100Y-103716820D03*
X158790100Y-102616820D03*
X158790100Y-101516820D03*
D44*
X146090100Y-107816820D03*
D45*
X158290100Y-99416820D03*
D46*
X158290100Y-112766820D03*
D44*
X146090100Y-102916820D03*
D47*
X145990100Y-110866820D03*
%TD*%
D30*
%TO.C,R16*%
X167190100Y-112966820D03*
X167190100Y-114416820D03*
%TD*%
D48*
%TO.C,C29*%
X153355950Y-90222380D03*
X153824250Y-89411260D03*
%TD*%
D49*
%TO.C,M5*%
X137174427Y-122428904D03*
X136849427Y-122991820D03*
D50*
X135882264Y-123616995D03*
D49*
X135940100Y-122466820D03*
X136265100Y-121903904D03*
%TD*%
M02*
