M48
; DRILL file {KiCad 9.0.5} date 2025-12-11T12:43:45+0100
; FORMAT={-:-/ absolute / metric / decimal}
; #@! TF.CreationDate,2025-12-11T12:43:45+01:00
; #@! TF.GenerationSoftware,Kicad,Pcbnew,9.0.5
; #@! TF.FileFunction,Plated,1,6,PTH
FMAT,2
METRIC
; #@! TA.AperFunction,Plated,PTH,ComponentDrill
T1C0.200
; #@! TA.AperFunction,Plated,PTH,ViaDrill
T2C0.250
; #@! TA.AperFunction,Plated,PTH,ComponentDrill
T3C0.250
; #@! TA.AperFunction,Plated,PTH,ViaDrill
T4C0.300
; #@! TA.AperFunction,Plated,PTH,ComponentDrill
T5C0.500
; #@! TA.AperFunction,Plated,PTH,ComponentDrill
T6C0.559
; #@! TA.AperFunction,Plated,PTH,ComponentDrill
T7C0.650
; #@! TA.AperFunction,Plated,PTH,ComponentDrill
T8C0.762
; #@! TA.AperFunction,Plated,PTH,ComponentDrill
T9C0.800
%
G90
G05
T1
X128.115Y-113.717
X128.69Y-112.767
X128.69Y-114.667
X129.265Y-113.717
T2
X120.79Y-108.217
X123.09Y-110.317
X123.19Y-111.317
X124.29Y-111.317
X124.99Y-105.117
X125.59Y-100.717
X125.7Y-97.787
X125.99Y-111.717
X126.59Y-116.717
X127.49Y-115.417
X127.76Y-97.647
X127.99Y-98.617
X128.14Y-101.767
X128.68Y-106.807
X128.68Y-109.287
X128.97Y-99.897
X129.29Y-105.577
X129.79Y-118.817
X130.13Y-99.887
X130.29Y-118.117
X130.59Y-107.517
X130.94Y-104.357
X130.975Y-109.962
X131.39Y-111.317
X131.39Y-117.117
X133.99Y-115.647
X134.19Y-93.817
X135.55Y-97.907
X135.55Y-98.857
X135.65Y-91.887
X136.015Y-94.982
X136.29Y-121.477
X137.092Y-123.235
X137.25Y-125.727
X137.26Y-92.127
X137.49Y-119.617
X138.99Y-91.517
X138.99Y-115.117
X139.59Y-93.317
X140.49Y-92.217
X141.39Y-91.777
X145.69Y-98.017
X148.09Y-117.017
X148.29Y-93.317
X148.49Y-91.617
X148.89Y-112.017
X149.69Y-87.817
X150.09Y-92.117
X151.015Y-101.617
X151.09Y-98.217
X151.09Y-124.117
X151.19Y-91.517
X151.29Y-99.217
X151.29Y-108.617
X151.39Y-122.517
X151.49Y-112.017
X151.69Y-109.417
X151.883Y-104.617
X151.89Y-105.417
X152.67Y-124.947
X152.89Y-101.217
X153.32Y-122.387
X153.49Y-97.617
X153.97Y-90.527
X154.44Y-92.407
X155.43Y-122.427
X155.46Y-109.837
X155.49Y-103.617
X155.95Y-117.857
X156.58Y-109.507
X156.69Y-103.617
X156.85Y-118.177
X157.865Y-114.217
X159.09Y-111.217
X159.89Y-117.017
X160.09Y-98.817
X162.93Y-98.617
X163.01Y-110.367
T3
X126.29Y-107.017
X135.882Y-123.617
X135.89Y-90.417
X155.054Y-90.4
X155.09Y-123.667
X164.69Y-107.017
T4
X120.94Y-110.207
X123.18Y-102.917
X125.83Y-105.477
X125.84Y-99.747
X127.11Y-107.937
X128.04Y-106.067
X128.66Y-107.627
X129.48Y-109.427
X129.56Y-104.597
X130.35Y-101.507
X130.44Y-119.257
X130.85Y-114.547
X130.88Y-112.137
X132.3Y-115.367
X132.39Y-100.717
X133.34Y-108.887
X133.48Y-111.197
X133.622Y-110.071
X133.66Y-118.017
X133.82Y-98.777
X134.01Y-108.367
X134.16Y-106.137
X134.67Y-106.847
X134.94Y-119.347
X135.02Y-104.977
X135.07Y-111.547
X135.08Y-93.777
X135.1Y-116.487
X135.22Y-110.157
X135.4Y-103.967
X135.45Y-96.957
X135.61Y-102.697
X135.73Y-110.787
X135.84Y-108.647
X135.88Y-106.617
X136.26Y-115.187
X136.32Y-113.927
X136.48Y-111.257
X136.49Y-99.917
X136.58Y-92.987
X136.61Y-102.587
X136.69Y-109.617
X136.7Y-103.677
X136.72Y-124.817
X137.16Y-98.487
X137.44Y-111.497
X137.56Y-107.977
X137.82Y-107.077
X137.96Y-114.007
X138.15Y-110.457
X138.29Y-108.617
X138.37Y-104.367
X138.518Y-111.319
X138.52Y-124.047
X139.05Y-109.597
X139.2Y-104.137
X139.34Y-111.347
X139.49Y-103.257
X140.449Y-103.376
X140.69Y-107.617
X141.07Y-115.237
X141.09Y-106.217
X141.49Y-97.517
X141.59Y-107.617
X141.69Y-106.817
X142.09Y-109.617
X142.19Y-100.317
X142.19Y-110.517
X142.29Y-105.517
X143.35Y-102.217
X143.59Y-113.317
X144.89Y-108.417
X144.89Y-109.987
X144.94Y-105.207
X145.19Y-105.967
X145.3Y-93.657
X145.88Y-102.417
X146.65Y-112.567
X146.99Y-100.417
X147.09Y-110.817
X147.17Y-113.457
X147.25Y-107.807
X147.29Y-98.817
X147.29Y-106.417
X147.78Y-112.237
X147.83Y-105.247
X147.99Y-104.097
X149.19Y-116.027
X149.79Y-97.717
X150.82Y-113.287
X151.53Y-94.357
X152.39Y-113.107
X152.52Y-89.817
X154.09Y-105.617
X154.89Y-114.417
X154.99Y-98.804
X155.19Y-111.987
X156.26Y-92.067
X156.485Y-120.612
X156.69Y-93.617
X156.81Y-121.917
X157.49Y-104.017
X157.635Y-115.262
X160.07Y-117.817
X160.41Y-93.467
X160.57Y-104.927
X160.9Y-117.307
X161.155Y-112.402
X161.24Y-99.097
X161.25Y-115.377
X161.49Y-101.267
X162.49Y-100.987
X162.49Y-102.287
X162.57Y-104.577
X162.59Y-112.377
X162.69Y-95.417
X163.015Y-108.187
X163.69Y-98.417
X163.69Y-100.977
X163.69Y-105.987
X163.96Y-104.477
X164.05Y-108.247
X164.09Y-112.307
X164.28Y-103.277
X164.89Y-100.947
X165.09Y-97.417
X165.11Y-105.217
X165.15Y-108.777
X165.235Y-109.922
X165.59Y-112.317
X166.12Y-100.887
X166.496Y-110.227
X166.99Y-101.007
X166.99Y-112.297
X170.22Y-103.887
X170.25Y-102.617
X170.53Y-111.627
X170.77Y-112.697
T5
X131.84Y-120.807
X134.44Y-122.267
X138.27Y-120.967
T6
X123.013Y-105.142
X123.013Y-106.392
X123.013Y-107.642
X123.013Y-108.892
X143.615Y-91.54
X143.615Y-122.494
X144.865Y-91.54
X144.865Y-122.494
X146.115Y-91.54
X146.115Y-122.494
X147.365Y-91.54
X147.365Y-122.494
X167.967Y-105.142
X167.967Y-106.392
X167.967Y-107.642
X167.967Y-108.892
T7
X128.95Y-96.017
X128.95Y-97.287
X130.22Y-96.017
X130.22Y-97.287
X131.49Y-96.017
X131.49Y-97.287
X132.76Y-96.017
X132.76Y-97.287
X134.03Y-96.017
X134.03Y-97.287
T8
X157.42Y-95.647
X157.42Y-96.917
X158.69Y-95.647
X158.69Y-96.917
X159.96Y-95.647
X159.96Y-96.917
X161.23Y-95.647
X161.23Y-96.917
T9
X136.49Y-96.017
X136.49Y-118.017
X138.49Y-96.017
X138.49Y-118.017
X140.49Y-96.017
X140.49Y-118.017
X142.49Y-96.017
X142.49Y-118.017
X144.49Y-96.017
X144.49Y-118.017
X146.49Y-96.017
X146.49Y-118.017
X148.49Y-96.017
X148.49Y-118.017
X150.49Y-96.017
X150.49Y-118.017
X152.49Y-96.017
X152.49Y-118.017
X154.49Y-96.017
X154.49Y-118.017
M30
