%TF.GenerationSoftware,KiCad,Pcbnew,9.0.5*%
%TF.CreationDate,2025-12-11T12:43:01+01:00*%
%TF.ProjectId,MemShield,4d656d53-6869-4656-9c64-2e6b69636164,rev?*%
%TF.SameCoordinates,Original*%
%TF.FileFunction,Paste,Bot*%
%TF.FilePolarity,Positive*%
%FSLAX46Y46*%
G04 Gerber Fmt 4.6, Leading zero omitted, Abs format (unit mm)*
G04 Created by KiCad (PCBNEW 9.0.5) date 2025-12-11 12:43:01*
%MOMM*%
%LPD*%
G01*
G04 APERTURE LIST*
G04 Aperture macros list*
%AMRotRect*
0 Rectangle, with rotation*
0 The origin of the aperture is its center*
0 $1 length*
0 $2 width*
0 $3 Rotation angle, in degrees counterclockwise*
0 Add horizontal line*
21,1,$1,$2,0,0,$3*%
G04 Aperture macros list end*
%ADD10R,0.654800X0.558800*%
%ADD11R,0.609600X0.504800*%
%ADD12RotRect,0.504800X0.558800X300.000000*%
%ADD13R,0.350000X0.550000*%
%ADD14R,1.000000X1.600000*%
%ADD15R,0.504800X0.558800*%
%ADD16RotRect,0.504800X0.558800X240.000000*%
%ADD17RotRect,0.550000X0.350000X30.000000*%
%ADD18R,0.900000X0.650000*%
%ADD19R,0.800000X0.650000*%
%ADD20RotRect,0.550000X0.350000X210.000000*%
%ADD21R,0.504800X0.609600*%
%ADD22R,0.650000X0.900000*%
%ADD23RotRect,0.550000X0.350000X330.000000*%
%ADD24R,0.558800X0.504800*%
%ADD25RotRect,0.504800X0.558800X120.000000*%
%ADD26R,2.000000X0.700000*%
%ADD27R,1.400000X2.700000*%
%ADD28R,2.600000X1.000000*%
%ADD29R,2.600000X1.500000*%
%ADD30R,1.200000X1.200000*%
%ADD31RotRect,0.504800X0.558800X60.000000*%
%ADD32RotRect,0.550000X0.350000X150.000000*%
G04 APERTURE END LIST*
D10*
%TO.C,R8*%
X168510100Y-103866820D03*
X169596700Y-103866820D03*
%TD*%
D11*
%TO.C,D4*%
X167390100Y-100804220D03*
X167390100Y-99816820D03*
%TD*%
D12*
%TO.C,C26*%
X155920688Y-121941431D03*
X156388988Y-122752551D03*
%TD*%
D11*
%TO.C,D2*%
X162490100Y-100535820D03*
X162490100Y-99548420D03*
%TD*%
D10*
%TO.C,R13*%
X168720100Y-110276820D03*
X169806700Y-110276820D03*
%TD*%
D13*
%TO.C,M3*%
X163015100Y-106491820D03*
X163665100Y-106491820D03*
X163665100Y-107541820D03*
X163015100Y-107541820D03*
%TD*%
D14*
%TO.C,P1*%
X154490100Y-94416820D03*
X152490100Y-97616820D03*
X150490100Y-94416820D03*
X148490100Y-97616820D03*
X146490100Y-94416820D03*
X144490100Y-97616820D03*
X142490100Y-94416820D03*
X140490100Y-97616820D03*
X138490100Y-94416820D03*
X136490100Y-97616820D03*
%TD*%
D10*
%TO.C,R10*%
X168510100Y-101366820D03*
X169596700Y-101366820D03*
%TD*%
D15*
%TO.C,C19*%
X152126700Y-114516820D03*
X151190100Y-114516820D03*
%TD*%
D16*
%TO.C,C27*%
X137907087Y-123395283D03*
X137438787Y-124206403D03*
%TD*%
D17*
%TO.C,M2*%
X136272936Y-92129912D03*
X135947936Y-91566996D03*
X136857263Y-91041996D03*
X137182263Y-91604912D03*
%TD*%
D18*
%TO.C,R17*%
X165590100Y-112966820D03*
X165590100Y-114416820D03*
%TD*%
D19*
%TO.C,C21*%
X160990100Y-107341820D03*
X160990100Y-105691820D03*
%TD*%
D10*
%TO.C,R9*%
X168546800Y-102616820D03*
X169633400Y-102616820D03*
%TD*%
D20*
%TO.C,M4*%
X154707263Y-121953728D03*
X155032263Y-122516644D03*
X154122936Y-123041644D03*
X153797936Y-122478728D03*
%TD*%
D11*
%TO.C,D3*%
X161290100Y-100535820D03*
X161290100Y-99548420D03*
%TD*%
D14*
%TO.C,P2*%
X154490100Y-116416820D03*
X152490100Y-119616820D03*
X150490100Y-116416820D03*
X148490100Y-119616820D03*
X146490100Y-116416820D03*
X144490100Y-119616820D03*
X142490100Y-116416820D03*
X140490100Y-119616820D03*
X138490100Y-116416820D03*
X136490100Y-119616820D03*
%TD*%
D21*
%TO.C,D7*%
X153196400Y-114516820D03*
X154183800Y-114516820D03*
%TD*%
D22*
%TO.C,R19*%
X148365100Y-114616820D03*
X149815100Y-114616820D03*
%TD*%
D10*
%TO.C,R12*%
X168746800Y-111516820D03*
X169833400Y-111516820D03*
%TD*%
D11*
%TO.C,D5*%
X166290100Y-100235820D03*
X166290100Y-99248420D03*
%TD*%
D18*
%TO.C,R14*%
X162590100Y-112966820D03*
X162590100Y-114416820D03*
%TD*%
D15*
%TO.C,C23*%
X127058400Y-108616820D03*
X126121800Y-108616820D03*
%TD*%
D23*
%TO.C,M7*%
X153761510Y-91588582D03*
X154086510Y-91025666D03*
X154995837Y-91550666D03*
X154670837Y-92113582D03*
%TD*%
D11*
%TO.C,D6*%
X165090100Y-100235820D03*
X165090100Y-99248420D03*
%TD*%
D10*
%TO.C,R11*%
X168750100Y-112756820D03*
X169836700Y-112756820D03*
%TD*%
D24*
%TO.C,C20*%
X162160100Y-106265120D03*
X162160100Y-105328520D03*
%TD*%
D15*
%TO.C,C25*%
X163283500Y-105297530D03*
X164220100Y-105297530D03*
%TD*%
D25*
%TO.C,C24*%
X135424250Y-92822380D03*
X134955950Y-92011260D03*
%TD*%
D18*
%TO.C,R15*%
X161090100Y-112966820D03*
X161090100Y-114416820D03*
%TD*%
%TO.C,R18*%
X164090100Y-112966820D03*
X164090100Y-114416820D03*
%TD*%
D13*
%TO.C,M1*%
X127965100Y-107541820D03*
X127315100Y-107541820D03*
X127315100Y-106491820D03*
X127965100Y-106491820D03*
%TD*%
D11*
%TO.C,D1*%
X163690100Y-100416820D03*
X163690100Y-99429420D03*
%TD*%
D26*
%TO.C,J1*%
X158790100Y-109216820D03*
X158790100Y-108116820D03*
X158790100Y-107016820D03*
X158790100Y-105916820D03*
X158790100Y-104816820D03*
X158790100Y-103716820D03*
X158790100Y-102616820D03*
X158790100Y-101516820D03*
D27*
X146090100Y-107816820D03*
D28*
X158290100Y-99416820D03*
D29*
X158290100Y-112766820D03*
D27*
X146090100Y-102916820D03*
D30*
X145990100Y-110866820D03*
%TD*%
D18*
%TO.C,R16*%
X167190100Y-112966820D03*
X167190100Y-114416820D03*
%TD*%
D31*
%TO.C,C29*%
X153355950Y-90222380D03*
X153824250Y-89411260D03*
%TD*%
D32*
%TO.C,M5*%
X137174427Y-122428904D03*
X136849427Y-122991820D03*
X135940100Y-122466820D03*
X136265100Y-121903904D03*
%TD*%
M02*
