%TF.GenerationSoftware,KiCad,Pcbnew,9.0.5*%
%TF.CreationDate,2025-12-11T12:43:00+01:00*%
%TF.ProjectId,MemShield,4d656d53-6869-4656-9c64-2e6b69636164,rev?*%
%TF.SameCoordinates,Original*%
%TF.FileFunction,Copper,L1,Top*%
%TF.FilePolarity,Positive*%
%FSLAX46Y46*%
G04 Gerber Fmt 4.6, Leading zero omitted, Abs format (unit mm)*
G04 Created by KiCad (PCBNEW 9.0.5) date 2025-12-11 12:43:00*
%MOMM*%
%LPD*%
G01*
G04 APERTURE LIST*
G04 Aperture macros list*
%AMRoundRect*
0 Rectangle with rounded corners*
0 $1 Rounding radius*
0 $2 $3 $4 $5 $6 $7 $8 $9 X,Y pos of 4 corners*
0 Add a 4 corners polygon primitive as box body*
4,1,4,$2,$3,$4,$5,$6,$7,$8,$9,$2,$3,0*
0 Add four circle primitives for the rounded corners*
1,1,$1+$1,$2,$3*
1,1,$1+$1,$4,$5*
1,1,$1+$1,$6,$7*
1,1,$1+$1,$8,$9*
0 Add four rect primitives between the rounded corners*
20,1,$1+$1,$2,$3,$4,$5,0*
20,1,$1+$1,$4,$5,$6,$7,0*
20,1,$1+$1,$6,$7,$8,$9,0*
20,1,$1+$1,$8,$9,$2,$3,0*%
%AMFreePoly0*
4,1,23,0.500000,-0.750000,0.000000,-0.750000,0.000000,-0.745722,-0.065263,-0.745722,-0.191342,-0.711940,-0.304381,-0.646677,-0.396677,-0.554381,-0.461940,-0.441342,-0.495722,-0.315263,-0.495722,-0.250000,-0.500000,-0.250000,-0.500000,0.250000,-0.495722,0.250000,-0.495722,0.315263,-0.461940,0.441342,-0.396677,0.554381,-0.304381,0.646677,-0.191342,0.711940,-0.065263,0.745722,0.000000,0.745722,
0.000000,0.750000,0.500000,0.750000,0.500000,-0.750000,0.500000,-0.750000,$1*%
%AMFreePoly1*
4,1,23,0.000000,0.745722,0.065263,0.745722,0.191342,0.711940,0.304381,0.646677,0.396677,0.554381,0.461940,0.441342,0.495722,0.315263,0.495722,0.250000,0.500000,0.250000,0.500000,-0.250000,0.495722,-0.250000,0.495722,-0.315263,0.461940,-0.441342,0.396677,-0.554381,0.304381,-0.646677,0.191342,-0.711940,0.065263,-0.745722,0.000000,-0.745722,0.000000,-0.750000,-0.500000,-0.750000,
-0.500000,0.750000,0.000000,0.750000,0.000000,0.745722,0.000000,0.745722,$1*%
%AMFreePoly2*
4,1,21,-0.125000,1.200000,0.125000,1.200000,0.125000,1.700000,0.375000,1.700000,0.375000,1.200000,0.825000,1.200000,0.825000,-1.200000,0.375000,-1.200000,0.375000,-1.700000,0.125000,-1.700000,0.125000,-1.200000,-0.125000,-1.200000,-0.125000,-1.700000,-0.375000,-1.700000,-0.375000,-1.200000,-0.825000,-1.200000,-0.825000,1.200000,-0.375000,1.200000,-0.375000,1.700000,-0.125000,1.700000,
-0.125000,1.200000,-0.125000,1.200000,$1*%
%AMFreePoly3*
4,1,33,0.181428,0.598088,0.294623,0.551201,0.396496,0.483132,0.483132,0.396496,0.551201,0.294623,0.598088,0.181428,0.621990,0.061261,0.621990,-0.061261,0.598088,-0.181428,0.551201,-0.294623,0.483132,-0.396496,0.396496,-0.483132,0.294623,-0.551201,0.181428,-0.598088,0.061261,-0.621990,-0.061261,-0.621990,-0.181428,-0.598088,-0.294623,-0.551201,-0.396496,-0.483132,-0.483132,-0.396496,
-0.551201,-0.294623,-0.598088,-0.181428,-0.621990,-0.061261,-0.621990,0.061261,-0.598088,0.181428,-0.551201,0.294623,-0.483132,0.396496,-0.396496,0.483132,-0.294623,0.551201,-0.181428,0.598088,-0.061261,0.621990,0.061261,0.621990,0.181428,0.598088,0.181428,0.598088,$1*%
G04 Aperture macros list end*
%TA.AperFunction,ComponentPad*%
%ADD10R,0.850000X0.850000*%
%TD*%
%TA.AperFunction,ComponentPad*%
%ADD11C,1.066800*%
%TD*%
%TA.AperFunction,SMDPad,CuDef*%
%ADD12R,0.430000X0.329999*%
%TD*%
%TA.AperFunction,SMDPad,CuDef*%
%ADD13R,0.800000X0.800000*%
%TD*%
%TA.AperFunction,SMDPad,CuDef*%
%ADD14R,0.558800X0.504800*%
%TD*%
%TA.AperFunction,SMDPad,CuDef*%
%ADD15R,0.650000X0.900000*%
%TD*%
%TA.AperFunction,SMDPad,CuDef*%
%ADD16R,0.558800X1.295400*%
%TD*%
%TA.AperFunction,SMDPad,CuDef*%
%ADD17R,0.600000X0.500000*%
%TD*%
%TA.AperFunction,SMDPad,CuDef*%
%ADD18R,0.504800X0.558800*%
%TD*%
%TA.AperFunction,SMDPad,CuDef*%
%ADD19C,1.000000*%
%TD*%
%TA.AperFunction,SMDPad,CuDef*%
%ADD20R,3.098800X0.889000*%
%TD*%
%TA.AperFunction,SMDPad,CuDef*%
%ADD21R,0.650000X0.800000*%
%TD*%
%TA.AperFunction,SMDPad,CuDef*%
%ADD22R,0.380000X0.400000*%
%TD*%
%TA.AperFunction,SMDPad,CuDef*%
%ADD23R,0.800000X0.650000*%
%TD*%
%TA.AperFunction,SMDPad,CuDef*%
%ADD24FreePoly0,0.000000*%
%TD*%
%TA.AperFunction,SMDPad,CuDef*%
%ADD25FreePoly1,0.000000*%
%TD*%
%TA.AperFunction,SMDPad,CuDef*%
%ADD26R,0.400000X0.380000*%
%TD*%
%TA.AperFunction,SMDPad,CuDef*%
%ADD27R,0.558800X0.711200*%
%TD*%
%TA.AperFunction,SMDPad,CuDef*%
%ADD28R,0.939800X0.708000*%
%TD*%
%TA.AperFunction,SMDPad,CuDef*%
%ADD29R,0.600000X0.800000*%
%TD*%
%TA.AperFunction,SMDPad,CuDef*%
%ADD30FreePoly0,180.000000*%
%TD*%
%TA.AperFunction,SMDPad,CuDef*%
%ADD31FreePoly1,180.000000*%
%TD*%
%TA.AperFunction,SMDPad,CuDef*%
%ADD32R,0.475000X0.500000*%
%TD*%
%TA.AperFunction,SMDPad,CuDef*%
%ADD33R,0.749999X0.799998*%
%TD*%
%TA.AperFunction,SMDPad,CuDef*%
%ADD34R,0.550000X1.500000*%
%TD*%
%TA.AperFunction,ComponentPad*%
%ADD35C,1.050000*%
%TD*%
%TA.AperFunction,SMDPad,CuDef*%
%ADD36FreePoly0,270.000000*%
%TD*%
%TA.AperFunction,SMDPad,CuDef*%
%ADD37FreePoly1,270.000000*%
%TD*%
%TA.AperFunction,ComponentPad*%
%ADD38C,1.016000*%
%TD*%
%TA.AperFunction,SMDPad,CuDef*%
%ADD39FreePoly0,90.000000*%
%TD*%
%TA.AperFunction,SMDPad,CuDef*%
%ADD40FreePoly1,90.000000*%
%TD*%
%TA.AperFunction,SMDPad,CuDef*%
%ADD41R,1.500000X0.550000*%
%TD*%
%TA.AperFunction,SMDPad,CuDef*%
%ADD42R,0.701040X1.150620*%
%TD*%
%TA.AperFunction,SMDPad,CuDef*%
%ADD43R,1.150620X0.701040*%
%TD*%
%TA.AperFunction,SMDPad,CuDef*%
%ADD44R,0.701040X0.701040*%
%TD*%
%TA.AperFunction,SMDPad,CuDef*%
%ADD45RoundRect,0.075000X-0.700000X-0.075000X0.700000X-0.075000X0.700000X0.075000X-0.700000X0.075000X0*%
%TD*%
%TA.AperFunction,SMDPad,CuDef*%
%ADD46RoundRect,0.075000X-0.075000X-0.700000X0.075000X-0.700000X0.075000X0.700000X-0.075000X0.700000X0*%
%TD*%
%TA.AperFunction,SMDPad,CuDef*%
%ADD47R,0.708000X0.939800*%
%TD*%
%TA.AperFunction,SMDPad,CuDef*%
%ADD48RoundRect,0.060000X-0.240000X-0.060000X0.240000X-0.060000X0.240000X0.060000X-0.240000X0.060000X0*%
%TD*%
%TA.AperFunction,ComponentPad*%
%ADD49C,0.500000*%
%TD*%
%TA.AperFunction,SMDPad,CuDef*%
%ADD50FreePoly2,0.000000*%
%TD*%
%TA.AperFunction,SMDPad,CuDef*%
%ADD51R,1.290599X0.839000*%
%TD*%
%TA.AperFunction,SMDPad,CuDef*%
%ADD52R,0.508000X0.304800*%
%TD*%
%TA.AperFunction,SMDPad,CuDef*%
%ADD53R,0.990600X1.498600*%
%TD*%
%TA.AperFunction,ComponentPad*%
%ADD54FreePoly3,270.000000*%
%TD*%
%TA.AperFunction,ComponentPad*%
%ADD55R,1.050000X1.050000*%
%TD*%
%TA.AperFunction,ComponentPad*%
%ADD56FreePoly3,30.000000*%
%TD*%
%TA.AperFunction,ComponentPad*%
%ADD57FreePoly3,210.000000*%
%TD*%
%TA.AperFunction,ComponentPad*%
%ADD58FreePoly3,330.000000*%
%TD*%
%TA.AperFunction,ComponentPad*%
%ADD59FreePoly3,90.000000*%
%TD*%
%TA.AperFunction,ComponentPad*%
%ADD60FreePoly3,150.000000*%
%TD*%
%TA.AperFunction,ViaPad*%
%ADD61C,0.600000*%
%TD*%
%TA.AperFunction,ViaPad*%
%ADD62C,0.450000*%
%TD*%
%TA.AperFunction,Conductor*%
%ADD63C,0.254000*%
%TD*%
%TA.AperFunction,Conductor*%
%ADD64C,0.250000*%
%TD*%
%TA.AperFunction,Conductor*%
%ADD65C,0.160000*%
%TD*%
%TA.AperFunction,Conductor*%
%ADD66C,0.150000*%
%TD*%
%TA.AperFunction,Conductor*%
%ADD67C,0.200000*%
%TD*%
G04 APERTURE END LIST*
D10*
%TO.P,GND,1,Pin_1*%
%TO.N,GND*%
X134440100Y-122266820D03*
%TD*%
D11*
%TO.P,J12,1,1*%
%TO.N,VMIC*%
X143615100Y-122493820D03*
%TO.P,J12,2,2*%
%TO.N,Net-(J12-Pad2)*%
X144865100Y-122493820D03*
%TO.P,J12,3,3*%
%TO.N,/microphones/CK_EXT*%
X146115100Y-122493820D03*
%TO.P,J12,4,4*%
%TO.N,GND*%
X147365100Y-122493820D03*
%TD*%
D10*
%TO.P,VBAT,1,Pin_1*%
%TO.N,VBat*%
X138270100Y-120966820D03*
%TD*%
%TO.P,3V3,1,Pin_1*%
%TO.N,3V3*%
X131840100Y-120806820D03*
%TD*%
D12*
%TO.P,C4,1*%
%TO.N,/Core/RCC_OSC_OUT*%
X128184400Y-100816720D03*
%TO.P,C4,2*%
%TO.N,Net-(C4-Pad2)*%
X127584400Y-100816720D03*
%TD*%
D13*
%TO.P,D9,1*%
%TO.N,Net-(D9-Pad1)*%
X140590100Y-99416820D03*
%TO.P,D9,2*%
%TO.N,/Core/FAULT_LED*%
X142090100Y-99416820D03*
%TD*%
D14*
%TO.P,C34,1*%
%TO.N,VNINA*%
X156990100Y-112948520D03*
%TO.P,C34,2*%
%TO.N,GND*%
X156990100Y-113885120D03*
%TD*%
D15*
%TO.P,R7,1*%
%TO.N,GND*%
X137365100Y-99416820D03*
%TO.P,R7,2*%
%TO.N,Net-(D9-Pad1)*%
X138815100Y-99416820D03*
%TD*%
D16*
%TO.P,U4,1,IO*%
%TO.N,/connectors/CF_NRF51_OW*%
X144511599Y-114345520D03*
%TO.P,U4,2,NC*%
%TO.N,unconnected-(U4-NC-Pad2)*%
X146411601Y-114345520D03*
%TO.P,U4,3,GND*%
%TO.N,GND*%
X145461600Y-112288120D03*
%TD*%
D17*
%TO.P,C7,1*%
%TO.N,GND*%
X141340100Y-114516820D03*
%TO.P,C7,2*%
%TO.N,Net-(U3-VCAP)*%
X140240100Y-114516820D03*
%TD*%
D18*
%TO.P,C6,1*%
%TO.N,VCORE*%
X133621800Y-99816820D03*
%TO.P,C6,2*%
%TO.N,GND*%
X134558400Y-99816820D03*
%TD*%
D19*
%TO.P,SW1,1,1*%
%TO.N,/Core/SDMMC1.SW*%
X157960100Y-122196820D03*
%TD*%
D20*
%TO.P,L1,1,1*%
%TO.N,Net-(U2-L1)*%
X124690100Y-114821720D03*
%TO.P,L1,2,2*%
%TO.N,Net-(U2-L2)*%
X124690100Y-112611920D03*
%TD*%
D21*
%TO.P,C13,1*%
%TO.N,GND*%
X145315100Y-101016820D03*
%TO.P,C13,2*%
%TO.N,VCORE*%
X143665100Y-101016820D03*
%TD*%
D22*
%TO.P,R6,1*%
%TO.N,VCORE*%
X136190100Y-114576820D03*
%TO.P,R6,2*%
%TO.N,/Core/I2C3.SCL*%
X136750100Y-114576820D03*
%TD*%
D23*
%TO.P,C35,1*%
%TO.N,GND*%
X155590100Y-114541820D03*
%TO.P,C35,2*%
%TO.N,VNINA*%
X155590100Y-112891820D03*
%TD*%
%TO.P,C9,1*%
%TO.N,GND*%
X142840100Y-114698520D03*
%TO.P,C9,2*%
%TO.N,VCORE*%
X142840100Y-113048520D03*
%TD*%
D24*
%TO.P,J21,1*%
%TO.N,3V3*%
X132020100Y-93306820D03*
D25*
%TO.P,J21,2*%
%TO.N,VCORE*%
X133320100Y-93306820D03*
%TD*%
D11*
%TO.P,J11,1,1*%
%TO.N,VMIC*%
X167967100Y-108891820D03*
%TO.P,J11,2,2*%
%TO.N,Net-(J10-Pad2)*%
X167967100Y-107641820D03*
%TO.P,J11,3,3*%
%TO.N,/microphones/CK_EXT*%
X167967100Y-106391820D03*
%TO.P,J11,4,4*%
%TO.N,GND*%
X167967100Y-105141820D03*
%TD*%
%TO.P,J13,1,1*%
%TO.N,VMIC*%
X147365100Y-91539820D03*
%TO.P,J13,2,2*%
%TO.N,Net-(J12-Pad2)*%
X146115100Y-91539820D03*
%TO.P,J13,3,3*%
%TO.N,/microphones/CK_EXT*%
X144865100Y-91539820D03*
%TO.P,J13,4,4*%
%TO.N,GND*%
X143615100Y-91539820D03*
%TD*%
D26*
%TO.P,R23,1*%
%TO.N,Net-(P3-Pad2)*%
X132380100Y-99276820D03*
%TO.P,R23,2*%
%TO.N,/Core/JTAG.TMS*%
X132380100Y-99836820D03*
%TD*%
D27*
%TO.P,C14,1*%
%TO.N,GND*%
X125190100Y-111037520D03*
%TO.P,C14,2*%
%TO.N,Net-(U2-FB)*%
X125190100Y-109996120D03*
%TD*%
D14*
%TO.P,C1,1*%
%TO.N,VCORE*%
X134290100Y-116548520D03*
%TO.P,C1,2*%
%TO.N,GND*%
X134290100Y-117485120D03*
%TD*%
D28*
%TO.P,R2,1*%
%TO.N,Net-(C12-Pad1)*%
X130240100Y-106713720D03*
%TO.P,R2,2*%
%TO.N,/Core/RCC_OSC_IN*%
X130240100Y-105319920D03*
%TD*%
D26*
%TO.P,R26,1*%
%TO.N,Net-(P3-Pad8)*%
X129380100Y-99276820D03*
%TO.P,R26,2*%
%TO.N,/Core/JTAG.TDI*%
X129380100Y-99836820D03*
%TD*%
D19*
%TO.P,PAIR3,1,1*%
%TO.N,/microphones/D3_REP*%
X150590100Y-125616820D03*
%TD*%
D26*
%TO.P,R28,1*%
%TO.N,Net-(P3-Pad9)*%
X127414400Y-99286720D03*
%TO.P,R28,2*%
%TO.N,GND*%
X127414400Y-99846720D03*
%TD*%
D18*
%TO.P,C8,1*%
%TO.N,GND*%
X134190100Y-114316820D03*
%TO.P,C8,2*%
%TO.N,VCORE*%
X135126700Y-114316820D03*
%TD*%
D29*
%TO.P,D10,1*%
%TO.N,/nina/NINA_LED*%
X149390100Y-100516820D03*
%TO.P,D10,2*%
%TO.N,Net-(D10-Pad2)*%
X150790100Y-100516820D03*
%TD*%
D30*
%TO.P,J20,1*%
%TO.N,3V3*%
X163730100Y-116146820D03*
D31*
%TO.P,J20,2*%
%TO.N,VSD*%
X162430100Y-116146820D03*
%TD*%
D32*
%TO.P,R21,1*%
%TO.N,/connectors/NINA_UART.TX*%
X150078100Y-121116820D03*
%TO.P,R21,2*%
%TO.N,Net-(P2-RX2)*%
X151102100Y-121116820D03*
%TD*%
D33*
%TO.P,R1,1*%
%TO.N,Net-(U2-EN)*%
X129265099Y-116516820D03*
%TO.P,R1,2*%
%TO.N,VBat*%
X127715101Y-116516820D03*
%TD*%
D13*
%TO.P,D8,1*%
%TO.N,Net-(D8-Pad1)*%
X134190100Y-120566820D03*
%TO.P,D8,2*%
%TO.N,3V3*%
X134190100Y-119066820D03*
%TD*%
D19*
%TO.P,SDMC0,1,1*%
%TO.N,/Core/SDMMC1.D0*%
X165240100Y-97566820D03*
%TD*%
D34*
%TO.P,S3,1*%
%TO.N,/nina/NINA_RST*%
X157140100Y-100016820D03*
%TO.P,S3,2*%
%TO.N,GND*%
X160390100Y-100016820D03*
%TD*%
D35*
%TO.P,P3,1*%
%TO.N,VCORE*%
X134030100Y-96016820D03*
%TO.P,P3,2*%
%TO.N,Net-(P3-Pad2)*%
X134030100Y-97286820D03*
%TO.P,P3,3*%
%TO.N,GND*%
X132760100Y-96016820D03*
%TO.P,P3,4*%
%TO.N,Net-(P3-Pad4)*%
X132760100Y-97286820D03*
%TO.P,P3,5*%
%TO.N,GND*%
X131490100Y-96016820D03*
%TO.P,P3,6*%
%TO.N,Net-(P3-Pad6)*%
X131490100Y-97286820D03*
%TO.P,P3,7*%
%TO.N,GND*%
X130220100Y-96016820D03*
%TO.P,P3,8*%
%TO.N,Net-(P3-Pad8)*%
X130220100Y-97286820D03*
%TO.P,P3,9*%
%TO.N,Net-(P3-Pad9)*%
X128950100Y-96016820D03*
%TO.P,P3,10*%
%TO.N,Net-(P3-Pad10)*%
X128950100Y-97286820D03*
%TD*%
D19*
%TO.P,SDMC3,1,1*%
%TO.N,/Core/SDMMC1.D2*%
X158610100Y-118926820D03*
%TD*%
D26*
%TO.P,R5,1*%
%TO.N,VCORE*%
X130490100Y-110976820D03*
%TO.P,R5,2*%
%TO.N,/Core/I2C3.SDA*%
X130490100Y-110416820D03*
%TD*%
D36*
%TO.P,J19,1*%
%TO.N,3V3*%
X151190100Y-88646820D03*
D37*
%TO.P,J19,2*%
%TO.N,VMIC*%
X151190100Y-89946820D03*
%TD*%
D30*
%TO.P,J18,1*%
%TO.N,VNINA*%
X152450100Y-114386820D03*
D31*
%TO.P,J18,2*%
%TO.N,3V3*%
X151150100Y-114386820D03*
%TD*%
D19*
%TO.P,CMD1,1,1*%
%TO.N,/Core/SDMMC1.CMD*%
X161430100Y-119486820D03*
%TD*%
D32*
%TO.P,R20,1*%
%TO.N,/connectors/NINA_UART.RX*%
X153402100Y-121016820D03*
%TO.P,R20,2*%
%TO.N,Net-(P2-TX2)*%
X152378100Y-121016820D03*
%TD*%
D19*
%TO.P,SDMC1,1,1*%
%TO.N,/Core/SDMMC1.D1*%
X158930100Y-92786820D03*
%TD*%
%TO.P,SDMC2,1,1*%
%TO.N,/Core/SDMMC1.D3*%
X159710100Y-120746820D03*
%TD*%
D38*
%TO.P,P5,1,1*%
%TO.N,VNINA*%
X161230100Y-96916820D03*
%TO.P,P5,2,2*%
%TO.N,/nina/NINA_JTAG_TMS*%
X161230100Y-95646820D03*
%TO.P,P5,3,3*%
%TO.N,/nina/NINA_RST*%
X159960100Y-96916820D03*
%TO.P,P5,4,4*%
%TO.N,/nina/NINA_JTAG_TCK*%
X159960100Y-95646820D03*
%TO.P,P5,5,5*%
%TO.N,/nina/NINA_JTAG_TDI*%
X158690100Y-96916820D03*
%TO.P,P5,6,6*%
%TO.N,/nina/NINA_JTAG_TDO*%
X158690100Y-95646820D03*
%TO.P,P5,7,7*%
%TO.N,GND*%
X157420100Y-96916820D03*
%TO.P,P5,8,8*%
%TO.N,unconnected-(P5-Pad8)*%
X157420100Y-95646820D03*
%TD*%
D39*
%TO.P,J14,1*%
%TO.N,PGND*%
X121530100Y-113056820D03*
D40*
%TO.P,J14,2*%
%TO.N,GND*%
X121530100Y-111756820D03*
%TD*%
D18*
%TO.P,C16,1*%
%TO.N,VCORE*%
X132153500Y-117516820D03*
%TO.P,C16,2*%
%TO.N,GND*%
X133090100Y-117516820D03*
%TD*%
D41*
%TO.P,S2,1*%
%TO.N,/nina/BTN_BOOT*%
X159090100Y-112916820D03*
%TO.P,S2,2*%
%TO.N,GND*%
X159090100Y-116166820D03*
%TD*%
D26*
%TO.P,R22,1*%
%TO.N,/Core/JTAG.NRST*%
X122290100Y-102036820D03*
%TO.P,R22,2*%
%TO.N,VCORE*%
X122290100Y-102596820D03*
%TD*%
D15*
%TO.P,R29,1*%
%TO.N,GND*%
X153615100Y-100516820D03*
%TO.P,R29,2*%
%TO.N,Net-(D10-Pad2)*%
X152165100Y-100516820D03*
%TD*%
D19*
%TO.P,PAIR1,1,1*%
%TO.N,/microphones/D1_REP*%
X138020100Y-125616820D03*
%TD*%
D14*
%TO.P,C22,1*%
%TO.N,/Core/JTAG.NRST*%
X122290100Y-100985120D03*
%TO.P,C22,2*%
%TO.N,GND*%
X122290100Y-100048520D03*
%TD*%
D42*
%TO.P,MD1,1,GPIO_1/SPI_V_MOSI*%
%TO.N,/Core/SPI2.MOSI*%
X148760720Y-110954890D03*
%TO.P,MD1,2,GPI_2/ADC_2*%
%TO.N,unconnected-(MD1-GPI_2{slash}ADC_2-Pad2)*%
X149761480Y-110954890D03*
%TO.P,MD1,3,GPI_3/ADC_3*%
%TO.N,unconnected-(MD1-GPI_3{slash}ADC_3-Pad3)*%
X150762240Y-110954890D03*
%TO.P,MD1,4,GPI_4/ADC_4*%
%TO.N,unconnected-(MD1-GPI_4{slash}ADC_4-Pad4)*%
X151763000Y-110954890D03*
%TO.P,MD1,5,GPIO_5*%
%TO.N,unconnected-(MD1-GPIO_5-Pad5)*%
X152763760Y-110954890D03*
%TO.P,MD1,6,GND*%
%TO.N,GND*%
X153764520Y-110954890D03*
%TO.P,MD1,7,GPIO_7/LPO_IN*%
%TO.N,unconnected-(MD1-GPIO_7{slash}LPO_IN-Pad7)*%
X154765280Y-110954890D03*
%TO.P,MD1,8,GPIO_8/RMII_TXEN/SPI_V_HD*%
%TO.N,unconnected-(MD1-GPIO_8{slash}RMII_TXEN{slash}SPI_V_HD-Pad8)*%
X155766040Y-110954890D03*
%TO.P,MD1,9,VCC_IO*%
%TO.N,VNINA*%
X156766800Y-110954890D03*
%TO.P,MD1,10,VCC*%
X157767560Y-110954890D03*
D43*
%TO.P,MD1,11,RSVD*%
%TO.N,unconnected-(MD1-RSVD-Pad11)*%
X157685010Y-108892410D03*
%TO.P,MD1,12,GND*%
%TO.N,GND*%
X157685010Y-107891650D03*
%TO.P,MD1,13,ANT*%
%TO.N,unconnected-(MD1-ANT-Pad13)*%
X157685010Y-106890890D03*
%TO.P,MD1,14,GND*%
%TO.N,GND*%
X157685010Y-105890130D03*
%TO.P,MD1,15,RSVD*%
%TO.N,unconnected-(MD1-RSVD-Pad15)*%
X157685010Y-104889370D03*
D42*
%TO.P,MD1,16,GPIO_16/RMII_RXD0/DAC_16*%
%TO.N,unconnected-(MD1-GPIO_16{slash}RMII_RXD0{slash}DAC_16-Pad16)*%
X157767560Y-102826890D03*
%TO.P,MD1,17,GPIO_17/RMII_RXD1/DAC_17*%
%TO.N,/Core/NINA.IO1*%
X156766800Y-102826890D03*
%TO.P,MD1,18,GPIO_18/RMII_CRSDV*%
%TO.N,/Core/NINA.STM_NRST*%
X155766040Y-102826890D03*
%TO.P,MD1,19,~{RESET}*%
%TO.N,/nina/NINA_NRST*%
X154765280Y-102826890D03*
%TO.P,MD1,20,GPIO_20/UART_RTS/RMII_TXD1/SPI_V_WP*%
%TO.N,unconnected-(MD1-GPIO_20{slash}UART_RTS{slash}RMII_TXD1{slash}SPI_V_WP-Pad20)*%
X153764520Y-102826890D03*
%TO.P,MD1,21,GPIO_21/UART_CTS/RMII_TXD0/SPI_V_MISO*%
%TO.N,/Core/SPI2.MISO*%
X152763760Y-102826890D03*
%TO.P,MD1,22,GPIO_22/UART_TXD*%
%TO.N,/connectors/NINA_UART.TX*%
X151763000Y-102826890D03*
%TO.P,MD1,23,GPIO_23/UART_RXD*%
%TO.N,/connectors/NINA_UART.RX*%
X150762240Y-102826890D03*
%TO.P,MD1,24,GPIO_24/RMII_MDIO*%
%TO.N,/nina/NINA_LED*%
X149761480Y-102826890D03*
%TO.P,MD1,25,GPIO_25/RMII_MDCLK*%
%TO.N,/Core/NINA.IO0*%
X148760720Y-102826890D03*
D43*
%TO.P,MD1,26,GND*%
%TO.N,GND*%
X148835650Y-104889370D03*
%TO.P,MD1,27,GPIO_27/RMII_CLK/SYS_BOOT*%
%TO.N,/nina/BTN_BOOT*%
X148835650Y-105890130D03*
%TO.P,MD1,28,GPIO_28/SPI_V_CS*%
%TO.N,/Core/SPI2.CS*%
X148835650Y-106890890D03*
%TO.P,MD1,29,GPIO_29/SPI_V_CLK*%
%TO.N,/Core/SPI2.SCK*%
X148835650Y-107891650D03*
%TO.P,MD1,30,GND*%
%TO.N,GND*%
X148835650Y-108892410D03*
D44*
%TO.P,MD1,31,GPIO_31/JTAG_TMS*%
%TO.N,/nina/NINA_JTAG_TMS*%
X150211060Y-109640440D03*
%TO.P,MD1,32,GPIO_32/JTAG_TDO*%
%TO.N,/nina/NINA_JTAG_TDO*%
X150211060Y-108540620D03*
%TO.P,MD1,33,RSVD*%
%TO.N,unconnected-(MD1-RSVD-Pad33)*%
X150211060Y-107440800D03*
%TO.P,MD1,34,GPI_34/ADC_34*%
%TO.N,unconnected-(MD1-GPI_34{slash}ADC_34-Pad34)*%
X150211060Y-106340980D03*
%TO.P,MD1,35,GPIO_35/JTAG_CLK*%
%TO.N,/nina/NINA_JTAG_TCK*%
X150211060Y-105241160D03*
%TO.P,MD1,36,GPIO_36/JTAG_TDI*%
%TO.N,/nina/NINA_JTAG_TDI*%
X150211060Y-104141340D03*
%TO.P,MD1,37,GND*%
%TO.N,GND*%
X151539480Y-107466200D03*
%TO.P,MD1,38,GND*%
X151539480Y-106315580D03*
%TO.P,MD1,39,GND*%
X152690100Y-108616820D03*
%TO.P,MD1,40,GND*%
X152690100Y-107466200D03*
%TO.P,MD1,41,GND*%
X152690100Y-106315580D03*
%TO.P,MD1,42,GND*%
X152690100Y-105164960D03*
%TO.P,MD1,43,GND*%
X153840720Y-107466200D03*
%TO.P,MD1,44,GND*%
X153840720Y-106315580D03*
%TO.P,MD1,45,GND*%
X154991340Y-108616820D03*
%TO.P,MD1,46,GND*%
X154991340Y-107466200D03*
%TO.P,MD1,47,GND*%
X154991340Y-106315580D03*
%TO.P,MD1,48,GND*%
X154991340Y-105164960D03*
%TD*%
D26*
%TO.P,R27,1*%
%TO.N,Net-(P3-Pad10)*%
X128380100Y-99276820D03*
%TO.P,R27,2*%
%TO.N,/Core/JTAG.NRST*%
X128380100Y-99836820D03*
%TD*%
D12*
%TO.P,C12,1*%
%TO.N,Net-(C12-Pad1)*%
X127584400Y-105016820D03*
%TO.P,C12,2*%
%TO.N,Net-(C12-Pad2)*%
X128184400Y-105016820D03*
%TD*%
D18*
%TO.P,C10,1*%
%TO.N,GND*%
X130643500Y-102366820D03*
%TO.P,C10,2*%
%TO.N,VCORE*%
X131580100Y-102366820D03*
%TD*%
D15*
%TO.P,R4,1*%
%TO.N,GND*%
X131365100Y-118816820D03*
%TO.P,R4,2*%
%TO.N,Net-(D8-Pad1)*%
X132815100Y-118816820D03*
%TD*%
D45*
%TO.P,U3,1,VBAT*%
%TO.N,VCORE*%
X132115100Y-103266820D03*
%TO.P,U3,2,PC13*%
%TO.N,unconnected-(U3-PC13-Pad2)*%
X132115100Y-103766820D03*
%TO.P,U3,3,PC14*%
%TO.N,unconnected-(U3-PC14-Pad3)*%
X132115100Y-104266820D03*
%TO.P,U3,4,PC15*%
%TO.N,unconnected-(U3-PC15-Pad4)*%
X132115100Y-104766820D03*
%TO.P,U3,5,PH0*%
%TO.N,/Core/RCC_OSC_IN*%
X132115100Y-105266820D03*
%TO.P,U3,6,PH1*%
%TO.N,/Core/RCC_OSC_OUT*%
X132115100Y-105766820D03*
%TO.P,U3,7,NRST*%
%TO.N,/Core/JTAG.NRST*%
X132115100Y-106266820D03*
%TO.P,U3,8,PC0*%
%TO.N,unconnected-(U3-PC0-Pad8)*%
X132115100Y-106766820D03*
%TO.P,U3,9,PC1*%
%TO.N,/Core/I2C3.SDA*%
X132115100Y-107266820D03*
%TO.P,U3,10,PC2*%
%TO.N,/Core/SPI2.MISO*%
X132115100Y-107766820D03*
%TO.P,U3,11,PC3*%
%TO.N,/Core/SAI1.D1*%
X132115100Y-108266820D03*
%TO.P,U3,12,VSSA*%
%TO.N,GND*%
X132115100Y-108766820D03*
%TO.P,U3,13,VDDA*%
%TO.N,VCORE*%
X132115100Y-109266820D03*
%TO.P,U3,14,PA0*%
%TO.N,/Core/UART4.TX*%
X132115100Y-109766820D03*
%TO.P,U3,15,PA1*%
%TO.N,/Core/UART4.RX*%
X132115100Y-110266820D03*
%TO.P,U3,16,PA2*%
%TO.N,unconnected-(U3-PA2-Pad16)*%
X132115100Y-110766820D03*
D46*
%TO.P,U3,17,PA3*%
%TO.N,/Core/SAI1.CK1*%
X134040100Y-112691820D03*
%TO.P,U3,18,VSS*%
%TO.N,GND*%
X134540100Y-112691820D03*
%TO.P,U3,19,VDD*%
%TO.N,VCORE*%
X135040100Y-112691820D03*
%TO.P,U3,20,PA4*%
%TO.N,/Core/CF.GPIO1*%
X135540100Y-112691820D03*
%TO.P,U3,21,PA5*%
%TO.N,/Core/SPI1.SCK*%
X136040100Y-112691820D03*
%TO.P,U3,22,PA6*%
%TO.N,/Core/SPI1.MISO*%
X136540100Y-112691820D03*
%TO.P,U3,23,PA7*%
%TO.N,/Core/I2C3.SCL*%
X137040100Y-112691820D03*
%TO.P,U3,24,PC4*%
%TO.N,unconnected-(U3-PC4-Pad24)*%
X137540100Y-112691820D03*
%TO.P,U3,25,PC5*%
%TO.N,/Core/SAI1.D3*%
X138040100Y-112691820D03*
%TO.P,U3,26,PB0*%
%TO.N,/Core/AUDIOCLK_SIG*%
X138540100Y-112691820D03*
%TO.P,U3,27,PB1*%
%TO.N,/Core/MDF1.SDI0*%
X139040100Y-112691820D03*
%TO.P,U3,28,PB2*%
%TO.N,unconnected-(U3-PB2-Pad28)*%
X139540100Y-112691820D03*
%TO.P,U3,29,PB10*%
%TO.N,unconnected-(U3-PB10-Pad29)*%
X140040100Y-112691820D03*
%TO.P,U3,30,VCAP*%
%TO.N,Net-(U3-VCAP)*%
X140540100Y-112691820D03*
%TO.P,U3,31,VSS*%
%TO.N,GND*%
X141040100Y-112691820D03*
%TO.P,U3,32,VDD*%
%TO.N,VCORE*%
X141540100Y-112691820D03*
D45*
%TO.P,U3,33,PB12*%
%TO.N,/Core/MDF1.SDI1*%
X143465100Y-110766820D03*
%TO.P,U3,34,PB13*%
%TO.N,/Core/SPI2.SCK*%
X143465100Y-110266820D03*
%TO.P,U3,35,PB14*%
%TO.N,/Core/MDF1.SDI2*%
X143465100Y-109766820D03*
%TO.P,U3,36,PB15*%
%TO.N,/Core/SPI2.MOSI*%
X143465100Y-109266820D03*
%TO.P,U3,37,PC6*%
%TO.N,/Core/SPI2.CS*%
X143465100Y-108766820D03*
%TO.P,U3,38,PC7*%
%TO.N,/Core/NINA.IO1*%
X143465100Y-108266820D03*
%TO.P,U3,39,PC8*%
%TO.N,/Core/SDMMC1.D0*%
X143465100Y-107766820D03*
%TO.P,U3,40,PC9*%
%TO.N,/Core/SDMMC1.D1*%
X143465100Y-107266820D03*
%TO.P,U3,41,PA8*%
%TO.N,/Core/CF.GPIO4*%
X143465100Y-106766820D03*
%TO.P,U3,42,PA9*%
%TO.N,/Core/NINA.STM_NRST*%
X143465100Y-106266820D03*
%TO.P,U3,43,PA10*%
%TO.N,/Core/NINA.IO0*%
X143465100Y-105766820D03*
%TO.P,U3,44,PA11*%
%TO.N,/Core/FAULT_LED*%
X143465100Y-105266820D03*
%TO.P,U3,45,PA12*%
%TO.N,/Core/SPI1.MOSI*%
X143465100Y-104766820D03*
%TO.P,U3,46,PA13*%
%TO.N,/Core/JTAG.TMS*%
X143465100Y-104266820D03*
%TO.P,U3,47,VSS*%
%TO.N,GND*%
X143465100Y-103766820D03*
%TO.P,U3,48,VDDUSB*%
%TO.N,VCORE*%
X143465100Y-103266820D03*
D46*
%TO.P,U3,49,PA14*%
%TO.N,/Core/JTAG.TCK*%
X141540100Y-101341820D03*
%TO.P,U3,50,PA15*%
%TO.N,/Core/JTAG.TDI*%
X141040100Y-101341820D03*
%TO.P,U3,51,PC10*%
%TO.N,/Core/SDMMC1.D2*%
X140540100Y-101341820D03*
%TO.P,U3,52,PC11*%
%TO.N,/Core/SDMMC1.D3*%
X140040100Y-101341820D03*
%TO.P,U3,53,PC12*%
%TO.N,/Core/SDMMC1.CK*%
X139540100Y-101341820D03*
%TO.P,U3,54,PD2*%
%TO.N,/Core/SDMMC1.CMD*%
X139040100Y-101341820D03*
%TO.P,U3,55,PB3*%
%TO.N,/Core/JTAG.TDO*%
X138540100Y-101341820D03*
%TO.P,U3,56,PB4*%
%TO.N,/Core/SDMMC1.SW*%
X138040100Y-101341820D03*
%TO.P,U3,57,PB5*%
%TO.N,unconnected-(U3-PB5-Pad57)*%
X137540100Y-101341820D03*
%TO.P,U3,58,PB6*%
%TO.N,unconnected-(U3-PB6-Pad58)*%
X137040100Y-101341820D03*
%TO.P,U3,59,PB7*%
%TO.N,unconnected-(U3-PB7-Pad59)*%
X136540100Y-101341820D03*
%TO.P,U3,60,PH3*%
%TO.N,GND*%
X136040100Y-101341820D03*
%TO.P,U3,61,PB8*%
%TO.N,/Core/MDF1.CCK0*%
X135540100Y-101341820D03*
%TO.P,U3,62,PB9*%
%TO.N,/Core/SAI1.D2*%
X135040100Y-101341820D03*
%TO.P,U3,63,VSS*%
%TO.N,GND*%
X134540100Y-101341820D03*
%TO.P,U3,64,VDD*%
%TO.N,VCORE*%
X134040100Y-101341820D03*
%TD*%
D47*
%TO.P,R3,1*%
%TO.N,Net-(U1-OUTPUT)*%
X131473200Y-113236820D03*
%TO.P,R3,2*%
%TO.N,/Core/AUDIOCLK_SIG*%
X132867000Y-113236820D03*
%TD*%
D48*
%TO.P,U2,1,VOUT*%
%TO.N,Net-(U2-FB)*%
X127290100Y-112716820D03*
%TO.P,U2,2,L2*%
%TO.N,Net-(U2-L2)*%
X127290100Y-113216820D03*
%TO.P,U2,3,PGND*%
%TO.N,PGND*%
X127290100Y-113716820D03*
%TO.P,U2,4,L1*%
%TO.N,Net-(U2-L1)*%
X127290100Y-114216820D03*
%TO.P,U2,5,VIN*%
%TO.N,VBat*%
X127290100Y-114716820D03*
%TO.P,U2,6,EN*%
%TO.N,Net-(U2-EN)*%
X130090100Y-114716820D03*
%TO.P,U2,7,PS/SYNC*%
X130090100Y-114216820D03*
%TO.P,U2,8,VINA*%
X130090100Y-113716820D03*
%TO.P,U2,9,GND*%
%TO.N,GND*%
X130090100Y-113216820D03*
%TO.P,U2,10,FB*%
%TO.N,Net-(U2-FB)*%
X130090100Y-112716820D03*
D49*
%TO.P,U2,11,PGND*%
%TO.N,PGND*%
X128115100Y-113716820D03*
X128690100Y-112766820D03*
D50*
X128690100Y-113716820D03*
D49*
X128690100Y-114666820D03*
X129265100Y-113716820D03*
%TD*%
D19*
%TO.P,PAIR2,1,1*%
%TO.N,/microphones/D2_REP*%
X140290100Y-125416820D03*
%TD*%
D21*
%TO.P,C2,1*%
%TO.N,GND*%
X129315100Y-118016820D03*
%TO.P,C2,2*%
%TO.N,VBat*%
X127665100Y-118016820D03*
%TD*%
D51*
%TO.P,X1,1,1*%
%TO.N,/Core/RCC_OSC_OUT*%
X129190100Y-102116620D03*
%TO.P,X1,2,2*%
%TO.N,Net-(C4-Pad2)*%
X126578700Y-102116620D03*
%TO.P,X1,3,3*%
%TO.N,Net-(C12-Pad1)*%
X126578700Y-103716820D03*
%TO.P,X1,4,4*%
%TO.N,Net-(C12-Pad2)*%
X129190100Y-103716820D03*
%TD*%
D52*
%TO.P,U1,1,INH*%
%TO.N,VCORE*%
X132840950Y-116266120D03*
%TO.P,U1,2,CASE_GND*%
%TO.N,GND*%
X132840950Y-114767520D03*
%TO.P,U1,3,OUTPUT*%
%TO.N,Net-(U1-OUTPUT)*%
X131939250Y-114767520D03*
%TO.P,U1,4,VCC*%
%TO.N,VCORE*%
X131939250Y-116266120D03*
%TD*%
D22*
%TO.P,R30,1*%
%TO.N,/nina/NINA_NRST*%
X155310100Y-100516820D03*
%TO.P,R30,2*%
%TO.N,/nina/NINA_RST*%
X155870100Y-100516820D03*
%TD*%
D26*
%TO.P,R25,1*%
%TO.N,Net-(P3-Pad6)*%
X130380100Y-99276820D03*
%TO.P,R25,2*%
%TO.N,/Core/JTAG.TDO*%
X130380100Y-99836820D03*
%TD*%
D14*
%TO.P,C3,1*%
%TO.N,VCORE*%
X130490100Y-109316820D03*
%TO.P,C3,2*%
%TO.N,GND*%
X130490100Y-108380220D03*
%TD*%
%TO.P,C5,1*%
%TO.N,GND*%
X130590100Y-117285120D03*
%TO.P,C5,2*%
%TO.N,Net-(U2-EN)*%
X130590100Y-116348520D03*
%TD*%
D41*
%TO.P,S1,1*%
%TO.N,/Core/JTAG.NRST*%
X124190100Y-102241820D03*
%TO.P,S1,2*%
%TO.N,GND*%
X124190100Y-98991820D03*
%TD*%
D19*
%TO.P,MCK1,1,1*%
%TO.N,/microphones/CK_IN*%
X153020100Y-125666820D03*
%TD*%
D53*
%TO.P,F1,1,1*%
%TO.N,Net-(U2-FB)*%
X126897900Y-110516820D03*
%TO.P,F1,2,2*%
%TO.N,3V3*%
X129082300Y-110516820D03*
%TD*%
D18*
%TO.P,C33,1*%
%TO.N,/nina/NINA_RST*%
X155858400Y-99416820D03*
%TO.P,C33,2*%
%TO.N,GND*%
X154921800Y-99416820D03*
%TD*%
%TO.P,C11,1*%
%TO.N,VCORE*%
X144071800Y-102266820D03*
%TO.P,C11,2*%
%TO.N,GND*%
X145008400Y-102266820D03*
%TD*%
D11*
%TO.P,J10,1,1*%
%TO.N,VMIC*%
X123013100Y-105141820D03*
%TO.P,J10,2,2*%
%TO.N,Net-(J10-Pad2)*%
X123013100Y-106391820D03*
%TO.P,J10,3,3*%
%TO.N,/microphones/CK_EXT*%
X123013100Y-107641820D03*
%TO.P,J10,4,4*%
%TO.N,GND*%
X123013100Y-108891820D03*
%TD*%
D26*
%TO.P,R24,1*%
%TO.N,Net-(P3-Pad4)*%
X131380100Y-99276820D03*
%TO.P,R24,2*%
%TO.N,/Core/JTAG.TCK*%
X131380100Y-99836820D03*
%TD*%
D19*
%TO.P,CK1,1,1*%
%TO.N,/Core/SDMMC1.CK*%
X163520100Y-96396820D03*
%TD*%
D54*
%TO.P,M3,3,GND*%
%TO.N,GND*%
X164690100Y-107016820D03*
%TD*%
D55*
%TO.P,P1,1,VCC*%
%TO.N,/connectors/CF_VCC_2*%
X154490100Y-96016820D03*
D35*
%TO.P,P1,2,RX1*%
%TO.N,/Core/UART4.RX*%
X152490100Y-96016820D03*
%TO.P,P1,3,TX1*%
%TO.N,/Core/UART4.TX*%
X150490100Y-96016820D03*
%TO.P,P1,4,SDA*%
%TO.N,/Core/I2C3.SDA*%
X148490100Y-96016820D03*
%TO.P,P1,5,SCL*%
%TO.N,/Core/I2C3.SCL*%
X146490100Y-96016820D03*
%TO.P,P1,6,IO_1*%
%TO.N,/Core/CF.GPIO1*%
X144490100Y-96016820D03*
%TO.P,P1,7,IO_2*%
%TO.N,/connectors/CF.GPIO2_2*%
X142490100Y-96016820D03*
%TO.P,P1,8,IO_3*%
%TO.N,/connectors/CF.GPIO3*%
X140490100Y-96016820D03*
%TO.P,P1,9,IO_4*%
%TO.N,/Core/CF.GPIO4*%
X138490100Y-96016820D03*
%TO.P,P1,10,GND*%
%TO.N,GND*%
X136490100Y-96016820D03*
%TD*%
D56*
%TO.P,M2,3,GND*%
%TO.N,GND*%
X135890099Y-90416820D03*
%TD*%
D57*
%TO.P,M4,3,GND*%
%TO.N,GND*%
X155090100Y-123666820D03*
%TD*%
D55*
%TO.P,P2,1,TX2*%
%TO.N,Net-(P2-TX2)*%
X154490100Y-118016820D03*
D35*
%TO.P,P2,2,RX2*%
%TO.N,Net-(P2-RX2)*%
X152490100Y-118016820D03*
%TO.P,P2,3,SCK*%
%TO.N,/Core/SPI1.SCK*%
X150490100Y-118016820D03*
%TO.P,P2,4,MISO*%
%TO.N,/Core/SPI1.MISO*%
X148490100Y-118016820D03*
%TO.P,P2,5,MOSI*%
%TO.N,/Core/SPI1.MOSI*%
X146490100Y-118016820D03*
%TO.P,P2,6,N_IO_1*%
%TO.N,unconnected-(P2-N_IO_1-Pad6)_1*%
X144490100Y-118016820D03*
%TO.P,P2,7,WKUP*%
%TO.N,unconnected-(P2-WKUP-Pad7)_2*%
X142490100Y-118016820D03*
%TO.P,P2,8,OW*%
%TO.N,/connectors/CF_NRF51_OW*%
X140490100Y-118016820D03*
%TO.P,P2,9,VCOM*%
%TO.N,VBat*%
X138490100Y-118016820D03*
%TO.P,P2,10,VUSB*%
%TO.N,unconnected-(P2-VUSB-Pad10)*%
X136490100Y-118016820D03*
%TD*%
D58*
%TO.P,M7,3,GND*%
%TO.N,GND*%
X155053673Y-90400491D03*
%TD*%
D59*
%TO.P,M1,3,GND*%
%TO.N,GND*%
X126290100Y-107016820D03*
%TD*%
D60*
%TO.P,M5,3,GND*%
%TO.N,GND*%
X135882264Y-123616995D03*
%TD*%
D61*
%TO.N,3V3*%
X160900100Y-117306820D03*
X150820100Y-113286820D03*
X135080100Y-93776820D03*
X134940100Y-119346820D03*
X151530100Y-94356820D03*
X129480100Y-109426820D03*
%TO.N,GND*%
X125830100Y-105476820D03*
X161240100Y-99096820D03*
X130440100Y-119256820D03*
X136720100Y-124816820D03*
X133660100Y-118016820D03*
X132300100Y-115366820D03*
X154090100Y-105616820D03*
X137160100Y-98486820D03*
X125840100Y-99746820D03*
X145880100Y-102416820D03*
X141070100Y-115236820D03*
X154890100Y-114416820D03*
X146650100Y-112566820D03*
X147090100Y-110816820D03*
X154990100Y-98804430D03*
X157490100Y-104016820D03*
X163690100Y-98416820D03*
X165110100Y-105216820D03*
X130850100Y-114546820D03*
X157635100Y-115261820D03*
X135220100Y-110156820D03*
X133340100Y-108886820D03*
X120940100Y-110206820D03*
X162570100Y-104576820D03*
X130350100Y-101506820D03*
X147830100Y-105246820D03*
X136610100Y-102586820D03*
X165150100Y-108776820D03*
%TO.N,/Core/SDMMC1.SW*%
X156485100Y-120611820D03*
X144890100Y-109986820D03*
X147250100Y-107806820D03*
X138370100Y-104366820D03*
%TO.N,Net-(J1-CLK)*%
X164280100Y-103276820D03*
X163690100Y-100976820D03*
%TO.N,Net-(J1-DAT0)*%
X162490100Y-102286820D03*
X162490100Y-100986820D03*
X162590100Y-112376820D03*
%TO.N,Net-(J1-DAT1)*%
X161490100Y-101266820D03*
X161155100Y-112401820D03*
%TO.N,Net-(J1-DAT2)*%
X166990100Y-101006820D03*
X166990100Y-112296820D03*
%TO.N,Net-(J1-CD{slash}DAT3)*%
X165590100Y-112316820D03*
X166120100Y-100886820D03*
X166496100Y-110226820D03*
D62*
%TO.N,/microphones/CK_IN*%
X128680100Y-106806820D03*
X152670100Y-124946820D03*
X135650100Y-91886820D03*
X151190100Y-91516820D03*
X125700100Y-97786820D03*
X155430100Y-122426820D03*
D61*
X127110100Y-107936820D03*
D62*
X153970100Y-90526820D03*
X130290100Y-118116820D03*
X151390100Y-122516820D03*
D61*
X163690100Y-105986820D03*
D62*
X137092264Y-123234656D03*
D61*
%TO.N,/Core/SDMMC1.CK*%
X141490100Y-97516820D03*
X145300100Y-93656820D03*
X156690100Y-93616820D03*
X162690100Y-95416820D03*
X170220100Y-103886820D03*
D62*
%TO.N,/Core/SDMMC1.D0*%
X151090100Y-98216820D03*
D61*
X170250100Y-102616820D03*
X165090100Y-97416820D03*
%TO.N,/Core/SDMMC1.D1*%
X160410100Y-93466820D03*
%TO.N,/Core/SDMMC1.D2*%
X160070100Y-117816820D03*
X140449100Y-103375820D03*
X147780100Y-112236820D03*
%TO.N,/Core/SDMMC1.D3*%
X147170100Y-113456820D03*
X170530100Y-111626820D03*
X139490100Y-103256820D03*
%TO.N,/Core/SDMMC1.CMD*%
X139200100Y-104136820D03*
X170770100Y-112696820D03*
D62*
%TO.N,/Core/MDF1.SDI1*%
X141390100Y-91776820D03*
D61*
X142190100Y-110516820D03*
%TO.N,/Core/UART4.TX*%
X147290100Y-98816820D03*
X141090100Y-106216820D03*
D62*
%TO.N,/Core/NINA.STM_NRST*%
X155490100Y-103616820D03*
D61*
X145190100Y-105966820D03*
%TO.N,/Core/SAI1.CK1*%
X134160100Y-106136820D03*
D62*
X129790100Y-118816820D03*
X133990100Y-115646820D03*
D61*
X133480100Y-111196820D03*
D62*
%TO.N,/Core/MDF1.CCK0*%
X150090100Y-92116820D03*
D61*
X135610100Y-102696820D03*
D62*
%TO.N,/Core/SPI1.MISO*%
X137490100Y-119616820D03*
D61*
X136320100Y-113926820D03*
D62*
%TO.N,/Core/MDF1.SDI0*%
X138990100Y-91516820D03*
D61*
X138518413Y-111318507D03*
%TO.N,/Core/FAULT_LED*%
X142190100Y-100316820D03*
X142290100Y-105516820D03*
%TO.N,/Core/MDF1.SDI2*%
X142090100Y-109616820D03*
D62*
X148490100Y-91616820D03*
D61*
%TO.N,/Core/I2C3.SCL*%
X137440100Y-111496820D03*
X138150100Y-110456820D03*
X140690100Y-107616820D03*
D62*
X145690100Y-98016820D03*
%TO.N,/Core/SPI1.SCK*%
X148090100Y-117016820D03*
D61*
X136480100Y-111256820D03*
%TO.N,/Core/NINA.IO0*%
X147990100Y-104096820D03*
X144940100Y-105206820D03*
D62*
%TO.N,/Core/JTAG.TDO*%
X130130100Y-99886820D03*
D61*
X136490100Y-99916820D03*
D62*
%TO.N,/Core/SAI1.D1*%
X128140100Y-101766820D03*
X131390100Y-111316820D03*
X125990100Y-111716820D03*
D61*
X134010100Y-108366820D03*
D62*
%TO.N,/Core/I2C3.SDA*%
X130975100Y-109961820D03*
D61*
X134670100Y-106846820D03*
%TO.N,/Core/SPI2.MISO*%
X137560100Y-107976820D03*
X141690100Y-106816820D03*
X135880100Y-106616820D03*
D62*
X151014840Y-101616820D03*
%TO.N,/Core/JTAG.TDI*%
X128970100Y-99896820D03*
D61*
X135400100Y-103966820D03*
D62*
%TO.N,/Core/SAI1.D2*%
X124990100Y-105116820D03*
X135550100Y-98856820D03*
X125590100Y-100716820D03*
X127990100Y-98616820D03*
X123190100Y-111316820D03*
D61*
%TO.N,/Core/UART4.RX*%
X149790100Y-97716820D03*
X136690100Y-109616820D03*
X139050100Y-109596820D03*
X141590100Y-107616820D03*
X133622406Y-110070975D03*
X138290100Y-108616820D03*
X146990100Y-100416820D03*
D62*
%TO.N,/Core/NINA.IO1*%
X156690100Y-103616820D03*
X148890100Y-112016820D03*
D61*
X144890100Y-108416820D03*
D62*
X151490100Y-112016820D03*
D61*
%TO.N,/Core/CF.GPIO1*%
X137820100Y-107076820D03*
X135730100Y-110786820D03*
X135840100Y-108646820D03*
D62*
%TO.N,/Core/SAI1.D3*%
X131390100Y-117116820D03*
D61*
X137960100Y-114006820D03*
D62*
X126590100Y-116716820D03*
D61*
%TO.N,/Core/JTAG.TCK*%
X135020100Y-104976820D03*
X132390100Y-100716820D03*
D62*
%TO.N,/nina/NINA_JTAG_TCK*%
X151890100Y-105416820D03*
X162930100Y-98616820D03*
%TO.N,/connectors/NINA_UART.TX*%
X159890100Y-117016820D03*
X156580100Y-109506820D03*
X156850100Y-118176820D03*
%TO.N,/nina/NINA_JTAG_TDI*%
X151882806Y-104616820D03*
X160090100Y-98816820D03*
%TO.N,/connectors/NINA_UART.RX*%
X157865100Y-114216820D03*
X155460100Y-109836820D03*
X155950100Y-117856820D03*
%TO.N,/nina/NINA_JTAG_TDO*%
X151290100Y-108616820D03*
X151290100Y-99216820D03*
%TO.N,/nina/BTN_BOOT*%
X159090100Y-111216820D03*
D61*
X147290100Y-106416820D03*
D62*
%TO.N,/nina/NINA_JTAG_TMS*%
X152890100Y-101216820D03*
X153490100Y-97616820D03*
X151690100Y-109416820D03*
%TO.N,/microphones/D1_REP*%
X137250100Y-125726820D03*
X124290100Y-111316820D03*
X153320100Y-122386820D03*
X137260100Y-92126820D03*
%TO.N,/microphones/D2_REP*%
X154440100Y-92406820D03*
X123090100Y-110316820D03*
X136290100Y-121476820D03*
X120790100Y-108216820D03*
X149690100Y-87816820D03*
%TO.N,/microphones/D3_REP*%
X139590100Y-93316820D03*
X151090100Y-124116820D03*
X163010100Y-110366820D03*
X128680100Y-109286820D03*
X148290100Y-93316820D03*
X134190100Y-93816820D03*
D61*
X163015100Y-108186820D03*
D62*
X140490100Y-92216820D03*
X127490100Y-115416820D03*
D61*
X128040100Y-106066820D03*
%TO.N,Net-(J1-CMD)*%
X164090100Y-112306820D03*
X164890100Y-100946820D03*
X165235100Y-109921820D03*
D62*
%TO.N,Net-(J10-Pad2)*%
X129290100Y-105576820D03*
%TO.N,/microphones/CK_EXT*%
X136015100Y-94981820D03*
X130940100Y-104356820D03*
X130590100Y-107516820D03*
%TO.N,Net-(J12-Pad2)*%
X138990100Y-115116820D03*
D61*
X139340100Y-111346820D03*
X136700100Y-103676820D03*
D62*
X135550100Y-97906820D03*
X127760100Y-97646820D03*
D61*
%TO.N,VCORE*%
X136260100Y-115186820D03*
X135450100Y-96956820D03*
X143590100Y-113316820D03*
X133820100Y-98776820D03*
X135100100Y-116486820D03*
X130880100Y-112136820D03*
X143350100Y-102216820D03*
X129560100Y-104596820D03*
X135070100Y-111546820D03*
X123180100Y-102916820D03*
%TO.N,VSD*%
X160570100Y-104926820D03*
X149190100Y-116026820D03*
X161250100Y-115376820D03*
%TO.N,VMIC*%
X163960100Y-104476820D03*
X138520100Y-124046820D03*
X128660100Y-107626820D03*
X156260100Y-92066820D03*
X156810100Y-121916820D03*
X152520100Y-89816820D03*
X164050100Y-108246820D03*
X136580100Y-92986820D03*
%TO.N,VNINA*%
X155190100Y-111986820D03*
X152390100Y-113106820D03*
%TD*%
D63*
%TO.N,GND*%
X134532089Y-122266820D02*
X134440100Y-122266820D01*
X135882264Y-123616995D02*
X134532089Y-122266820D01*
D64*
%TO.N,VBat*%
X127665100Y-118281820D02*
X127665100Y-118016820D01*
X129390100Y-120006820D02*
X127665100Y-118281820D01*
X132950100Y-120126820D02*
X132830100Y-120006820D01*
X132950100Y-120656820D02*
X132950100Y-120126820D01*
X133586100Y-121292820D02*
X132950100Y-120656820D01*
X132830100Y-120006820D02*
X129390100Y-120006820D01*
X134814100Y-121292820D02*
X133586100Y-121292820D01*
X135965100Y-120141820D02*
X134814100Y-121292820D01*
D65*
%TO.N,/microphones/D2_REP*%
X140290100Y-124936820D02*
X140290100Y-125416820D01*
X136290100Y-121476820D02*
X136830100Y-121476820D01*
X136830100Y-121476820D02*
X140290100Y-124936820D01*
D64*
%TO.N,VBat*%
X135965100Y-120141820D02*
X136790100Y-120966820D01*
X136790100Y-120966820D02*
X138270100Y-120966820D01*
X135965100Y-120141820D02*
X138090100Y-118016820D01*
X138090100Y-118016820D02*
X138490100Y-118016820D01*
D63*
%TO.N,3V3*%
X129337817Y-109569103D02*
X129337817Y-110261303D01*
X163730100Y-116567754D02*
X162991034Y-117306820D01*
X163730100Y-116146820D02*
X163730100Y-116567754D01*
X151530100Y-92681307D02*
X151530100Y-94356820D01*
D64*
X151150100Y-114386820D02*
X151150100Y-113616820D01*
D63*
X150769166Y-88646820D02*
X150107100Y-89308886D01*
X132682166Y-92223820D02*
X132020100Y-92885886D01*
X134190100Y-119066820D02*
X134660100Y-119066820D01*
D64*
X151150100Y-113616820D02*
X150820100Y-113286820D01*
D63*
X133827100Y-92223820D02*
X132682166Y-92223820D01*
X134960100Y-93656820D02*
X134960100Y-93356820D01*
X162991034Y-117306820D02*
X160900100Y-117306820D01*
X129480100Y-109426820D02*
X129337817Y-109569103D01*
X151190100Y-88646820D02*
X150769166Y-88646820D01*
X132160100Y-93186820D02*
X131630100Y-93186820D01*
X129337817Y-110261303D02*
X129082300Y-110516820D01*
X132020100Y-92885886D02*
X132020100Y-93306820D01*
X150107100Y-91258307D02*
X151530100Y-92681307D01*
X134660100Y-119066820D02*
X134940100Y-119346820D01*
X150107100Y-89308886D02*
X150107100Y-91258307D01*
X134960100Y-93356820D02*
X133827100Y-92223820D01*
X135080100Y-93776820D02*
X134960100Y-93656820D01*
%TO.N,GND*%
X145008400Y-103070528D02*
X145226392Y-103070528D01*
X125085100Y-98991820D02*
X124190100Y-98991820D01*
X130881492Y-108380220D02*
X131268092Y-108766820D01*
D64*
X132840950Y-114767520D02*
X132840950Y-114825970D01*
X125190100Y-111037520D02*
X124944500Y-111037520D01*
D63*
X145771800Y-102416820D02*
X145315100Y-101960120D01*
D66*
X151539480Y-107466200D02*
X154991340Y-107466200D01*
D63*
X130643500Y-101800220D02*
X130350100Y-101506820D01*
X141340100Y-114516820D02*
X142658400Y-114516820D01*
D64*
X137160100Y-98886820D02*
X137365100Y-99091820D01*
X121530100Y-110816820D02*
X121470100Y-110816820D01*
X124584700Y-108722220D02*
X126290100Y-107016820D01*
D63*
X154990100Y-98804430D02*
X154990100Y-99348520D01*
X148835650Y-104889370D02*
X148187550Y-104889370D01*
X141040100Y-113538828D02*
X141040100Y-112691820D01*
D66*
X158410320Y-107891650D02*
X157685010Y-107891650D01*
D63*
X133090100Y-117516820D02*
X133160100Y-117516820D01*
D64*
X132300100Y-115366820D02*
X131670100Y-115366820D01*
D66*
X158536320Y-107765650D02*
X158410320Y-107891650D01*
X154991340Y-108616820D02*
X154991340Y-105164960D01*
D64*
X155590100Y-114541820D02*
X156333400Y-114541820D01*
D66*
X158162080Y-105890130D02*
X158536320Y-106264370D01*
D63*
X144312108Y-103766820D02*
X143465100Y-103766820D01*
X146371400Y-112288120D02*
X146650100Y-112566820D01*
X134518100Y-111822812D02*
X134380100Y-111684812D01*
D64*
X124944500Y-111037520D02*
X123013100Y-109106120D01*
X132840950Y-114825970D02*
X132300100Y-115366820D01*
D63*
X131365100Y-118816820D02*
X130880100Y-118816820D01*
X130440476Y-113216820D02*
X130791200Y-113567544D01*
X134540100Y-112691820D02*
X134518100Y-112669820D01*
X132115100Y-108766820D02*
X133220100Y-108766820D01*
X130791200Y-114487920D02*
X130850100Y-114546820D01*
D64*
X155590100Y-114541820D02*
X155015100Y-114541820D01*
X136533086Y-102663834D02*
X136533086Y-102916820D01*
X155015100Y-114541820D02*
X154890100Y-114416820D01*
D63*
X129315100Y-118016820D02*
X130046800Y-117285120D01*
X145008400Y-103070528D02*
X144312108Y-103766820D01*
X148187550Y-104889370D02*
X147830100Y-105246820D01*
X131365100Y-118060120D02*
X130590100Y-117285120D01*
X158540100Y-116166820D02*
X157635100Y-115261820D01*
X134290100Y-117485120D02*
X133121800Y-117485120D01*
X130643500Y-102366820D02*
X130643500Y-101800220D01*
X154990100Y-99348520D02*
X154921800Y-99416820D01*
X145315100Y-101016820D02*
X145315100Y-101960120D01*
X142658400Y-114516820D02*
X142840100Y-114698520D01*
D64*
X154921800Y-99416820D02*
X154715100Y-99416820D01*
D63*
X160390100Y-100016820D02*
X160821700Y-100016820D01*
D66*
X157685010Y-105890130D02*
X156959700Y-105890130D01*
D63*
X136610100Y-102586820D02*
X136360100Y-102586820D01*
D64*
X121530100Y-110374820D02*
X123013100Y-108891820D01*
X135320100Y-103306820D02*
X134540100Y-102526820D01*
D63*
X130490100Y-108380220D02*
X130881492Y-108380220D01*
X134380100Y-110676820D02*
X134900100Y-110156820D01*
D66*
X156833700Y-105764130D02*
X156833700Y-104262850D01*
D63*
X134540100Y-113860400D02*
X134540100Y-112691820D01*
X122290100Y-100048520D02*
X123346800Y-98991820D01*
X125870100Y-99716820D02*
X125840100Y-99746820D01*
X124315100Y-98866820D02*
X124190100Y-98991820D01*
D64*
X134540100Y-99835120D02*
X134558400Y-99816820D01*
D63*
X145315100Y-101960120D02*
X145008400Y-102266820D01*
D66*
X156959700Y-105890130D02*
X156833700Y-105764130D01*
D63*
X134240100Y-114266820D02*
X134240100Y-114160400D01*
D64*
X134540100Y-102526820D02*
X134540100Y-101341820D01*
X137160100Y-98486820D02*
X137160100Y-98886820D01*
D63*
X145880100Y-102416820D02*
X145771800Y-102416820D01*
X145226392Y-103070528D02*
X145880100Y-102416820D01*
D66*
X157079730Y-104016820D02*
X157490100Y-104016820D01*
D63*
X141340100Y-114516820D02*
X141340100Y-113838828D01*
D66*
X147090100Y-110637960D02*
X147090100Y-110816820D01*
D63*
X131268092Y-108766820D02*
X132115100Y-108766820D01*
D64*
X126290100Y-107016820D02*
X126290100Y-105936820D01*
D66*
X153764520Y-109691240D02*
X152690100Y-108616820D01*
X156833700Y-104262850D02*
X157079730Y-104016820D01*
D64*
X136610100Y-102586820D02*
X136533086Y-102663834D01*
D63*
X125840100Y-99746820D02*
X125085100Y-98991820D01*
X131365100Y-118816820D02*
X131365100Y-118060120D01*
D66*
X157685010Y-105890130D02*
X158162080Y-105890130D01*
D63*
X130791200Y-113567544D02*
X130791200Y-114487920D01*
X130880100Y-118816820D02*
X130440100Y-119256820D01*
X141340100Y-114966820D02*
X141070100Y-115236820D01*
D64*
X126290100Y-105936820D02*
X125830100Y-105476820D01*
X124944500Y-111037520D02*
X124584700Y-110677720D01*
D63*
X161290100Y-99548420D02*
X161240100Y-99498420D01*
D64*
X157635100Y-115261820D02*
X156990100Y-114616820D01*
D63*
X127414400Y-99846720D02*
X127010000Y-99846720D01*
D66*
X148835650Y-108892410D02*
X147090100Y-110637960D01*
D63*
X161240100Y-99498420D02*
X161240100Y-99096820D01*
D64*
X121470100Y-110816820D02*
X120940100Y-110286820D01*
X120940100Y-110286820D02*
X120940100Y-110206820D01*
X124584700Y-110677720D02*
X124584700Y-108722220D01*
D66*
X153840720Y-107466200D02*
X153840720Y-106315580D01*
D63*
X136360100Y-102586820D02*
X136040100Y-102266820D01*
X130046800Y-117285120D02*
X130590100Y-117285120D01*
X134240100Y-114160400D02*
X134540100Y-113860400D01*
D64*
X121530100Y-110816820D02*
X121530100Y-110374820D01*
D63*
X145008400Y-102266820D02*
X145008400Y-103070528D01*
D64*
X156333400Y-114541820D02*
X156990100Y-113885120D01*
D63*
X133660100Y-118016820D02*
X133758400Y-118016820D01*
D64*
X154715100Y-99416820D02*
X153615100Y-100516820D01*
D66*
X158536320Y-106264370D02*
X158536320Y-107765650D01*
D64*
X137365100Y-99091820D02*
X137365100Y-99416820D01*
D63*
X145461600Y-112288120D02*
X146371400Y-112288120D01*
D64*
X136143086Y-103306820D02*
X135320100Y-103306820D01*
X136533086Y-102916820D02*
X136143086Y-103306820D01*
X156990100Y-114616820D02*
X156990100Y-113885120D01*
D63*
X136040100Y-102266820D02*
X136040100Y-101341820D01*
D66*
X152690100Y-108616820D02*
X152690100Y-105164960D01*
X153764520Y-110954890D02*
X153764520Y-109691240D01*
D63*
X133121800Y-117485120D02*
X133090100Y-117516820D01*
X133758400Y-118016820D02*
X134290100Y-117485120D01*
D64*
X134540100Y-101341820D02*
X134540100Y-99835120D01*
D63*
X133220100Y-108766820D02*
X133340100Y-108886820D01*
D64*
X121530100Y-111756820D02*
X121530100Y-110816820D01*
D63*
X141340100Y-113838828D02*
X141040100Y-113538828D01*
X133160100Y-117516820D02*
X133660100Y-118016820D01*
X123346800Y-98991820D02*
X124190100Y-98991820D01*
D66*
X153840720Y-106315580D02*
X153840720Y-105866200D01*
D63*
X125840100Y-99746820D02*
X125940000Y-99846720D01*
D64*
X131670100Y-115366820D02*
X130850100Y-114546820D01*
D63*
X141340100Y-114516820D02*
X141340100Y-114966820D01*
X159090100Y-116166820D02*
X158540100Y-116166820D01*
X134190100Y-114316820D02*
X134240100Y-114266820D01*
X134900100Y-110156820D02*
X135220100Y-110156820D01*
X160821700Y-100016820D02*
X161290100Y-99548420D01*
X125940000Y-99846720D02*
X127010000Y-99846720D01*
X134518100Y-112669820D02*
X134518100Y-111822812D01*
X130090100Y-113216820D02*
X130440476Y-113216820D01*
X134380100Y-111684812D02*
X134380100Y-110676820D01*
D66*
X151539480Y-106315580D02*
X154991340Y-106315580D01*
X153840720Y-105866200D02*
X154090100Y-105616820D01*
D67*
%TO.N,VBat*%
X127190100Y-116516820D02*
X127715101Y-116516820D01*
X126690100Y-116016820D02*
X127190100Y-116516820D01*
X126690100Y-115316820D02*
X126690100Y-116016820D01*
X127715101Y-117966819D02*
X127665100Y-118016820D01*
X127290100Y-114716820D02*
X126690100Y-115316820D01*
X127715101Y-116516820D02*
X127715101Y-117966819D01*
D64*
%TO.N,/Core/RCC_OSC_OUT*%
X129420101Y-100956820D02*
X129190100Y-101186820D01*
X133216100Y-103523642D02*
X133209278Y-103516820D01*
X129190100Y-101186820D02*
X129190100Y-102116620D01*
X132115100Y-105766820D02*
X132959278Y-105766820D01*
X132734100Y-102452405D02*
X131238514Y-100956820D01*
X132734100Y-102459965D02*
X132734100Y-102452405D01*
D65*
X129190100Y-102116620D02*
X129190100Y-101822420D01*
D64*
X133150100Y-102875965D02*
X132734100Y-102459965D01*
X133216100Y-103509998D02*
X133216100Y-103023642D01*
X130069086Y-100850820D02*
X129963084Y-100956821D01*
X130571114Y-100850820D02*
X130069086Y-100850820D01*
X133150100Y-102957642D02*
X133150100Y-102875965D01*
X133216100Y-103023642D02*
X133150100Y-102957642D01*
X131238514Y-100956820D02*
X130677114Y-100956820D01*
D65*
X129190100Y-101822420D02*
X128184400Y-100816720D01*
D64*
X129963084Y-100956821D02*
X129420101Y-100956820D01*
X133216100Y-105509998D02*
X133216100Y-103523642D01*
X130677114Y-100956820D02*
X130571114Y-100850820D01*
X132959278Y-105766820D02*
X133216100Y-105509998D01*
X133209278Y-103516820D02*
X133216100Y-103509998D01*
D65*
%TO.N,Net-(C4-Pad2)*%
X126578700Y-101822420D02*
X127584400Y-100816720D01*
X126578700Y-102116620D02*
X126578700Y-101822420D01*
D64*
%TO.N,Net-(U2-EN)*%
X129265099Y-116516820D02*
X130421800Y-116516820D01*
D67*
X130090100Y-114716820D02*
X130590100Y-115216820D01*
X130590100Y-115216820D02*
X130590100Y-116348520D01*
D64*
X130421800Y-116516820D02*
X130590100Y-116348520D01*
D67*
X130090100Y-113716820D02*
X130090100Y-114716820D01*
%TO.N,Net-(U2-L2)*%
X125295000Y-113216820D02*
X124690100Y-112611920D01*
X127290100Y-113216820D02*
X125295000Y-113216820D01*
%TO.N,Net-(U2-L1)*%
X127290100Y-114216820D02*
X125295000Y-114216820D01*
X125295000Y-114216820D02*
X124690100Y-114821720D01*
D65*
%TO.N,Net-(C12-Pad2)*%
X128184400Y-105016820D02*
X128184400Y-104722520D01*
X128184400Y-104722520D02*
X129190100Y-103716820D01*
%TO.N,Net-(C12-Pad1)*%
X127584400Y-105358819D02*
X127584400Y-105016820D01*
X127688400Y-105462819D02*
X127584400Y-105358819D01*
X128359299Y-105462819D02*
X127688400Y-105462819D01*
X126578700Y-104011120D02*
X127584400Y-105016820D01*
X130240100Y-106713720D02*
X129610200Y-106713720D01*
X129610200Y-106713720D02*
X128359299Y-105462819D01*
X126578700Y-103716820D02*
X126578700Y-104011120D01*
D64*
%TO.N,Net-(U3-VCAP)*%
X140540100Y-114191620D02*
X140240100Y-114491620D01*
X140240100Y-114491620D02*
X140240100Y-114516820D01*
X140540100Y-112691820D02*
X140540100Y-114191620D01*
%TO.N,/Core/SDMMC1.SW*%
X138100100Y-104216820D02*
X138016100Y-104132820D01*
X144890100Y-109986820D02*
X145060100Y-109816820D01*
X145290100Y-109816820D02*
X147250100Y-107856820D01*
X157960100Y-122086820D02*
X156485100Y-120611820D01*
X138016100Y-104132820D02*
X138016100Y-101365820D01*
X138016100Y-101365820D02*
X138040100Y-101341820D01*
X138220100Y-104216820D02*
X138100100Y-104216820D01*
X145060100Y-109816820D02*
X145290100Y-109816820D01*
X147250100Y-107856820D02*
X147250100Y-107806820D01*
X138370100Y-104366820D02*
X138220100Y-104216820D01*
X157960100Y-122196820D02*
X157960100Y-122086820D01*
D65*
%TO.N,/Core/JTAG.NRST*%
X127846199Y-100370721D02*
X128380100Y-99836820D01*
X123260100Y-102206820D02*
X123090100Y-102036820D01*
X122290100Y-100985120D02*
X122290100Y-102036820D01*
D64*
X131784100Y-100710392D02*
X131660528Y-100586820D01*
D65*
X124847376Y-102241820D02*
X125652401Y-101436795D01*
X123090100Y-102036820D02*
X122290100Y-102036820D01*
D64*
X129255528Y-100586820D02*
X128800100Y-100586820D01*
X130727686Y-100472820D02*
X129912514Y-100472820D01*
D65*
X124190100Y-102241820D02*
X124155100Y-102206820D01*
D64*
X133112100Y-102295833D02*
X131784100Y-100967834D01*
D65*
X124155100Y-102206820D02*
X123260100Y-102206820D01*
D64*
X132993850Y-106266820D02*
X133630100Y-105630570D01*
X133630100Y-105630570D02*
X133630100Y-102821393D01*
X131784100Y-100967834D02*
X131784100Y-100710392D01*
X132115100Y-106266820D02*
X132993850Y-106266820D01*
X131660528Y-100586820D02*
X131403086Y-100586820D01*
X130833687Y-100578820D02*
X130727686Y-100472820D01*
D65*
X125652401Y-101436795D02*
X125652401Y-101416120D01*
X124190100Y-102241820D02*
X124847376Y-102241820D01*
D64*
X129806513Y-100578820D02*
X129263527Y-100578820D01*
D65*
X127088400Y-100370721D02*
X127846199Y-100370721D01*
D64*
X131395086Y-100578820D02*
X130833687Y-100578820D01*
X131403086Y-100586820D02*
X131395086Y-100578820D01*
X128380100Y-100166820D02*
X128380100Y-99836820D01*
D65*
X127088400Y-100416820D02*
X127088400Y-100370721D01*
D64*
X128800100Y-100586820D02*
X128380100Y-100166820D01*
X129263527Y-100578820D02*
X129255528Y-100586820D01*
D65*
X125652401Y-101416120D02*
X125673076Y-101416120D01*
D64*
X133630100Y-102821393D02*
X133112100Y-102303393D01*
X133112100Y-102303393D02*
X133112100Y-102295833D01*
X129912514Y-100472820D02*
X129806513Y-100578820D01*
D65*
X126672376Y-100416820D02*
X127088400Y-100416820D01*
X125673076Y-101416120D02*
X126672376Y-100416820D01*
D66*
%TO.N,/nina/NINA_RST*%
X159960100Y-96916820D02*
X161959100Y-98915820D01*
D64*
X157140100Y-100016820D02*
X156370100Y-100016820D01*
X157140100Y-100016820D02*
X156458400Y-100016820D01*
D66*
X157140100Y-100536820D02*
X157140100Y-100016820D01*
D64*
X156458400Y-100016820D02*
X155858400Y-99416820D01*
D66*
X157720100Y-101116820D02*
X157140100Y-100536820D01*
X161959100Y-99987820D02*
X160830100Y-101116820D01*
X161959100Y-98915820D02*
X161959100Y-99987820D01*
D64*
X156370100Y-100016820D02*
X155870100Y-100516820D01*
D66*
X160830100Y-101116820D02*
X157720100Y-101116820D01*
X157140100Y-100016820D02*
X157140100Y-99584340D01*
D64*
%TO.N,Net-(J1-CLK)*%
X163690100Y-103066820D02*
X163690100Y-100976820D01*
X164280100Y-103276820D02*
X163900100Y-103276820D01*
X163900100Y-103276820D02*
X163690100Y-103066820D01*
%TO.N,Net-(J1-DAT0)*%
X161710100Y-103046820D02*
X161710100Y-107276820D01*
X162470100Y-102286820D02*
X161710100Y-103046820D01*
X162490100Y-102286820D02*
X162470100Y-102286820D01*
X161500100Y-111006820D02*
X162590100Y-112096820D01*
X162590100Y-112096820D02*
X162590100Y-112376820D01*
X162490100Y-102286820D02*
X162490100Y-100986820D01*
X161710100Y-107276820D02*
X161500100Y-107486820D01*
X161500100Y-107486820D02*
X161500100Y-111006820D01*
%TO.N,Net-(J1-DAT1)*%
X159890100Y-110242484D02*
X160623100Y-110975485D01*
X159890100Y-104016820D02*
X159890100Y-110242484D01*
X160623100Y-111869820D02*
X161155100Y-112401820D01*
X161490100Y-101266820D02*
X161490100Y-101466820D01*
X161610100Y-101586820D02*
X161610100Y-102296820D01*
X161610100Y-102296820D02*
X159890100Y-104016820D01*
X160623100Y-110975485D02*
X160623100Y-111869820D01*
X161490100Y-101466820D02*
X161610100Y-101586820D01*
%TO.N,Net-(J1-DAT2)*%
X168312100Y-102328820D02*
X166990100Y-101006820D01*
X168930100Y-109833834D02*
X168930100Y-103691392D01*
X168312100Y-103073392D02*
X168312100Y-102328820D01*
X168930100Y-103691392D02*
X168312100Y-103073392D01*
X166990100Y-111773834D02*
X168930100Y-109833834D01*
X166990100Y-112296820D02*
X166990100Y-111773834D01*
%TO.N,Net-(J1-CD{slash}DAT3)*%
X166210100Y-111696820D02*
X165590100Y-112316820D01*
X166496100Y-110226820D02*
X166496100Y-104588248D01*
X166210100Y-110512820D02*
X166210100Y-111696820D01*
X166120100Y-104212248D02*
X166120100Y-100886820D01*
X166496100Y-110226820D02*
X166210100Y-110512820D01*
X166496100Y-104588248D02*
X166120100Y-104212248D01*
D67*
%TO.N,Net-(U2-FB)*%
X130090100Y-112609068D02*
X129191852Y-111710820D01*
X126897900Y-112324620D02*
X126897900Y-110516820D01*
X129191852Y-111710820D02*
X128890100Y-111710820D01*
X126897900Y-110516820D02*
X126377200Y-109996120D01*
X126377200Y-109996120D02*
X125190100Y-109996120D01*
X126897900Y-111466120D02*
X126897900Y-110516820D01*
X127290100Y-112716820D02*
X126897900Y-112324620D01*
X128890100Y-111710820D02*
X127142600Y-111710820D01*
X127142600Y-111710820D02*
X126897900Y-111466120D01*
D65*
%TO.N,/microphones/CK_IN*%
X155340276Y-122516644D02*
X154958998Y-122516644D01*
X155430100Y-122426820D02*
X155340276Y-122516644D01*
X132253162Y-91516820D02*
X135390100Y-91516820D01*
X151926100Y-123052820D02*
X151390100Y-122516820D01*
X135390100Y-91516820D02*
X135650100Y-91776820D01*
X154422822Y-123052820D02*
X151926100Y-123052820D01*
X153020100Y-125296820D02*
X152670100Y-124946820D01*
X125700100Y-97766820D02*
X130949290Y-92517630D01*
X130949290Y-92517630D02*
X132253162Y-91516820D01*
X135650100Y-91776820D02*
X135650100Y-91886820D01*
X153020100Y-125666820D02*
X153020100Y-125296820D01*
X154958998Y-122516644D02*
X154422822Y-123052820D01*
X125700100Y-97786820D02*
X125700100Y-97766820D01*
%TO.N,/Core/RCC_OSC_IN*%
X132115100Y-105266820D02*
X130293200Y-105266820D01*
X130293200Y-105266820D02*
X130240100Y-105319920D01*
%TO.N,Net-(U1-OUTPUT)*%
X131390100Y-113216820D02*
X131390100Y-114218370D01*
X131390100Y-114218370D02*
X131939250Y-114767520D01*
%TO.N,/Core/AUDIOCLK_SIG*%
X134650100Y-115086820D02*
X133866300Y-115086820D01*
X138540100Y-114023282D02*
X138530100Y-114033282D01*
X138530100Y-114236820D02*
X137020100Y-115746820D01*
X133866300Y-115086820D02*
X133656700Y-114877220D01*
X138540100Y-112691820D02*
X138540100Y-114023282D01*
X135310100Y-115746820D02*
X134650100Y-115086820D01*
X133656700Y-114089620D02*
X132783900Y-113216820D01*
X133656700Y-114877220D02*
X133656700Y-114089620D01*
X137020100Y-115746820D02*
X135310100Y-115746820D01*
X138530100Y-114033282D02*
X138530100Y-114236820D01*
D64*
%TO.N,/Core/SDMMC1.CK*%
X164670100Y-98496820D02*
X163590100Y-97416820D01*
X163590100Y-97416820D02*
X163590100Y-95916820D01*
X141490100Y-98616820D02*
X141316100Y-98790820D01*
X139540100Y-100497642D02*
X139540100Y-101341820D01*
X141316100Y-100142820D02*
X139894922Y-100142820D01*
X163590100Y-95916820D02*
X163090100Y-95416820D01*
X141490100Y-97516820D02*
X141490100Y-98616820D01*
X145300100Y-93656820D02*
X146650100Y-95006820D01*
X156690100Y-94016820D02*
X156690100Y-93616820D01*
X139894922Y-100142820D02*
X139540100Y-100497642D01*
X168690100Y-101316820D02*
X168150100Y-100776820D01*
X146650100Y-95006820D02*
X151754961Y-95006820D01*
X168150100Y-99946820D02*
X166700100Y-98496820D01*
X168690100Y-102916820D02*
X168690100Y-101316820D01*
X163090100Y-95416820D02*
X162690100Y-95416820D01*
X141316100Y-98790820D02*
X141316100Y-100142820D01*
X156143528Y-94568820D02*
X156468673Y-94243675D01*
X156468673Y-94238248D02*
X156690100Y-94016820D01*
X152192960Y-94568820D02*
X156143528Y-94568820D01*
X170220100Y-103886820D02*
X169660100Y-103886820D01*
X169660100Y-103886820D02*
X168690100Y-102916820D01*
X166700100Y-98496820D02*
X164670100Y-98496820D01*
X156468673Y-94243675D02*
X156468673Y-94238248D01*
X151754961Y-95006820D02*
X152192960Y-94568820D01*
X168150100Y-100776820D02*
X168150100Y-99946820D01*
%TO.N,/Core/SDMMC1.D0*%
X146651366Y-106594889D02*
X146646100Y-106600157D01*
X166916597Y-97913317D02*
X166596597Y-97913317D01*
X170250100Y-102616820D02*
X169633400Y-102000120D01*
X150290100Y-99016820D02*
X149690100Y-99016820D01*
X148630100Y-100539391D02*
X147360100Y-101809391D01*
X146646100Y-106860820D02*
X145740100Y-107766820D01*
X165290100Y-97216820D02*
X165090100Y-97416820D01*
X147360100Y-101809391D02*
X147360100Y-103456820D01*
X147360100Y-103456820D02*
X146646100Y-104170820D01*
X146651366Y-105487283D02*
X146651366Y-106594889D01*
X165900100Y-97216820D02*
X165290100Y-97216820D01*
X166596597Y-97913317D02*
X165900100Y-97216820D01*
X146646100Y-104170820D02*
X146646100Y-105482015D01*
X169633400Y-102000120D02*
X169633400Y-100630120D01*
X146646100Y-105482015D02*
X146651366Y-105487283D01*
X146646100Y-106600157D02*
X146646100Y-106860820D01*
X149690100Y-99016820D02*
X148630100Y-100076820D01*
X169633400Y-100630120D02*
X166916597Y-97913317D01*
X145740100Y-107766820D02*
X143465100Y-107766820D01*
X148630100Y-100076820D02*
X148630100Y-100539391D01*
X151090100Y-98216820D02*
X150290100Y-99016820D01*
%TO.N,/Core/SDMMC1.D1*%
X146273366Y-106438317D02*
X146273366Y-105643854D01*
X148252100Y-100284820D02*
X148252100Y-99920248D01*
X146998101Y-101636818D02*
X146998101Y-101538819D01*
X148252100Y-99920248D02*
X149533527Y-98638820D01*
X149533527Y-98638820D02*
X149718100Y-98638820D01*
X146998101Y-101538819D02*
X148252100Y-100284820D01*
X146982100Y-103300248D02*
X146982100Y-101652818D01*
X150041114Y-98322820D02*
X151634100Y-96729834D01*
X159090100Y-92616820D02*
X158590100Y-93116820D01*
X157795527Y-93451393D02*
X158130100Y-93116820D01*
X160060100Y-93116820D02*
X159690100Y-93116820D01*
X150034100Y-98322820D02*
X150041114Y-98322820D01*
X152349533Y-94946820D02*
X156300100Y-94946820D01*
X149718100Y-98638820D02*
X150034100Y-98322820D01*
X146982100Y-101652818D02*
X146998101Y-101636818D01*
X156846673Y-94400247D02*
X156846673Y-94394820D01*
X156300100Y-94946820D02*
X156846673Y-94400247D01*
X146268100Y-105638587D02*
X146268100Y-104014248D01*
X160410100Y-93466820D02*
X160060100Y-93116820D01*
X159690100Y-93116820D02*
X159090100Y-92516820D01*
X158130100Y-93116820D02*
X158590100Y-93116820D01*
X146268100Y-104014248D02*
X146982100Y-103300248D01*
X146273366Y-105643854D02*
X146268100Y-105638587D01*
X143465100Y-107266820D02*
X145705528Y-107266820D01*
X157790100Y-93451393D02*
X157795527Y-93451393D01*
X158590100Y-93116820D02*
X159690100Y-93116820D01*
X151634100Y-96729834D02*
X151634100Y-95662253D01*
X156846673Y-94394820D02*
X157790100Y-93451393D01*
X145705528Y-107266820D02*
X146268098Y-106704250D01*
X146268098Y-106704250D02*
X146268098Y-106443585D01*
X146268098Y-106443585D02*
X146273366Y-106438317D01*
X159090100Y-92516820D02*
X159090100Y-92616820D01*
X151634100Y-95662253D02*
X152349533Y-94946820D01*
%TO.N,/Core/SDMMC1.D2*%
X158670100Y-119006820D02*
X159190100Y-118486820D01*
X159840100Y-117816820D02*
X159590100Y-118066820D01*
X159380100Y-118066820D02*
X159190100Y-117876820D01*
X151772100Y-116708820D02*
X147780100Y-112716820D01*
X159190100Y-118486820D02*
X159190100Y-117876820D01*
X159190100Y-117876820D02*
X158014100Y-116700820D01*
X159590100Y-118066820D02*
X159380100Y-118066820D01*
X158014100Y-116700820D02*
X157954672Y-116700820D01*
X147780100Y-112716820D02*
X147780100Y-112236820D01*
X157946672Y-116708820D02*
X151772100Y-116708820D01*
X159190100Y-117876820D02*
X159160100Y-117906820D01*
X160070100Y-117816820D02*
X159840100Y-117816820D01*
X140540100Y-103284820D02*
X140540100Y-101341820D01*
X157954672Y-116700820D02*
X157946672Y-116708820D01*
X140449100Y-103375820D02*
X140540100Y-103284820D01*
%TO.N,/Core/SDMMC1.D3*%
X147350100Y-113636820D02*
X148165528Y-113636820D01*
D65*
X140040100Y-102706820D02*
X139490100Y-103256820D01*
D64*
X156680100Y-117086820D02*
X157630100Y-118036820D01*
X157640100Y-120016820D02*
X158370100Y-120746820D01*
X158370100Y-120746820D02*
X159710100Y-120746820D01*
X170530100Y-112076820D02*
X170530100Y-111626820D01*
X160690100Y-118346820D02*
X163440100Y-118346820D01*
X148165528Y-113636820D02*
X151615528Y-117086820D01*
X166065552Y-115721368D02*
X166885552Y-115721368D01*
X157640100Y-119144961D02*
X157640100Y-120016820D01*
X163440100Y-118346820D02*
X166065552Y-115721368D01*
X157630100Y-119134961D02*
X157640100Y-119144961D01*
X159710100Y-120746820D02*
X159710100Y-119326820D01*
X159710100Y-119326820D02*
X160690100Y-118346820D01*
D65*
X140040100Y-101341820D02*
X140040100Y-102706820D01*
D64*
X166885552Y-115721368D02*
X170530100Y-112076820D01*
X157630100Y-118036820D02*
X157630100Y-119134961D01*
X151615528Y-117086820D02*
X156680100Y-117086820D01*
X147170100Y-113456820D02*
X147350100Y-113636820D01*
%TO.N,/Core/SDMMC1.CMD*%
X139040100Y-101341820D02*
X139016100Y-101365820D01*
X167135337Y-116006155D02*
X165753485Y-117066820D01*
X170770100Y-113136820D02*
X170428457Y-113478463D01*
X138783278Y-103719998D02*
X138783278Y-102442820D01*
X139200100Y-104136820D02*
X138783278Y-103719998D01*
X170770100Y-112696820D02*
X170770100Y-113136820D01*
X139016100Y-101365820D02*
X139016100Y-102209998D01*
X169663029Y-113478463D02*
X167135337Y-116006155D01*
X165695899Y-117111021D02*
X162548555Y-119526820D01*
X170428457Y-113478463D02*
X169663029Y-113478463D01*
X165740100Y-117066820D02*
X165695899Y-117111021D01*
X165753485Y-117066820D02*
X165740100Y-117066820D01*
X139016100Y-102209998D02*
X138890100Y-102335998D01*
X162548555Y-119526820D02*
X161530100Y-119526820D01*
X139040100Y-102185998D02*
X139040100Y-101341820D01*
X138783278Y-102442820D02*
X139040100Y-102185998D01*
%TO.N,/Core/JTAG.TMS*%
X134008100Y-105133834D02*
X134008607Y-105133834D01*
X134766100Y-105891327D02*
X134771593Y-105896820D01*
X140310100Y-105896820D02*
X141916100Y-104290820D01*
X134771593Y-105896820D02*
X140310100Y-105896820D01*
X134008607Y-105133834D02*
X134405593Y-105530820D01*
X133490100Y-102146820D02*
X134008100Y-102664821D01*
X134766100Y-105885806D02*
X134766100Y-105891327D01*
X132610100Y-99836820D02*
X133490100Y-100716820D01*
X143441100Y-104290820D02*
X143465100Y-104266820D01*
X134405593Y-105530820D02*
X134411114Y-105530820D01*
X132380100Y-99836820D02*
X132610100Y-99836820D01*
X141916100Y-104290820D02*
X143441100Y-104290820D01*
X133490100Y-100716820D02*
X133490100Y-102146820D01*
X134411114Y-105530820D02*
X134766100Y-105885806D01*
X134008100Y-102664821D02*
X134008100Y-105133834D01*
D65*
%TO.N,/Core/MDF1.SDI1*%
X143465100Y-110766820D02*
X142440100Y-110766820D01*
X142440100Y-110766820D02*
X142190100Y-110516820D01*
%TO.N,/Core/UART4.TX*%
X133390032Y-109509975D02*
X133133187Y-109766820D01*
D64*
X147690100Y-98816820D02*
X150490100Y-96016820D01*
D65*
X133133187Y-109766820D02*
X132115100Y-109766820D01*
X134006945Y-109509975D02*
X133390032Y-109509975D01*
X141090100Y-106216820D02*
X140890100Y-106416820D01*
X137100100Y-106416820D02*
X134006945Y-109509975D01*
X140890100Y-106416820D02*
X137100100Y-106416820D01*
D64*
X147290100Y-98816820D02*
X147690100Y-98816820D01*
D65*
%TO.N,/Core/NINA.STM_NRST*%
X145190100Y-105966820D02*
X145190100Y-106165352D01*
X145088632Y-106266820D02*
X143465100Y-106266820D01*
X155490100Y-103616820D02*
X155490100Y-103102830D01*
X155490100Y-103102830D02*
X155766040Y-102826890D01*
X145190100Y-106165352D02*
X145088632Y-106266820D01*
%TO.N,/Core/SAI1.CK1*%
X133480100Y-111196820D02*
X134040100Y-111756820D01*
X134040100Y-111756820D02*
X134040100Y-112691820D01*
D64*
%TO.N,/Core/MDF1.CCK0*%
X135610100Y-102396820D02*
X135540100Y-102326820D01*
X135540100Y-101341820D02*
X135516100Y-101317820D01*
X135540100Y-102326820D02*
X135540100Y-101341820D01*
X135610100Y-102696820D02*
X135610100Y-102396820D01*
D65*
%TO.N,/Core/SPI1.MISO*%
X136320100Y-113926820D02*
X136320100Y-113786820D01*
X137520100Y-119646820D02*
X146860100Y-119646820D01*
X137490100Y-119616820D02*
X137520100Y-119646820D01*
X136320100Y-113786820D02*
X136540100Y-113566820D01*
X136540100Y-113566820D02*
X136540100Y-112691820D01*
X146860100Y-119646820D02*
X148490100Y-118016820D01*
%TO.N,/Core/MDF1.SDI0*%
X138518413Y-111318507D02*
X139040100Y-111840194D01*
X139040100Y-111840194D02*
X139040100Y-112691820D01*
D64*
%TO.N,/Core/FAULT_LED*%
X142190100Y-99516820D02*
X142090100Y-99416820D01*
X142540100Y-105266820D02*
X142290100Y-105516820D01*
X141890100Y-99616820D02*
X142090100Y-99416820D01*
X143465100Y-105266820D02*
X142540100Y-105266820D01*
X142190100Y-100316820D02*
X142190100Y-99516820D01*
D66*
%TO.N,/Core/MDF1.SDI2*%
X142090100Y-109616820D02*
X142240100Y-109766820D01*
X142240100Y-109766820D02*
X143465100Y-109766820D01*
D65*
%TO.N,/Core/I2C3.SCL*%
X138529100Y-109184446D02*
X138857726Y-108855820D01*
X138857726Y-108855820D02*
X138863463Y-108855820D01*
X140102463Y-107616820D02*
X140690100Y-107616820D01*
X145690100Y-96816820D02*
X146490100Y-96016820D01*
X137440100Y-111496820D02*
X137255100Y-111681820D01*
X138490100Y-109229183D02*
X138529100Y-109190183D01*
X138150100Y-110456820D02*
X138490100Y-110116820D01*
X138490100Y-110116820D02*
X138490100Y-109229183D01*
X137255100Y-111691820D02*
X137040100Y-111906820D01*
X137255100Y-111681820D02*
X137255100Y-111691820D01*
X137051100Y-114275820D02*
X136750100Y-114576820D01*
X137040100Y-112691820D02*
X137051100Y-112702820D01*
X137051100Y-112702820D02*
X137051100Y-114275820D01*
X138529100Y-109190183D02*
X138529100Y-109184446D01*
X137040100Y-111906820D02*
X137040100Y-112691820D01*
X145690100Y-98016820D02*
X145690100Y-96816820D01*
X137060100Y-112711820D02*
X137040100Y-112691820D01*
X138863463Y-108855820D02*
X140102463Y-107616820D01*
%TO.N,/Core/SPI1.SCK*%
X136109100Y-111842282D02*
X136109100Y-112622820D01*
X136380100Y-111356820D02*
X136380100Y-111571282D01*
X148090100Y-117016820D02*
X149490100Y-117016820D01*
X136109100Y-112622820D02*
X136040100Y-112691820D01*
X136380100Y-111571282D02*
X136109100Y-111842282D01*
X149490100Y-117016820D02*
X150490100Y-118016820D01*
X136480100Y-111256820D02*
X136380100Y-111356820D01*
%TO.N,/Core/NINA.IO0*%
X148655030Y-102826890D02*
X148760720Y-102826890D01*
X144940100Y-105216820D02*
X144340100Y-105816820D01*
X148090100Y-103996820D02*
X148090100Y-103391820D01*
X147990100Y-104096820D02*
X148090100Y-103996820D01*
X148090100Y-103391820D02*
X148655030Y-102826890D01*
X144340100Y-105816820D02*
X143515100Y-105816820D01*
X144940100Y-105206820D02*
X144940100Y-105216820D01*
X143515100Y-105816820D02*
X143465100Y-105766820D01*
D64*
%TO.N,/Core/CF.GPIO4*%
X145974100Y-100290820D02*
X145564100Y-100290820D01*
X145564100Y-100290820D02*
X142146100Y-96872820D01*
X145890099Y-105795159D02*
X145890100Y-103857676D01*
X145694956Y-106742820D02*
X145890098Y-106547678D01*
X145890100Y-103857676D02*
X146490100Y-103257675D01*
X146490100Y-100806820D02*
X145974100Y-100290820D01*
X145890098Y-106287013D02*
X145895366Y-106281745D01*
X144164100Y-106742820D02*
X145694956Y-106742820D01*
X146490100Y-103257675D02*
X146490100Y-100806820D01*
X144140100Y-106766820D02*
X144164100Y-106742820D01*
X143465100Y-106766820D02*
X144140100Y-106766820D01*
X145890098Y-106547678D02*
X145890098Y-106287013D01*
X145895366Y-106281745D02*
X145895366Y-105800426D01*
X142146100Y-96872820D02*
X139346100Y-96872820D01*
X139346100Y-96872820D02*
X138490100Y-96016820D01*
X145895366Y-105800426D02*
X145890099Y-105795159D01*
%TO.N,/Core/JTAG.TDO*%
X136714100Y-99940820D02*
X136714100Y-100192820D01*
X130330100Y-99886820D02*
X130380100Y-99836820D01*
X130130100Y-99886820D02*
X130330100Y-99886820D01*
X136490100Y-99916820D02*
X136690100Y-99916820D01*
X136714100Y-100192820D02*
X138235278Y-100192820D01*
X138235278Y-100192820D02*
X138540100Y-100497642D01*
X138540100Y-100497642D02*
X138540100Y-101341820D01*
X136690100Y-99916820D02*
X136714100Y-99940820D01*
D65*
%TO.N,/Core/SAI1.D1*%
X133700100Y-108366820D02*
X133600100Y-108266820D01*
X133600100Y-108266820D02*
X132115100Y-108266820D01*
X134010100Y-108366820D02*
X133700100Y-108366820D01*
%TO.N,/Core/SPI2.CS*%
X145090100Y-109016820D02*
X146970100Y-107136820D01*
X143465100Y-108766820D02*
X143534100Y-108835820D01*
X147854410Y-107136820D02*
X148100340Y-106890890D01*
X144495638Y-109016820D02*
X145090100Y-109016820D01*
X148100340Y-106890890D02*
X148835650Y-106890890D01*
X144314638Y-108835820D02*
X144495638Y-109016820D01*
X143534100Y-108835820D02*
X144314638Y-108835820D01*
X146970100Y-107136820D02*
X147854410Y-107136820D01*
%TO.N,/Core/I2C3.SDA*%
X130975100Y-109961820D02*
X130520100Y-110416820D01*
D64*
X134670100Y-106846820D02*
X134460100Y-106846820D01*
D65*
X130520100Y-110416820D02*
X130490100Y-110416820D01*
D64*
X134040100Y-107266820D02*
X132115100Y-107266820D01*
X134460100Y-106846820D02*
X134040100Y-107266820D01*
D65*
%TO.N,/Core/SPI2.MISO*%
X152763760Y-102826890D02*
X152763760Y-102090480D01*
X135880100Y-106706820D02*
X134820100Y-107766820D01*
X139983170Y-107328819D02*
X140178101Y-107328819D01*
X137720100Y-107816820D02*
X139495169Y-107816820D01*
X140690100Y-106816820D02*
X141690100Y-106816820D01*
X134820100Y-107766820D02*
X132115100Y-107766820D01*
D64*
X132139100Y-107742820D02*
X132590100Y-107742820D01*
D65*
X137560100Y-107976820D02*
X137720100Y-107816820D01*
X139495169Y-107816820D02*
X139983170Y-107328819D01*
X135880100Y-106616820D02*
X135880100Y-106706820D01*
X152290100Y-101616820D02*
X151014840Y-101616820D01*
X140178101Y-107328819D02*
X140690100Y-106816820D01*
X152763760Y-102090480D02*
X152290100Y-101616820D01*
D64*
%TO.N,/Core/SPI1.MOSI*%
X142009278Y-111816820D02*
X141106100Y-110913641D01*
X141684100Y-105767834D02*
X141684100Y-105265806D01*
X142183086Y-104766820D02*
X143465100Y-104766820D01*
X145806201Y-117332921D02*
X145806201Y-114061022D01*
X143465100Y-104766820D02*
X143441100Y-104790820D01*
X141106100Y-108957834D02*
X142253114Y-107810820D01*
X145806201Y-114061022D02*
X143561999Y-111816820D01*
X142296100Y-107767834D02*
X142296100Y-107810820D01*
X142296100Y-107767834D02*
X142296100Y-106379834D01*
X141684100Y-105265806D02*
X142183086Y-104766820D01*
X141106100Y-110913641D02*
X141106100Y-108957834D01*
X142253114Y-107810820D02*
X142296100Y-107810820D01*
X146490100Y-118016820D02*
X145806201Y-117332921D01*
X142296100Y-106379834D02*
X141684100Y-105767834D01*
X143561999Y-111816820D02*
X142009278Y-111816820D01*
D65*
%TO.N,/Core/SPI2.SCK*%
X144595638Y-110616820D02*
X144245638Y-110266820D01*
X147630100Y-108361890D02*
X147630100Y-109464820D01*
X146478100Y-110616820D02*
X144595638Y-110616820D01*
D64*
X144116100Y-110242820D02*
X143489100Y-110242820D01*
D65*
X147630100Y-109464820D02*
X146478100Y-110616820D01*
X144245638Y-110266820D02*
X143465100Y-110266820D01*
X148835650Y-107891650D02*
X148100340Y-107891650D01*
X148100340Y-107891650D02*
X147630100Y-108361890D01*
D64*
X143489100Y-110242820D02*
X143465100Y-110266820D01*
%TO.N,/Core/JTAG.TDI*%
X136472100Y-105038820D02*
X139925114Y-105038820D01*
X141060100Y-101361820D02*
X141040100Y-101341820D01*
X139925114Y-105038820D02*
X141060100Y-103903834D01*
X129320100Y-99896820D02*
X129380100Y-99836820D01*
X128970100Y-99896820D02*
X129320100Y-99896820D01*
X141060100Y-103903834D02*
X141060100Y-101361820D01*
X135400100Y-103966820D02*
X136472100Y-105038820D01*
D65*
%TO.N,/Core/SAI1.D2*%
X135040100Y-101341820D02*
X135040100Y-100466820D01*
X135550100Y-98856820D02*
X135550100Y-98956820D01*
X135091800Y-101290120D02*
X135040100Y-101341820D01*
X135091800Y-99415120D02*
X135091800Y-101290120D01*
X135550100Y-98956820D02*
X135091800Y-99415120D01*
D64*
%TO.N,/Core/UART4.RX*%
X133426561Y-110266820D02*
X133622406Y-110070975D01*
X137690100Y-108616820D02*
X136690100Y-109616820D01*
X138290100Y-108616820D02*
X137690100Y-108616820D01*
X139610100Y-109596820D02*
X141590100Y-107616820D01*
X149690100Y-97716820D02*
X149790100Y-97716820D01*
X132115100Y-110266820D02*
X133426561Y-110266820D01*
X146990100Y-100416820D02*
X149690100Y-97716820D01*
X139050100Y-109596820D02*
X139610100Y-109596820D01*
D65*
%TO.N,/Core/NINA.IO1*%
X143534100Y-108197820D02*
X144314638Y-108197820D01*
X148890100Y-112016820D02*
X151490100Y-112016820D01*
X143465100Y-108266820D02*
X143515100Y-108216820D01*
X144740100Y-108266820D02*
X144890100Y-108416820D01*
X143465100Y-108266820D02*
X143534100Y-108197820D01*
X156690100Y-103616820D02*
X156766800Y-103540120D01*
X144009100Y-108335820D02*
X143940100Y-108266820D01*
X143465100Y-108266820D02*
X144740100Y-108266820D01*
X144314638Y-108335820D02*
X144009100Y-108335820D01*
X156766800Y-103540120D02*
X156766800Y-102826890D01*
X143940100Y-108266820D02*
X143465100Y-108266820D01*
D64*
%TO.N,/Core/SPI2.MOSI*%
X148760720Y-110954890D02*
X148098790Y-111616820D01*
X142597114Y-109266820D02*
X143465100Y-109266820D01*
X143726571Y-111446820D02*
X143718571Y-111438820D01*
X142165851Y-111438820D02*
X141484100Y-110757069D01*
X144856200Y-111050720D02*
X144460100Y-111446820D01*
X141484100Y-110757069D02*
X141484100Y-109365806D01*
X146433086Y-111016820D02*
X144856200Y-111016820D01*
X143441100Y-109242820D02*
X143465100Y-109266820D01*
X141484100Y-109365806D02*
X141839086Y-109010820D01*
X148098790Y-111616820D02*
X147033086Y-111616820D01*
X142341114Y-109010820D02*
X142597114Y-109266820D01*
X141839086Y-109010820D02*
X142341114Y-109010820D01*
X144856200Y-111016820D02*
X144856200Y-111050720D01*
X143718571Y-111438820D02*
X142165851Y-111438820D01*
X144460100Y-111446820D02*
X143726571Y-111446820D01*
X147033086Y-111616820D02*
X146433086Y-111016820D01*
D65*
%TO.N,/Core/CF.GPIO1*%
X135840100Y-108646820D02*
X135840100Y-108266820D01*
X135757331Y-111694051D02*
X135730100Y-111666820D01*
X135540100Y-111911282D02*
X135757331Y-111694051D01*
X137030100Y-107076820D02*
X137820100Y-107076820D01*
X135540100Y-112691820D02*
X135540100Y-111911282D01*
X135730100Y-111666820D02*
X135730100Y-110786820D01*
X135840100Y-108266820D02*
X137030100Y-107076820D01*
X137820100Y-107076820D02*
X137760100Y-107016820D01*
%TO.N,/Core/SAI1.D3*%
X137960100Y-113746820D02*
X138040100Y-113666820D01*
X137960100Y-114006820D02*
X137960100Y-113746820D01*
X138040100Y-113666820D02*
X138040100Y-112691820D01*
D64*
%TO.N,/Core/JTAG.TCK*%
X141750100Y-103856820D02*
X140190100Y-105416820D01*
X132390100Y-100716820D02*
X132325100Y-100716820D01*
X131445100Y-99836820D02*
X131380100Y-99836820D01*
X141750100Y-101551820D02*
X141750100Y-103856820D01*
X132325100Y-100716820D02*
X131445100Y-99836820D01*
X141540100Y-101341820D02*
X141750100Y-101551820D01*
X135460100Y-105416820D02*
X135020100Y-104976820D01*
X140190100Y-105416820D02*
X135460100Y-105416820D01*
D65*
%TO.N,/nina/NINA_JTAG_TCK*%
X161558157Y-94854820D02*
X160752100Y-94854820D01*
X162022100Y-98348820D02*
X162022100Y-95318763D01*
X162290100Y-98616820D02*
X162022100Y-98348820D01*
X150265760Y-105241160D02*
X150211060Y-105241160D01*
X151890100Y-105416820D02*
X150441420Y-105416820D01*
X150441420Y-105416820D02*
X150265760Y-105241160D01*
X160752100Y-94854820D02*
X159960100Y-95646820D01*
X162930100Y-98616820D02*
X162290100Y-98616820D01*
X162022100Y-95318763D02*
X161558157Y-94854820D01*
D64*
%TO.N,/nina/NINA_NRST*%
X154765280Y-101061640D02*
X155310100Y-100516820D01*
X154765280Y-102826890D02*
X154765280Y-101061640D01*
%TO.N,/nina/NINA_LED*%
X149390100Y-100516820D02*
X149690100Y-100816820D01*
X149690100Y-102755510D02*
X149761480Y-102826890D01*
X149690100Y-100816820D02*
X149690100Y-102755510D01*
D65*
%TO.N,/connectors/NINA_UART.TX*%
X156580100Y-109506820D02*
X156490100Y-109416820D01*
X156850100Y-118176820D02*
X156890100Y-118216820D01*
X156580100Y-109506820D02*
X156690100Y-109616820D01*
X156890100Y-118216820D02*
X156890100Y-118796820D01*
X150609100Y-121647820D02*
X150078100Y-121116820D01*
X151763000Y-103177580D02*
X151763000Y-102826890D01*
X152830859Y-104245439D02*
X151763000Y-103177580D01*
X155742153Y-104245439D02*
X152830859Y-104245439D01*
X151763000Y-103089720D02*
X151763000Y-102826890D01*
X156490100Y-109416820D02*
X156490100Y-104993386D01*
X158793502Y-109616820D02*
X160290100Y-111113418D01*
X156890100Y-118796820D02*
X154039100Y-121647820D01*
X160290100Y-116646820D02*
X159920100Y-117016820D01*
X154039100Y-121647820D02*
X150609100Y-121647820D01*
X156490100Y-104993386D02*
X155742153Y-104245439D01*
X156690100Y-109616820D02*
X158793502Y-109616820D01*
X160290100Y-111113418D02*
X160290100Y-116646820D01*
X159920100Y-117016820D02*
X159890100Y-117016820D01*
D66*
%TO.N,/nina/NINA_JTAG_TDI*%
X151214620Y-104141340D02*
X150211060Y-104141340D01*
X151882806Y-104616820D02*
X151690100Y-104616820D01*
X151690100Y-104616820D02*
X151214620Y-104141340D01*
D65*
X160090100Y-98816820D02*
X160090100Y-98316820D01*
X160090100Y-98316820D02*
X158690100Y-96916820D01*
%TO.N,/connectors/NINA_UART.RX*%
X151058380Y-103858340D02*
X150762240Y-103562200D01*
X150762240Y-103562200D02*
X150762240Y-102826890D01*
X156352081Y-110036820D02*
X156358081Y-110042820D01*
X155622860Y-104533440D02*
X152696720Y-104533440D01*
X155890100Y-104800680D02*
X155622860Y-104533440D01*
X158490100Y-111720180D02*
X157865100Y-112345180D01*
X152696720Y-104533440D02*
X152021620Y-103858340D01*
X152021620Y-103858340D02*
X151058380Y-103858340D01*
X155460100Y-109836820D02*
X155530100Y-109836820D01*
X158490100Y-110246820D02*
X158490100Y-111720180D01*
X155950100Y-119216820D02*
X154150100Y-121016820D01*
X155950100Y-117856820D02*
X155950100Y-119216820D01*
X154150100Y-121016820D02*
X153402100Y-121016820D01*
X155730100Y-110036820D02*
X156352081Y-110036820D01*
X155890100Y-109406820D02*
X155890100Y-104800680D01*
X156802119Y-110042820D02*
X156808119Y-110036820D01*
X155460100Y-109836820D02*
X155890100Y-109406820D01*
X157865100Y-112345180D02*
X157865100Y-114216820D01*
X158280100Y-110036820D02*
X158490100Y-110246820D01*
X155530100Y-109836820D02*
X155730100Y-110036820D01*
X156808119Y-110036820D02*
X158280100Y-110036820D01*
X156358081Y-110042820D02*
X156802119Y-110042820D01*
D66*
%TO.N,/nina/NINA_JTAG_TDO*%
X152021100Y-97085820D02*
X151690100Y-97416820D01*
X155291100Y-96805820D02*
X155291100Y-96817820D01*
X157047100Y-94859820D02*
X156640100Y-95266820D01*
X155291100Y-96817820D02*
X155269100Y-96817820D01*
X155269100Y-96817820D02*
X155000100Y-97086820D01*
X155000100Y-97086820D02*
X154822100Y-97086820D01*
X156640100Y-95456820D02*
X155291100Y-96805820D01*
X150211060Y-108540620D02*
X151213900Y-108540620D01*
X154821100Y-97085820D02*
X152021100Y-97085820D01*
X158690100Y-95646820D02*
X157903100Y-94859820D01*
X151690100Y-98816820D02*
X151290100Y-99216820D01*
X154822100Y-97086820D02*
X154821100Y-97085820D01*
X156640100Y-95266820D02*
X156640100Y-95456820D01*
X151690100Y-97416820D02*
X151690100Y-98816820D01*
X151213900Y-108540620D02*
X151290100Y-108616820D01*
X157903100Y-94859820D02*
X157047100Y-94859820D01*
%TO.N,/nina/BTN_BOOT*%
X148528960Y-106196820D02*
X147510100Y-106196820D01*
X147510100Y-106196820D02*
X147290100Y-106416820D01*
X159090100Y-111216820D02*
X159090100Y-112916820D01*
X148835650Y-105890130D02*
X148528960Y-106196820D01*
%TO.N,/nina/NINA_JTAG_TMS*%
X150266480Y-109640440D02*
X150211060Y-109640440D01*
X152890100Y-98216820D02*
X152890100Y-101216820D01*
X151690100Y-109416820D02*
X150490100Y-109416820D01*
X153490100Y-97616820D02*
X152890100Y-98216820D01*
X150490100Y-109416820D02*
X150266480Y-109640440D01*
D65*
%TO.N,/connectors/CF_NRF51_OW*%
X140840299Y-118016820D02*
X140490100Y-118016820D01*
X144511599Y-114345520D02*
X140840299Y-118016820D01*
D64*
%TO.N,Net-(P2-TX2)*%
X152378100Y-120128820D02*
X152378100Y-121016820D01*
X154490100Y-118016820D02*
X152378100Y-120128820D01*
%TO.N,Net-(P2-RX2)*%
X151102100Y-119404820D02*
X152490100Y-118016820D01*
X151102100Y-121116820D02*
X151102100Y-119404820D01*
D65*
%TO.N,Net-(D8-Pad1)*%
X134190100Y-120566820D02*
X132815100Y-119191820D01*
X132815100Y-119191820D02*
X132815100Y-118816820D01*
%TO.N,Net-(D9-Pad1)*%
X140590100Y-99416820D02*
X138815100Y-99416820D01*
D64*
%TO.N,Net-(D10-Pad2)*%
X152165100Y-100516820D02*
X150790100Y-100516820D01*
D65*
%TO.N,Net-(P3-Pad4)*%
X131380100Y-98666820D02*
X132760100Y-97286820D01*
X131380100Y-99276820D02*
X131380100Y-98666820D01*
%TO.N,Net-(P3-Pad2)*%
X132380100Y-98776820D02*
X133064100Y-98092820D01*
X133566100Y-97590820D02*
X133870100Y-97286820D01*
X133870100Y-97286820D02*
X134030100Y-97286820D01*
X133566100Y-97620677D02*
X133566100Y-97590820D01*
X132380100Y-99276820D02*
X132380100Y-98776820D01*
X133064100Y-98092820D02*
X133093957Y-98092820D01*
X133093957Y-98092820D02*
X133566100Y-97620677D01*
%TO.N,Net-(P3-Pad10)*%
X128790100Y-97446820D02*
X128950100Y-97286820D01*
X128380100Y-99276820D02*
X128790100Y-98866820D01*
X128790100Y-98866820D02*
X128790100Y-97446820D01*
%TO.N,Net-(P3-Pad6)*%
X130380100Y-99276820D02*
X130380100Y-98396820D01*
X130380100Y-98396820D02*
X131490100Y-97286820D01*
%TO.N,Net-(P3-Pad9)*%
X127060100Y-97516820D02*
X128560100Y-96016820D01*
X128560100Y-96016820D02*
X128950100Y-96016820D01*
X127414400Y-99286720D02*
X127060100Y-98932420D01*
X127060100Y-98932420D02*
X127060100Y-97516820D01*
%TO.N,Net-(P3-Pad8)*%
X129380100Y-98126820D02*
X130220100Y-97286820D01*
X129380100Y-99276820D02*
X129380100Y-98126820D01*
%TO.N,/microphones/D3_REP*%
X163015100Y-109941820D02*
X163015100Y-108186820D01*
X127965100Y-106141820D02*
X128040100Y-106066820D01*
X150590100Y-124616820D02*
X150590100Y-125916820D01*
X134760100Y-94386820D02*
X134190100Y-93816820D01*
X151090100Y-124116820D02*
X150590100Y-124616820D01*
X135852081Y-94386820D02*
X134760100Y-94386820D01*
X139060100Y-93846820D02*
X136392081Y-93846820D01*
X163010100Y-110366820D02*
X163010100Y-109946820D01*
X139590100Y-93316820D02*
X139060100Y-93846820D01*
X136392081Y-93846820D02*
X135852081Y-94386820D01*
X127965100Y-108571820D02*
X127965100Y-106141820D01*
X163010100Y-109946820D02*
X163015100Y-109941820D01*
X128680100Y-109286820D02*
X127965100Y-108571820D01*
D64*
%TO.N,PGND*%
X127290100Y-113716820D02*
X122190100Y-113716820D01*
X122190100Y-113716820D02*
X121530100Y-113056820D01*
D65*
X127290100Y-113716820D02*
X128115100Y-113716820D01*
D64*
%TO.N,Net-(J1-CMD)*%
X164920100Y-111246820D02*
X164920100Y-110236820D01*
X164920100Y-110236820D02*
X165235100Y-109921820D01*
X164890100Y-103516821D02*
X164890100Y-100946820D01*
X165742100Y-104368820D02*
X164890100Y-103516821D01*
X166118100Y-104744821D02*
X165742100Y-104368820D01*
X164090100Y-112306820D02*
X164090100Y-112076820D01*
X164090100Y-112076820D02*
X164920100Y-111246820D01*
X165235100Y-109921820D02*
X166118100Y-109038820D01*
X166118100Y-109038820D02*
X166118100Y-104744821D01*
D65*
%TO.N,/microphones/CK_EXT*%
X137390100Y-94296820D02*
X142108100Y-94296820D01*
X136705100Y-94981820D02*
X137390100Y-94296820D01*
X136015100Y-94981820D02*
X136705100Y-94981820D01*
X142108100Y-94296820D02*
X144865100Y-91539820D01*
%TO.N,Net-(J12-Pad2)*%
X135680100Y-97906820D02*
X135690100Y-97916820D01*
X135550100Y-97906820D02*
X135680100Y-97906820D01*
X137390100Y-96263747D02*
X137390100Y-95591893D01*
X138065173Y-94916820D02*
X142738100Y-94916820D01*
X135690100Y-97916820D02*
X135737027Y-97916820D01*
X135737027Y-97916820D02*
X137390100Y-96263747D01*
X142738100Y-94916820D02*
X146115100Y-91539820D01*
X137390100Y-95591893D02*
X138065173Y-94916820D01*
D63*
%TO.N,VCORE*%
X143665100Y-101901820D02*
X143350100Y-102216820D01*
D64*
X133820100Y-99326820D02*
X133820100Y-98776820D01*
D63*
X143400100Y-102266820D02*
X143350100Y-102216820D01*
D64*
X134890100Y-98256820D02*
X134370100Y-98776820D01*
D63*
X135038400Y-116548520D02*
X134290100Y-116548520D01*
X135040100Y-111576820D02*
X135070100Y-111546820D01*
X141896800Y-113048520D02*
X141540100Y-112691820D01*
D64*
X134890100Y-98256820D02*
X134890100Y-97716274D01*
D63*
X135040100Y-114230220D02*
X135040100Y-112691820D01*
X130540100Y-109266820D02*
X130490100Y-109316820D01*
X135126700Y-114316820D02*
X135040100Y-114230220D01*
X134030100Y-96016820D02*
X133320100Y-95306820D01*
X132840950Y-116266120D02*
X134007700Y-116266120D01*
X136190100Y-114576820D02*
X136190100Y-115116820D01*
D64*
X133621800Y-99525120D02*
X133820100Y-99326820D01*
X133621800Y-99816820D02*
X133621800Y-99525120D01*
D63*
X129935613Y-104536820D02*
X131205613Y-103266820D01*
D64*
X143590100Y-113316820D02*
X143321800Y-113048520D01*
D63*
X132153500Y-116480370D02*
X131939250Y-116266120D01*
X131580100Y-102731820D02*
X132115100Y-103266820D01*
D64*
X130490100Y-111262019D02*
X130490100Y-110976820D01*
D63*
X135100100Y-116486820D02*
X135038400Y-116548520D01*
X143665100Y-101016820D02*
X143665100Y-101860120D01*
X134890100Y-96876820D02*
X134890100Y-97516820D01*
X136190100Y-114576820D02*
X135386700Y-114576820D01*
D64*
X134890100Y-97516820D02*
X135450100Y-96956820D01*
D63*
X135386700Y-114576820D02*
X135126700Y-114316820D01*
X131939250Y-116266120D02*
X132840950Y-116266120D01*
X144071800Y-102266820D02*
X143400100Y-102266820D01*
X134030100Y-96016820D02*
X134890100Y-96876820D01*
X132115100Y-109266820D02*
X130540100Y-109266820D01*
D64*
X134890100Y-97716274D02*
X134885373Y-97711547D01*
D63*
X134040100Y-101341820D02*
X134040100Y-100338712D01*
X132153500Y-117516820D02*
X132153500Y-116480370D01*
X130490100Y-109316820D02*
X129962100Y-109844820D01*
D64*
X134885373Y-97711547D02*
X134885373Y-97521547D01*
D63*
X129560100Y-104596820D02*
X129620100Y-104536820D01*
D64*
X133621800Y-99816820D02*
X133621800Y-99920412D01*
D63*
X122610100Y-102916820D02*
X122290100Y-102596820D01*
X142840100Y-113048520D02*
X141896800Y-113048520D01*
X143665100Y-101016820D02*
X143665100Y-101901820D01*
D64*
X134370100Y-98776820D02*
X133820100Y-98776820D01*
D63*
X131580100Y-102366820D02*
X131580100Y-102731820D01*
X136190100Y-115116820D02*
X136260100Y-115186820D01*
X143465100Y-103266820D02*
X143465100Y-102873520D01*
X131205613Y-103266820D02*
X132115100Y-103266820D01*
D64*
X130920100Y-112096820D02*
X130880100Y-112136820D01*
D63*
X143465100Y-102873520D02*
X144071800Y-102266820D01*
D64*
X130920100Y-111692019D02*
X130490100Y-111262019D01*
D63*
X129962100Y-110934820D02*
X130004100Y-110976820D01*
D64*
X134885373Y-97521547D02*
X134890100Y-97516820D01*
D63*
X134021800Y-101323520D02*
X134040100Y-101341820D01*
D64*
X143321800Y-113048520D02*
X142840100Y-113048520D01*
D63*
X130004100Y-110976820D02*
X130490100Y-110976820D01*
X129962100Y-109844820D02*
X129962100Y-110934820D01*
X129620100Y-104536820D02*
X129935613Y-104536820D01*
X133320100Y-95306820D02*
X133320100Y-93306820D01*
X135040100Y-112691820D02*
X135040100Y-111576820D01*
D64*
X130920100Y-111692019D02*
X130920100Y-112096820D01*
D63*
X134070100Y-96016820D02*
X134030100Y-96016820D01*
X134007700Y-116266120D02*
X134290100Y-116548520D01*
D64*
X133621800Y-99920412D02*
X134040100Y-100338712D01*
D63*
X123180100Y-102916820D02*
X122610100Y-102916820D01*
X134030100Y-96016820D02*
X134030100Y-95786820D01*
D64*
%TO.N,VSD*%
X162020100Y-116146820D02*
X162430100Y-116146820D01*
X161250100Y-115376820D02*
X162020100Y-116146820D01*
D63*
%TO.N,VMIC*%
X152390100Y-89946820D02*
X152520100Y-89816820D01*
X147365100Y-91539820D02*
X147365100Y-91761820D01*
X151190100Y-89946820D02*
X152390100Y-89946820D01*
D64*
%TO.N,VNINA*%
X156422600Y-112059320D02*
X156766800Y-111715120D01*
X156766800Y-111715120D02*
X156950100Y-111898420D01*
X152490100Y-113106820D02*
X152390100Y-113106820D01*
X153220100Y-113616820D02*
X153945100Y-112891820D01*
X153000100Y-113616820D02*
X152660100Y-113276820D01*
X156766800Y-111715120D02*
X156766800Y-110954890D01*
X152660100Y-113276820D02*
X152490100Y-113106820D01*
X152660100Y-113276820D02*
X152540100Y-113156820D01*
D63*
X157767560Y-110954890D02*
X156766800Y-110954890D01*
D64*
X155590100Y-112891820D02*
X156422600Y-112059320D01*
X155262600Y-112059320D02*
X155190100Y-111986820D01*
X156950100Y-111898420D02*
X156950100Y-112886820D01*
X152450100Y-114386820D02*
X153220100Y-113616820D01*
X156990100Y-112926820D02*
X156990100Y-112948520D01*
X153945100Y-112891820D02*
X155590100Y-112891820D01*
X156422600Y-112059320D02*
X155262600Y-112059320D01*
X153220100Y-113616820D02*
X153000100Y-113616820D01*
X156950100Y-112886820D02*
X156990100Y-112926820D01*
%TD*%
M02*
