%TF.GenerationSoftware,KiCad,Pcbnew,9.0.5*%
%TF.CreationDate,2025-12-11T12:43:01+01:00*%
%TF.ProjectId,MemShield,4d656d53-6869-4656-9c64-2e6b69636164,rev?*%
%TF.SameCoordinates,Original*%
%TF.FileFunction,Paste,Top*%
%TF.FilePolarity,Positive*%
%FSLAX46Y46*%
G04 Gerber Fmt 4.6, Leading zero omitted, Abs format (unit mm)*
G04 Created by KiCad (PCBNEW 9.0.5) date 2025-12-11 12:43:01*
%MOMM*%
%LPD*%
G01*
G04 APERTURE LIST*
G04 Aperture macros list*
%AMRoundRect*
0 Rectangle with rounded corners*
0 $1 Rounding radius*
0 $2 $3 $4 $5 $6 $7 $8 $9 X,Y pos of 4 corners*
0 Add a 4 corners polygon primitive as box body*
4,1,4,$2,$3,$4,$5,$6,$7,$8,$9,$2,$3,0*
0 Add four circle primitives for the rounded corners*
1,1,$1+$1,$2,$3*
1,1,$1+$1,$4,$5*
1,1,$1+$1,$6,$7*
1,1,$1+$1,$8,$9*
0 Add four rect primitives between the rounded corners*
20,1,$1+$1,$2,$3,$4,$5,0*
20,1,$1+$1,$4,$5,$6,$7,0*
20,1,$1+$1,$6,$7,$8,$9,0*
20,1,$1+$1,$8,$9,$2,$3,0*%
G04 Aperture macros list end*
%ADD10R,0.430000X0.329999*%
%ADD11R,0.800000X0.800000*%
%ADD12R,0.558800X0.504800*%
%ADD13R,0.650000X0.900000*%
%ADD14R,0.558800X1.295400*%
%ADD15R,0.600000X0.500000*%
%ADD16R,0.504800X0.558800*%
%ADD17R,3.098800X0.889000*%
%ADD18R,0.650000X0.800000*%
%ADD19R,0.380000X0.400000*%
%ADD20R,0.800000X0.650000*%
%ADD21R,0.400000X0.380000*%
%ADD22R,0.558800X0.711200*%
%ADD23R,0.939800X0.708000*%
%ADD24R,0.600000X0.800000*%
%ADD25R,0.475000X0.500000*%
%ADD26R,0.749999X0.799998*%
%ADD27R,0.550000X1.500000*%
%ADD28R,1.500000X0.550000*%
%ADD29R,0.701040X1.150620*%
%ADD30R,1.150620X0.701040*%
%ADD31R,0.701040X0.701040*%
%ADD32RoundRect,0.075000X-0.700000X-0.075000X0.700000X-0.075000X0.700000X0.075000X-0.700000X0.075000X0*%
%ADD33RoundRect,0.075000X-0.075000X-0.700000X0.075000X-0.700000X0.075000X0.700000X-0.075000X0.700000X0*%
%ADD34R,0.708000X0.939800*%
%ADD35RoundRect,0.025000X-0.100000X-0.145000X0.100000X-0.145000X0.100000X0.145000X-0.100000X0.145000X0*%
%ADD36RoundRect,0.106000X-0.644000X-0.424000X0.644000X-0.424000X0.644000X0.424000X-0.644000X0.424000X0*%
%ADD37RoundRect,0.060000X-0.240000X-0.060000X0.240000X-0.060000X0.240000X0.060000X-0.240000X0.060000X0*%
%ADD38R,1.290599X0.839000*%
%ADD39R,0.508000X0.304800*%
%ADD40R,0.990600X1.498600*%
G04 APERTURE END LIST*
D10*
%TO.C,C4*%
X128184400Y-100816720D03*
X127584400Y-100816720D03*
%TD*%
D11*
%TO.C,D9*%
X140590100Y-99416820D03*
X142090100Y-99416820D03*
%TD*%
D12*
%TO.C,C34*%
X156990100Y-112948520D03*
X156990100Y-113885120D03*
%TD*%
D13*
%TO.C,R7*%
X137365100Y-99416820D03*
X138815100Y-99416820D03*
%TD*%
D14*
%TO.C,U4*%
X144511599Y-114345520D03*
X146411601Y-114345520D03*
X145461600Y-112288120D03*
%TD*%
D15*
%TO.C,C7*%
X141340100Y-114516820D03*
X140240100Y-114516820D03*
%TD*%
D16*
%TO.C,C6*%
X133621800Y-99816820D03*
X134558400Y-99816820D03*
%TD*%
D17*
%TO.C,L1*%
X124690100Y-114821720D03*
X124690100Y-112611920D03*
%TD*%
D18*
%TO.C,C13*%
X145315100Y-101016820D03*
X143665100Y-101016820D03*
%TD*%
D19*
%TO.C,R6*%
X136190100Y-114576820D03*
X136750100Y-114576820D03*
%TD*%
D20*
%TO.C,C35*%
X155590100Y-114541820D03*
X155590100Y-112891820D03*
%TD*%
%TO.C,C9*%
X142840100Y-114698520D03*
X142840100Y-113048520D03*
%TD*%
D21*
%TO.C,R23*%
X132380100Y-99276820D03*
X132380100Y-99836820D03*
%TD*%
D22*
%TO.C,C14*%
X125190100Y-111037520D03*
X125190100Y-109996120D03*
%TD*%
D12*
%TO.C,C1*%
X134290100Y-116548520D03*
X134290100Y-117485120D03*
%TD*%
D23*
%TO.C,R2*%
X130240100Y-106713720D03*
X130240100Y-105319920D03*
%TD*%
D21*
%TO.C,R26*%
X129380100Y-99276820D03*
X129380100Y-99836820D03*
%TD*%
%TO.C,R28*%
X127414400Y-99286720D03*
X127414400Y-99846720D03*
%TD*%
D16*
%TO.C,C8*%
X134190100Y-114316820D03*
X135126700Y-114316820D03*
%TD*%
D24*
%TO.C,D10*%
X149390100Y-100516820D03*
X150790100Y-100516820D03*
%TD*%
D25*
%TO.C,R21*%
X150078100Y-121116820D03*
X151102100Y-121116820D03*
%TD*%
D26*
%TO.C,R1*%
X129265099Y-116516820D03*
X127715101Y-116516820D03*
%TD*%
D11*
%TO.C,D8*%
X134190100Y-120566820D03*
X134190100Y-119066820D03*
%TD*%
D27*
%TO.C,S3*%
X157140100Y-100016820D03*
X160390100Y-100016820D03*
%TD*%
D21*
%TO.C,R5*%
X130490100Y-110976820D03*
X130490100Y-110416820D03*
%TD*%
D25*
%TO.C,R20*%
X153402100Y-121016820D03*
X152378100Y-121016820D03*
%TD*%
D16*
%TO.C,C16*%
X132153500Y-117516820D03*
X133090100Y-117516820D03*
%TD*%
D28*
%TO.C,S2*%
X159090100Y-112916820D03*
X159090100Y-116166820D03*
%TD*%
D21*
%TO.C,R22*%
X122290100Y-102036820D03*
X122290100Y-102596820D03*
%TD*%
D13*
%TO.C,R29*%
X153615100Y-100516820D03*
X152165100Y-100516820D03*
%TD*%
D12*
%TO.C,C22*%
X122290100Y-100985120D03*
X122290100Y-100048520D03*
%TD*%
D29*
%TO.C,MD1*%
X148760720Y-110954890D03*
X149761480Y-110954890D03*
X150762240Y-110954890D03*
X151763000Y-110954890D03*
X152763760Y-110954890D03*
X153764520Y-110954890D03*
X154765280Y-110954890D03*
X155766040Y-110954890D03*
X156766800Y-110954890D03*
X157767560Y-110954890D03*
D30*
X157685010Y-108892410D03*
X157685010Y-107891650D03*
X157685010Y-106890890D03*
X157685010Y-105890130D03*
X157685010Y-104889370D03*
D29*
X157767560Y-102826890D03*
X156766800Y-102826890D03*
X155766040Y-102826890D03*
X154765280Y-102826890D03*
X153764520Y-102826890D03*
X152763760Y-102826890D03*
X151763000Y-102826890D03*
X150762240Y-102826890D03*
X149761480Y-102826890D03*
X148760720Y-102826890D03*
D30*
X148835650Y-104889370D03*
X148835650Y-105890130D03*
X148835650Y-106890890D03*
X148835650Y-107891650D03*
X148835650Y-108892410D03*
D31*
X150211060Y-109640440D03*
X150211060Y-108540620D03*
X150211060Y-107440800D03*
X150211060Y-106340980D03*
X150211060Y-105241160D03*
X150211060Y-104141340D03*
X151539480Y-107466200D03*
X151539480Y-106315580D03*
X152690100Y-108616820D03*
X152690100Y-107466200D03*
X152690100Y-106315580D03*
X152690100Y-105164960D03*
X153840720Y-107466200D03*
X153840720Y-106315580D03*
X154991340Y-108616820D03*
X154991340Y-107466200D03*
X154991340Y-106315580D03*
X154991340Y-105164960D03*
%TD*%
D21*
%TO.C,R27*%
X128380100Y-99276820D03*
X128380100Y-99836820D03*
%TD*%
D10*
%TO.C,C12*%
X127584400Y-105016820D03*
X128184400Y-105016820D03*
%TD*%
D16*
%TO.C,C10*%
X130643500Y-102366820D03*
X131580100Y-102366820D03*
%TD*%
D13*
%TO.C,R4*%
X131365100Y-118816820D03*
X132815100Y-118816820D03*
%TD*%
D32*
%TO.C,U3*%
X132115100Y-103266820D03*
X132115100Y-103766820D03*
X132115100Y-104266820D03*
X132115100Y-104766820D03*
X132115100Y-105266820D03*
X132115100Y-105766820D03*
X132115100Y-106266820D03*
X132115100Y-106766820D03*
X132115100Y-107266820D03*
X132115100Y-107766820D03*
X132115100Y-108266820D03*
X132115100Y-108766820D03*
X132115100Y-109266820D03*
X132115100Y-109766820D03*
X132115100Y-110266820D03*
X132115100Y-110766820D03*
D33*
X134040100Y-112691820D03*
X134540100Y-112691820D03*
X135040100Y-112691820D03*
X135540100Y-112691820D03*
X136040100Y-112691820D03*
X136540100Y-112691820D03*
X137040100Y-112691820D03*
X137540100Y-112691820D03*
X138040100Y-112691820D03*
X138540100Y-112691820D03*
X139040100Y-112691820D03*
X139540100Y-112691820D03*
X140040100Y-112691820D03*
X140540100Y-112691820D03*
X141040100Y-112691820D03*
X141540100Y-112691820D03*
D32*
X143465100Y-110766820D03*
X143465100Y-110266820D03*
X143465100Y-109766820D03*
X143465100Y-109266820D03*
X143465100Y-108766820D03*
X143465100Y-108266820D03*
X143465100Y-107766820D03*
X143465100Y-107266820D03*
X143465100Y-106766820D03*
X143465100Y-106266820D03*
X143465100Y-105766820D03*
X143465100Y-105266820D03*
X143465100Y-104766820D03*
X143465100Y-104266820D03*
X143465100Y-103766820D03*
X143465100Y-103266820D03*
D33*
X141540100Y-101341820D03*
X141040100Y-101341820D03*
X140540100Y-101341820D03*
X140040100Y-101341820D03*
X139540100Y-101341820D03*
X139040100Y-101341820D03*
X138540100Y-101341820D03*
X138040100Y-101341820D03*
X137540100Y-101341820D03*
X137040100Y-101341820D03*
X136540100Y-101341820D03*
X136040100Y-101341820D03*
X135540100Y-101341820D03*
X135040100Y-101341820D03*
X134540100Y-101341820D03*
X134040100Y-101341820D03*
%TD*%
D34*
%TO.C,R3*%
X131473200Y-113236820D03*
X132867000Y-113236820D03*
%TD*%
D35*
%TO.C,U2*%
X128440100Y-112186820D03*
X128440100Y-115246820D03*
D36*
X128690100Y-113086820D03*
X128690100Y-114346820D03*
D35*
X128940100Y-112186820D03*
X128940100Y-115246820D03*
D37*
X127290100Y-112716820D03*
X127290100Y-113216820D03*
X127290100Y-113716820D03*
X127290100Y-114216820D03*
X127290100Y-114716820D03*
X130090100Y-114716820D03*
X130090100Y-114216820D03*
X130090100Y-113716820D03*
X130090100Y-113216820D03*
X130090100Y-112716820D03*
%TD*%
D18*
%TO.C,C2*%
X129315100Y-118016820D03*
X127665100Y-118016820D03*
%TD*%
D38*
%TO.C,X1*%
X129190100Y-102116620D03*
X126578700Y-102116620D03*
X126578700Y-103716820D03*
X129190100Y-103716820D03*
%TD*%
D39*
%TO.C,U1*%
X132840950Y-116266120D03*
X132840950Y-114767520D03*
X131939250Y-114767520D03*
X131939250Y-116266120D03*
%TD*%
D19*
%TO.C,R30*%
X155310100Y-100516820D03*
X155870100Y-100516820D03*
%TD*%
D21*
%TO.C,R25*%
X130380100Y-99276820D03*
X130380100Y-99836820D03*
%TD*%
D12*
%TO.C,C3*%
X130490100Y-109316820D03*
X130490100Y-108380220D03*
%TD*%
%TO.C,C5*%
X130590100Y-117285120D03*
X130590100Y-116348520D03*
%TD*%
D28*
%TO.C,S1*%
X124190100Y-102241820D03*
X124190100Y-98991820D03*
%TD*%
D40*
%TO.C,F1*%
X126897900Y-110516820D03*
X129082300Y-110516820D03*
%TD*%
D16*
%TO.C,C33*%
X155858400Y-99416820D03*
X154921800Y-99416820D03*
%TD*%
%TO.C,C11*%
X144071800Y-102266820D03*
X145008400Y-102266820D03*
%TD*%
D21*
%TO.C,R24*%
X131380100Y-99276820D03*
X131380100Y-99836820D03*
%TD*%
M02*
