G04 #@! TF.GenerationSoftware,KiCad,Pcbnew,9.0.5*
G04 #@! TF.CreationDate,2026-01-10T11:05:36+01:00*
G04 #@! TF.ProjectId,MemShield,4d656d53-6869-4656-9c64-2e6b69636164,rev?*
G04 #@! TF.SameCoordinates,Original*
G04 #@! TF.FileFunction,Legend,Bot*
G04 #@! TF.FilePolarity,Positive*
%FSLAX46Y46*%
G04 Gerber Fmt 4.6, Leading zero omitted, Abs format (unit mm)*
G04 Created by KiCad (PCBNEW 9.0.5) date 2026-01-10 11:05:36*
%MOMM*%
%LPD*%
G01*
G04 APERTURE LIST*
G04 Aperture macros list*
%AMRoundRect*
0 Rectangle with rounded corners*
0 $1 Rounding radius*
0 $2 $3 $4 $5 $6 $7 $8 $9 X,Y pos of 4 corners*
0 Add a 4 corners polygon primitive as box body*
4,1,4,$2,$3,$4,$5,$6,$7,$8,$9,$2,$3,0*
0 Add four circle primitives for the rounded corners*
1,1,$1+$1,$2,$3*
1,1,$1+$1,$4,$5*
1,1,$1+$1,$6,$7*
1,1,$1+$1,$8,$9*
0 Add four rect primitives between the rounded corners*
20,1,$1+$1,$2,$3,$4,$5,0*
20,1,$1+$1,$4,$5,$6,$7,0*
20,1,$1+$1,$6,$7,$8,$9,0*
20,1,$1+$1,$8,$9,$2,$3,0*%
%AMRotRect*
0 Rectangle, with rotation*
0 The origin of the aperture is its center*
0 $1 length*
0 $2 width*
0 $3 Rotation angle, in degrees counterclockwise*
0 Add horizontal line*
21,1,$1,$2,0,0,$3*%
%AMFreePoly0*
4,1,23,0.500000,-0.750000,0.000000,-0.750000,0.000000,-0.745722,-0.065263,-0.745722,-0.191342,-0.711940,-0.304381,-0.646677,-0.396677,-0.554381,-0.461940,-0.441342,-0.495722,-0.315263,-0.495722,-0.250000,-0.500000,-0.250000,-0.500000,0.250000,-0.495722,0.250000,-0.495722,0.315263,-0.461940,0.441342,-0.396677,0.554381,-0.304381,0.646677,-0.191342,0.711940,-0.065263,0.745722,0.000000,0.745722,
0.000000,0.750000,0.500000,0.750000,0.500000,-0.750000,0.500000,-0.750000,$1*%
%AMFreePoly1*
4,1,23,0.000000,0.745722,0.065263,0.745722,0.191342,0.711940,0.304381,0.646677,0.396677,0.554381,0.461940,0.441342,0.495722,0.315263,0.495722,0.250000,0.500000,0.250000,0.500000,-0.250000,0.495722,-0.250000,0.495722,-0.315263,0.461940,-0.441342,0.396677,-0.554381,0.304381,-0.646677,0.191342,-0.711940,0.065263,-0.745722,0.000000,-0.745722,0.000000,-0.750000,-0.500000,-0.750000,
-0.500000,0.750000,0.000000,0.750000,0.000000,0.745722,0.000000,0.745722,$1*%
%AMFreePoly2*
4,1,33,0.181428,0.598088,0.294623,0.551201,0.396496,0.483132,0.483132,0.396496,0.551201,0.294623,0.598088,0.181428,0.621990,0.061261,0.621990,-0.061261,0.598088,-0.181428,0.551201,-0.294623,0.483132,-0.396496,0.396496,-0.483132,0.294623,-0.551201,0.181428,-0.598088,0.061261,-0.621990,-0.061261,-0.621990,-0.181428,-0.598088,-0.294623,-0.551201,-0.396496,-0.483132,-0.483132,-0.396496,
-0.551201,-0.294623,-0.598088,-0.181428,-0.621990,-0.061261,-0.621990,0.061261,-0.598088,0.181428,-0.551201,0.294623,-0.483132,0.396496,-0.396496,0.483132,-0.294623,0.551201,-0.181428,0.598088,-0.061261,0.621990,0.061261,0.621990,0.181428,0.598088,0.181428,0.598088,$1*%
G04 Aperture macros list end*
%ADD10C,0.150000*%
%ADD11C,0.200000*%
%ADD12C,0.153000*%
%ADD13C,0.508000*%
%ADD14C,0.120000*%
%ADD15C,0.152400*%
%ADD16C,0.127000*%
%ADD17C,0.240000*%
%ADD18R,1.050000X1.050000*%
%ADD19C,1.050000*%
%ADD20C,0.000000*%
%ADD21C,1.066800*%
%ADD22R,0.850000X0.850000*%
%ADD23C,1.254000*%
%ADD24C,1.016000*%
%ADD25R,0.654800X0.558800*%
%ADD26FreePoly0,270.000000*%
%ADD27FreePoly1,270.000000*%
%ADD28R,0.609600X0.504800*%
%ADD29RotRect,0.504800X0.558800X300.000000*%
%ADD30R,0.350000X0.550000*%
%ADD31FreePoly2,270.000000*%
%ADD32C,0.950000*%
%ADD33R,1.000000X1.600000*%
%ADD34FreePoly0,232.500000*%
%ADD35FreePoly1,232.500000*%
%ADD36R,0.504800X0.558800*%
%ADD37RotRect,0.504800X0.558800X240.000000*%
%ADD38RotRect,0.550000X0.350000X30.000000*%
%ADD39FreePoly2,30.000000*%
%ADD40RoundRect,0.102000X-0.450000X0.325000X-0.450000X-0.325000X0.450000X-0.325000X0.450000X0.325000X0*%
%ADD41R,0.800000X0.650000*%
%ADD42FreePoly0,90.000000*%
%ADD43FreePoly1,90.000000*%
%ADD44RotRect,0.550000X0.350000X210.000000*%
%ADD45FreePoly2,210.000000*%
%ADD46R,0.504800X0.609600*%
%ADD47RoundRect,0.102000X-0.325000X-0.450000X0.325000X-0.450000X0.325000X0.450000X-0.325000X0.450000X0*%
%ADD48RotRect,0.550000X0.350000X330.000000*%
%ADD49FreePoly2,330.000000*%
%ADD50R,0.558800X0.504800*%
%ADD51RotRect,0.504800X0.558800X120.000000*%
%ADD52FreePoly2,90.000000*%
%ADD53RoundRect,0.102000X-1.000000X0.350000X-1.000000X-0.350000X1.000000X-0.350000X1.000000X0.350000X0*%
%ADD54RoundRect,0.102000X-0.700000X1.350000X-0.700000X-1.350000X0.700000X-1.350000X0.700000X1.350000X0*%
%ADD55RoundRect,0.102000X-1.300000X0.500000X-1.300000X-0.500000X1.300000X-0.500000X1.300000X0.500000X0*%
%ADD56RoundRect,0.102000X-1.300000X0.750000X-1.300000X-0.750000X1.300000X-0.750000X1.300000X0.750000X0*%
%ADD57RoundRect,0.102000X-0.600000X0.600000X-0.600000X-0.600000X0.600000X-0.600000X0.600000X0.600000X0*%
%ADD58RotRect,0.504800X0.558800X60.000000*%
%ADD59RotRect,0.550000X0.350000X150.000000*%
%ADD60FreePoly2,150.000000*%
G04 APERTURE END LIST*
D10*
X170407197Y-104625153D02*
X170716721Y-104841820D01*
X170407197Y-104996582D02*
X171057197Y-104996582D01*
X171057197Y-104996582D02*
X171057197Y-104748963D01*
X171057197Y-104748963D02*
X171026245Y-104687058D01*
X171026245Y-104687058D02*
X170995292Y-104656105D01*
X170995292Y-104656105D02*
X170933388Y-104625153D01*
X170933388Y-104625153D02*
X170840530Y-104625153D01*
X170840530Y-104625153D02*
X170778626Y-104656105D01*
X170778626Y-104656105D02*
X170747673Y-104687058D01*
X170747673Y-104687058D02*
X170716721Y-104748963D01*
X170716721Y-104748963D02*
X170716721Y-104996582D01*
X170778626Y-104253724D02*
X170809578Y-104315629D01*
X170809578Y-104315629D02*
X170840530Y-104346582D01*
X170840530Y-104346582D02*
X170902435Y-104377534D01*
X170902435Y-104377534D02*
X170933388Y-104377534D01*
X170933388Y-104377534D02*
X170995292Y-104346582D01*
X170995292Y-104346582D02*
X171026245Y-104315629D01*
X171026245Y-104315629D02*
X171057197Y-104253724D01*
X171057197Y-104253724D02*
X171057197Y-104129915D01*
X171057197Y-104129915D02*
X171026245Y-104068010D01*
X171026245Y-104068010D02*
X170995292Y-104037058D01*
X170995292Y-104037058D02*
X170933388Y-104006105D01*
X170933388Y-104006105D02*
X170902435Y-104006105D01*
X170902435Y-104006105D02*
X170840530Y-104037058D01*
X170840530Y-104037058D02*
X170809578Y-104068010D01*
X170809578Y-104068010D02*
X170778626Y-104129915D01*
X170778626Y-104129915D02*
X170778626Y-104253724D01*
X170778626Y-104253724D02*
X170747673Y-104315629D01*
X170747673Y-104315629D02*
X170716721Y-104346582D01*
X170716721Y-104346582D02*
X170654816Y-104377534D01*
X170654816Y-104377534D02*
X170531007Y-104377534D01*
X170531007Y-104377534D02*
X170469102Y-104346582D01*
X170469102Y-104346582D02*
X170438150Y-104315629D01*
X170438150Y-104315629D02*
X170407197Y-104253724D01*
X170407197Y-104253724D02*
X170407197Y-104129915D01*
X170407197Y-104129915D02*
X170438150Y-104068010D01*
X170438150Y-104068010D02*
X170469102Y-104037058D01*
X170469102Y-104037058D02*
X170531007Y-104006105D01*
X170531007Y-104006105D02*
X170654816Y-104006105D01*
X170654816Y-104006105D02*
X170716721Y-104037058D01*
X170716721Y-104037058D02*
X170747673Y-104068010D01*
X170747673Y-104068010D02*
X170778626Y-104129915D01*
X140943002Y-91360153D02*
X141407288Y-91360153D01*
X141407288Y-91360153D02*
X141500145Y-91329200D01*
X141500145Y-91329200D02*
X141562050Y-91267296D01*
X141562050Y-91267296D02*
X141593002Y-91174438D01*
X141593002Y-91174438D02*
X141593002Y-91112534D01*
X140943002Y-91607772D02*
X140943002Y-92041105D01*
X140943002Y-92041105D02*
X141593002Y-91762534D01*
X167207197Y-99166582D02*
X167857197Y-99166582D01*
X167857197Y-99166582D02*
X167857197Y-99011820D01*
X167857197Y-99011820D02*
X167826245Y-98918963D01*
X167826245Y-98918963D02*
X167764340Y-98857058D01*
X167764340Y-98857058D02*
X167702435Y-98826105D01*
X167702435Y-98826105D02*
X167578626Y-98795153D01*
X167578626Y-98795153D02*
X167485769Y-98795153D01*
X167485769Y-98795153D02*
X167361959Y-98826105D01*
X167361959Y-98826105D02*
X167300054Y-98857058D01*
X167300054Y-98857058D02*
X167238150Y-98918963D01*
X167238150Y-98918963D02*
X167207197Y-99011820D01*
X167207197Y-99011820D02*
X167207197Y-99166582D01*
X167640530Y-98238010D02*
X167207197Y-98238010D01*
X167888150Y-98392772D02*
X167423864Y-98547534D01*
X167423864Y-98547534D02*
X167423864Y-98145153D01*
X157111221Y-121309445D02*
X157122550Y-121267164D01*
X157122550Y-121267164D02*
X157102927Y-121171271D01*
X157102927Y-121171271D02*
X157071974Y-121117660D01*
X157071974Y-121117660D02*
X156998740Y-121052719D01*
X156998740Y-121052719D02*
X156914177Y-121030061D01*
X156914177Y-121030061D02*
X156845090Y-121034207D01*
X156845090Y-121034207D02*
X156722391Y-121069307D01*
X156722391Y-121069307D02*
X156641975Y-121115735D01*
X156641975Y-121115735D02*
X156550229Y-121204446D01*
X156550229Y-121204446D02*
X156512094Y-121262203D01*
X156512094Y-121262203D02*
X156489435Y-121346767D01*
X156489435Y-121346767D02*
X156509058Y-121442660D01*
X156509058Y-121442660D02*
X156540010Y-121496271D01*
X156540010Y-121496271D02*
X156613244Y-121561211D01*
X156613244Y-121561211D02*
X156655526Y-121572541D01*
X156779336Y-121786985D02*
X156768006Y-121829267D01*
X156768006Y-121829267D02*
X156772153Y-121898354D01*
X156772153Y-121898354D02*
X156849534Y-122032382D01*
X156849534Y-122032382D02*
X156907292Y-122070517D01*
X156907292Y-122070517D02*
X156949574Y-122081846D01*
X156949574Y-122081846D02*
X157018661Y-122077699D01*
X157018661Y-122077699D02*
X157072272Y-122046747D01*
X157072272Y-122046747D02*
X157137213Y-121973513D01*
X157137213Y-121973513D02*
X157273165Y-121466132D01*
X157273165Y-121466132D02*
X157474355Y-121814604D01*
X157190011Y-122622104D02*
X157128106Y-122514882D01*
X157128106Y-122514882D02*
X157123959Y-122445795D01*
X157123959Y-122445795D02*
X157135288Y-122403513D01*
X157135288Y-122403513D02*
X157184753Y-122303473D01*
X157184753Y-122303473D02*
X157276499Y-122214763D01*
X157276499Y-122214763D02*
X157490943Y-122090954D01*
X157490943Y-122090954D02*
X157560030Y-122086807D01*
X157560030Y-122086807D02*
X157602312Y-122098136D01*
X157602312Y-122098136D02*
X157660070Y-122136271D01*
X157660070Y-122136271D02*
X157721975Y-122243493D01*
X157721975Y-122243493D02*
X157726122Y-122312580D01*
X157726122Y-122312580D02*
X157714792Y-122354862D01*
X157714792Y-122354862D02*
X157676657Y-122412620D01*
X157676657Y-122412620D02*
X157542630Y-122490001D01*
X157542630Y-122490001D02*
X157473542Y-122494148D01*
X157473542Y-122494148D02*
X157431260Y-122482819D01*
X157431260Y-122482819D02*
X157373503Y-122444684D01*
X157373503Y-122444684D02*
X157311598Y-122337461D01*
X157311598Y-122337461D02*
X157307451Y-122268374D01*
X157307451Y-122268374D02*
X157318780Y-122226092D01*
X157318780Y-122226092D02*
X157356915Y-122168334D01*
X162227197Y-98936582D02*
X162877197Y-98936582D01*
X162877197Y-98936582D02*
X162877197Y-98781820D01*
X162877197Y-98781820D02*
X162846245Y-98688963D01*
X162846245Y-98688963D02*
X162784340Y-98627058D01*
X162784340Y-98627058D02*
X162722435Y-98596105D01*
X162722435Y-98596105D02*
X162598626Y-98565153D01*
X162598626Y-98565153D02*
X162505769Y-98565153D01*
X162505769Y-98565153D02*
X162381959Y-98596105D01*
X162381959Y-98596105D02*
X162320054Y-98627058D01*
X162320054Y-98627058D02*
X162258150Y-98688963D01*
X162258150Y-98688963D02*
X162227197Y-98781820D01*
X162227197Y-98781820D02*
X162227197Y-98936582D01*
X162815292Y-98317534D02*
X162846245Y-98286582D01*
X162846245Y-98286582D02*
X162877197Y-98224677D01*
X162877197Y-98224677D02*
X162877197Y-98069915D01*
X162877197Y-98069915D02*
X162846245Y-98008010D01*
X162846245Y-98008010D02*
X162815292Y-97977058D01*
X162815292Y-97977058D02*
X162753388Y-97946105D01*
X162753388Y-97946105D02*
X162691483Y-97946105D01*
X162691483Y-97946105D02*
X162598626Y-97977058D01*
X162598626Y-97977058D02*
X162227197Y-98348486D01*
X162227197Y-98348486D02*
X162227197Y-97946105D01*
X170277957Y-109469722D02*
X170494624Y-109160198D01*
X170649386Y-109469722D02*
X170649386Y-108819722D01*
X170649386Y-108819722D02*
X170401767Y-108819722D01*
X170401767Y-108819722D02*
X170339862Y-108850674D01*
X170339862Y-108850674D02*
X170308909Y-108881627D01*
X170308909Y-108881627D02*
X170277957Y-108943531D01*
X170277957Y-108943531D02*
X170277957Y-109036389D01*
X170277957Y-109036389D02*
X170308909Y-109098293D01*
X170308909Y-109098293D02*
X170339862Y-109129246D01*
X170339862Y-109129246D02*
X170401767Y-109160198D01*
X170401767Y-109160198D02*
X170649386Y-109160198D01*
X169658909Y-109469722D02*
X170030338Y-109469722D01*
X169844624Y-109469722D02*
X169844624Y-108819722D01*
X169844624Y-108819722D02*
X169906528Y-108912579D01*
X169906528Y-108912579D02*
X169968433Y-108974484D01*
X169968433Y-108974484D02*
X170030338Y-109005436D01*
X169442242Y-108819722D02*
X169039861Y-108819722D01*
X169039861Y-108819722D02*
X169256528Y-109067341D01*
X169256528Y-109067341D02*
X169163671Y-109067341D01*
X169163671Y-109067341D02*
X169101766Y-109098293D01*
X169101766Y-109098293D02*
X169070814Y-109129246D01*
X169070814Y-109129246D02*
X169039861Y-109191150D01*
X169039861Y-109191150D02*
X169039861Y-109345912D01*
X169039861Y-109345912D02*
X169070814Y-109407817D01*
X169070814Y-109407817D02*
X169101766Y-109438770D01*
X169101766Y-109438770D02*
X169163671Y-109469722D01*
X169163671Y-109469722D02*
X169349385Y-109469722D01*
X169349385Y-109469722D02*
X169411290Y-109438770D01*
X169411290Y-109438770D02*
X169442242Y-109407817D01*
X165697197Y-107543010D02*
X166347197Y-107543010D01*
X166347197Y-107543010D02*
X165882911Y-107326343D01*
X165882911Y-107326343D02*
X166347197Y-107109676D01*
X166347197Y-107109676D02*
X165697197Y-107109676D01*
X166347197Y-106862057D02*
X166347197Y-106459676D01*
X166347197Y-106459676D02*
X166099578Y-106676343D01*
X166099578Y-106676343D02*
X166099578Y-106583486D01*
X166099578Y-106583486D02*
X166068626Y-106521581D01*
X166068626Y-106521581D02*
X166037673Y-106490629D01*
X166037673Y-106490629D02*
X165975769Y-106459676D01*
X165975769Y-106459676D02*
X165821007Y-106459676D01*
X165821007Y-106459676D02*
X165759102Y-106490629D01*
X165759102Y-106490629D02*
X165728150Y-106521581D01*
X165728150Y-106521581D02*
X165697197Y-106583486D01*
X165697197Y-106583486D02*
X165697197Y-106769200D01*
X165697197Y-106769200D02*
X165728150Y-106831105D01*
X165728150Y-106831105D02*
X165759102Y-106862057D01*
X148539862Y-94439722D02*
X148539862Y-93789722D01*
X148539862Y-93789722D02*
X148292243Y-93789722D01*
X148292243Y-93789722D02*
X148230338Y-93820674D01*
X148230338Y-93820674D02*
X148199385Y-93851627D01*
X148199385Y-93851627D02*
X148168433Y-93913531D01*
X148168433Y-93913531D02*
X148168433Y-94006389D01*
X148168433Y-94006389D02*
X148199385Y-94068293D01*
X148199385Y-94068293D02*
X148230338Y-94099246D01*
X148230338Y-94099246D02*
X148292243Y-94130198D01*
X148292243Y-94130198D02*
X148539862Y-94130198D01*
X147549385Y-94439722D02*
X147920814Y-94439722D01*
X147735100Y-94439722D02*
X147735100Y-93789722D01*
X147735100Y-93789722D02*
X147797004Y-93882579D01*
X147797004Y-93882579D02*
X147858909Y-93944484D01*
X147858909Y-93944484D02*
X147920814Y-93975436D01*
X151757955Y-92947817D02*
X151788907Y-92978770D01*
X151788907Y-92978770D02*
X151881765Y-93009722D01*
X151881765Y-93009722D02*
X151943669Y-93009722D01*
X151943669Y-93009722D02*
X152036526Y-92978770D01*
X152036526Y-92978770D02*
X152098431Y-92916865D01*
X152098431Y-92916865D02*
X152129384Y-92854960D01*
X152129384Y-92854960D02*
X152160336Y-92731150D01*
X152160336Y-92731150D02*
X152160336Y-92638293D01*
X152160336Y-92638293D02*
X152129384Y-92514484D01*
X152129384Y-92514484D02*
X152098431Y-92452579D01*
X152098431Y-92452579D02*
X152036526Y-92390674D01*
X152036526Y-92390674D02*
X151943669Y-92359722D01*
X151943669Y-92359722D02*
X151881765Y-92359722D01*
X151881765Y-92359722D02*
X151788907Y-92390674D01*
X151788907Y-92390674D02*
X151757955Y-92421627D01*
X151479384Y-93009722D02*
X151479384Y-92576389D01*
X151479384Y-92700198D02*
X151448431Y-92638293D01*
X151448431Y-92638293D02*
X151417479Y-92607341D01*
X151417479Y-92607341D02*
X151355574Y-92576389D01*
X151355574Y-92576389D02*
X151293669Y-92576389D01*
X150798431Y-93009722D02*
X150798431Y-92669246D01*
X150798431Y-92669246D02*
X150829384Y-92607341D01*
X150829384Y-92607341D02*
X150891288Y-92576389D01*
X150891288Y-92576389D02*
X151015098Y-92576389D01*
X151015098Y-92576389D02*
X151077003Y-92607341D01*
X150798431Y-92978770D02*
X150860336Y-93009722D01*
X150860336Y-93009722D02*
X151015098Y-93009722D01*
X151015098Y-93009722D02*
X151077003Y-92978770D01*
X151077003Y-92978770D02*
X151107955Y-92916865D01*
X151107955Y-92916865D02*
X151107955Y-92854960D01*
X151107955Y-92854960D02*
X151077003Y-92793055D01*
X151077003Y-92793055D02*
X151015098Y-92762103D01*
X151015098Y-92762103D02*
X150860336Y-92762103D01*
X150860336Y-92762103D02*
X150798431Y-92731150D01*
X150550812Y-92576389D02*
X150210336Y-92576389D01*
X150210336Y-92576389D02*
X150550812Y-93009722D01*
X150550812Y-93009722D02*
X150210336Y-93009722D01*
X150024622Y-92576389D02*
X149869860Y-93009722D01*
X149715099Y-92576389D02*
X149869860Y-93009722D01*
X149869860Y-93009722D02*
X149931765Y-93164484D01*
X149931765Y-93164484D02*
X149962718Y-93195436D01*
X149962718Y-93195436D02*
X150024622Y-93226389D01*
X149560337Y-92576389D02*
X149312718Y-92576389D01*
X149467480Y-93009722D02*
X149467480Y-92452579D01*
X149467480Y-92452579D02*
X149436527Y-92390674D01*
X149436527Y-92390674D02*
X149374622Y-92359722D01*
X149374622Y-92359722D02*
X149312718Y-92359722D01*
X149003193Y-93009722D02*
X149065098Y-92978770D01*
X149065098Y-92978770D02*
X149096051Y-92916865D01*
X149096051Y-92916865D02*
X149096051Y-92359722D01*
X148755575Y-93009722D02*
X148755575Y-92576389D01*
X148755575Y-92359722D02*
X148786527Y-92390674D01*
X148786527Y-92390674D02*
X148755575Y-92421627D01*
X148755575Y-92421627D02*
X148724622Y-92390674D01*
X148724622Y-92390674D02*
X148755575Y-92359722D01*
X148755575Y-92359722D02*
X148755575Y-92421627D01*
X148198432Y-92978770D02*
X148260336Y-93009722D01*
X148260336Y-93009722D02*
X148384146Y-93009722D01*
X148384146Y-93009722D02*
X148446051Y-92978770D01*
X148446051Y-92978770D02*
X148477003Y-92916865D01*
X148477003Y-92916865D02*
X148477003Y-92669246D01*
X148477003Y-92669246D02*
X148446051Y-92607341D01*
X148446051Y-92607341D02*
X148384146Y-92576389D01*
X148384146Y-92576389D02*
X148260336Y-92576389D01*
X148260336Y-92576389D02*
X148198432Y-92607341D01*
X148198432Y-92607341D02*
X148167479Y-92669246D01*
X148167479Y-92669246D02*
X148167479Y-92731150D01*
X148167479Y-92731150D02*
X148477003Y-92793055D01*
X147177003Y-92669246D02*
X147393670Y-92669246D01*
X147393670Y-93009722D02*
X147393670Y-92359722D01*
X147393670Y-92359722D02*
X147084146Y-92359722D01*
X146588908Y-92978770D02*
X146650812Y-93009722D01*
X146650812Y-93009722D02*
X146774622Y-93009722D01*
X146774622Y-93009722D02*
X146836527Y-92978770D01*
X146836527Y-92978770D02*
X146867479Y-92916865D01*
X146867479Y-92916865D02*
X146867479Y-92669246D01*
X146867479Y-92669246D02*
X146836527Y-92607341D01*
X146836527Y-92607341D02*
X146774622Y-92576389D01*
X146774622Y-92576389D02*
X146650812Y-92576389D01*
X146650812Y-92576389D02*
X146588908Y-92607341D01*
X146588908Y-92607341D02*
X146557955Y-92669246D01*
X146557955Y-92669246D02*
X146557955Y-92731150D01*
X146557955Y-92731150D02*
X146867479Y-92793055D01*
X146279384Y-93009722D02*
X146279384Y-92576389D01*
X146279384Y-92638293D02*
X146248431Y-92607341D01*
X146248431Y-92607341D02*
X146186526Y-92576389D01*
X146186526Y-92576389D02*
X146093669Y-92576389D01*
X146093669Y-92576389D02*
X146031765Y-92607341D01*
X146031765Y-92607341D02*
X146000812Y-92669246D01*
X146000812Y-92669246D02*
X146000812Y-93009722D01*
X146000812Y-92669246D02*
X145969860Y-92607341D01*
X145969860Y-92607341D02*
X145907955Y-92576389D01*
X145907955Y-92576389D02*
X145815098Y-92576389D01*
X145815098Y-92576389D02*
X145753193Y-92607341D01*
X145753193Y-92607341D02*
X145722241Y-92669246D01*
X145722241Y-92669246D02*
X145722241Y-93009722D01*
X145134145Y-93009722D02*
X145134145Y-92669246D01*
X145134145Y-92669246D02*
X145165098Y-92607341D01*
X145165098Y-92607341D02*
X145227002Y-92576389D01*
X145227002Y-92576389D02*
X145350812Y-92576389D01*
X145350812Y-92576389D02*
X145412717Y-92607341D01*
X145134145Y-92978770D02*
X145196050Y-93009722D01*
X145196050Y-93009722D02*
X145350812Y-93009722D01*
X145350812Y-93009722D02*
X145412717Y-92978770D01*
X145412717Y-92978770D02*
X145443669Y-92916865D01*
X145443669Y-92916865D02*
X145443669Y-92854960D01*
X145443669Y-92854960D02*
X145412717Y-92793055D01*
X145412717Y-92793055D02*
X145350812Y-92762103D01*
X145350812Y-92762103D02*
X145196050Y-92762103D01*
X145196050Y-92762103D02*
X145134145Y-92731150D01*
X144731764Y-93009722D02*
X144793669Y-92978770D01*
X144793669Y-92978770D02*
X144824622Y-92916865D01*
X144824622Y-92916865D02*
X144824622Y-92359722D01*
X144236527Y-92978770D02*
X144298431Y-93009722D01*
X144298431Y-93009722D02*
X144422241Y-93009722D01*
X144422241Y-93009722D02*
X144484146Y-92978770D01*
X144484146Y-92978770D02*
X144515098Y-92916865D01*
X144515098Y-92916865D02*
X144515098Y-92669246D01*
X144515098Y-92669246D02*
X144484146Y-92607341D01*
X144484146Y-92607341D02*
X144422241Y-92576389D01*
X144422241Y-92576389D02*
X144298431Y-92576389D01*
X144298431Y-92576389D02*
X144236527Y-92607341D01*
X144236527Y-92607341D02*
X144205574Y-92669246D01*
X144205574Y-92669246D02*
X144205574Y-92731150D01*
X144205574Y-92731150D02*
X144515098Y-92793055D01*
X143431765Y-92669246D02*
X143215098Y-92669246D01*
X143122241Y-93009722D02*
X143431765Y-93009722D01*
X143431765Y-93009722D02*
X143431765Y-92359722D01*
X143431765Y-92359722D02*
X143122241Y-92359722D01*
X142905574Y-93009722D02*
X142565098Y-92576389D01*
X142905574Y-92576389D02*
X142565098Y-93009722D01*
X142317480Y-92576389D02*
X142317480Y-93226389D01*
X142317480Y-92607341D02*
X142255575Y-92576389D01*
X142255575Y-92576389D02*
X142131765Y-92576389D01*
X142131765Y-92576389D02*
X142069861Y-92607341D01*
X142069861Y-92607341D02*
X142038908Y-92638293D01*
X142038908Y-92638293D02*
X142007956Y-92700198D01*
X142007956Y-92700198D02*
X142007956Y-92885912D01*
X142007956Y-92885912D02*
X142038908Y-92947817D01*
X142038908Y-92947817D02*
X142069861Y-92978770D01*
X142069861Y-92978770D02*
X142131765Y-93009722D01*
X142131765Y-93009722D02*
X142255575Y-93009722D01*
X142255575Y-93009722D02*
X142317480Y-92978770D01*
X141450813Y-93009722D02*
X141450813Y-92669246D01*
X141450813Y-92669246D02*
X141481766Y-92607341D01*
X141481766Y-92607341D02*
X141543670Y-92576389D01*
X141543670Y-92576389D02*
X141667480Y-92576389D01*
X141667480Y-92576389D02*
X141729385Y-92607341D01*
X141450813Y-92978770D02*
X141512718Y-93009722D01*
X141512718Y-93009722D02*
X141667480Y-93009722D01*
X141667480Y-93009722D02*
X141729385Y-92978770D01*
X141729385Y-92978770D02*
X141760337Y-92916865D01*
X141760337Y-92916865D02*
X141760337Y-92854960D01*
X141760337Y-92854960D02*
X141729385Y-92793055D01*
X141729385Y-92793055D02*
X141667480Y-92762103D01*
X141667480Y-92762103D02*
X141512718Y-92762103D01*
X141512718Y-92762103D02*
X141450813Y-92731150D01*
X141141290Y-92576389D02*
X141141290Y-93009722D01*
X141141290Y-92638293D02*
X141110337Y-92607341D01*
X141110337Y-92607341D02*
X141048432Y-92576389D01*
X141048432Y-92576389D02*
X140955575Y-92576389D01*
X140955575Y-92576389D02*
X140893671Y-92607341D01*
X140893671Y-92607341D02*
X140862718Y-92669246D01*
X140862718Y-92669246D02*
X140862718Y-93009722D01*
X140584147Y-92978770D02*
X140522242Y-93009722D01*
X140522242Y-93009722D02*
X140398433Y-93009722D01*
X140398433Y-93009722D02*
X140336528Y-92978770D01*
X140336528Y-92978770D02*
X140305576Y-92916865D01*
X140305576Y-92916865D02*
X140305576Y-92885912D01*
X140305576Y-92885912D02*
X140336528Y-92824008D01*
X140336528Y-92824008D02*
X140398433Y-92793055D01*
X140398433Y-92793055D02*
X140491290Y-92793055D01*
X140491290Y-92793055D02*
X140553195Y-92762103D01*
X140553195Y-92762103D02*
X140584147Y-92700198D01*
X140584147Y-92700198D02*
X140584147Y-92669246D01*
X140584147Y-92669246D02*
X140553195Y-92607341D01*
X140553195Y-92607341D02*
X140491290Y-92576389D01*
X140491290Y-92576389D02*
X140398433Y-92576389D01*
X140398433Y-92576389D02*
X140336528Y-92607341D01*
X140027005Y-93009722D02*
X140027005Y-92576389D01*
X140027005Y-92359722D02*
X140057957Y-92390674D01*
X140057957Y-92390674D02*
X140027005Y-92421627D01*
X140027005Y-92421627D02*
X139996052Y-92390674D01*
X139996052Y-92390674D02*
X140027005Y-92359722D01*
X140027005Y-92359722D02*
X140027005Y-92421627D01*
X139624623Y-93009722D02*
X139686528Y-92978770D01*
X139686528Y-92978770D02*
X139717481Y-92947817D01*
X139717481Y-92947817D02*
X139748433Y-92885912D01*
X139748433Y-92885912D02*
X139748433Y-92700198D01*
X139748433Y-92700198D02*
X139717481Y-92638293D01*
X139717481Y-92638293D02*
X139686528Y-92607341D01*
X139686528Y-92607341D02*
X139624623Y-92576389D01*
X139624623Y-92576389D02*
X139531766Y-92576389D01*
X139531766Y-92576389D02*
X139469862Y-92607341D01*
X139469862Y-92607341D02*
X139438909Y-92638293D01*
X139438909Y-92638293D02*
X139407957Y-92700198D01*
X139407957Y-92700198D02*
X139407957Y-92885912D01*
X139407957Y-92885912D02*
X139438909Y-92947817D01*
X139438909Y-92947817D02*
X139469862Y-92978770D01*
X139469862Y-92978770D02*
X139531766Y-93009722D01*
X139531766Y-93009722D02*
X139624623Y-93009722D01*
X139129386Y-92576389D02*
X139129386Y-93009722D01*
X139129386Y-92638293D02*
X139098433Y-92607341D01*
X139098433Y-92607341D02*
X139036528Y-92576389D01*
X139036528Y-92576389D02*
X138943671Y-92576389D01*
X138943671Y-92576389D02*
X138881767Y-92607341D01*
X138881767Y-92607341D02*
X138850814Y-92669246D01*
X138850814Y-92669246D02*
X138850814Y-93009722D01*
D11*
X136642481Y-94476515D02*
X137099624Y-94476515D01*
X136871052Y-94476515D02*
X136871052Y-93676515D01*
X136871052Y-93676515D02*
X136947243Y-93790800D01*
X136947243Y-93790800D02*
X137023433Y-93866991D01*
X137023433Y-93866991D02*
X137099624Y-93905086D01*
X136147242Y-93676515D02*
X136071052Y-93676515D01*
X136071052Y-93676515D02*
X135994861Y-93714610D01*
X135994861Y-93714610D02*
X135956766Y-93752705D01*
X135956766Y-93752705D02*
X135918671Y-93828896D01*
X135918671Y-93828896D02*
X135880576Y-93981277D01*
X135880576Y-93981277D02*
X135880576Y-94171753D01*
X135880576Y-94171753D02*
X135918671Y-94324134D01*
X135918671Y-94324134D02*
X135956766Y-94400324D01*
X135956766Y-94400324D02*
X135994861Y-94438420D01*
X135994861Y-94438420D02*
X136071052Y-94476515D01*
X136071052Y-94476515D02*
X136147242Y-94476515D01*
X136147242Y-94476515D02*
X136223433Y-94438420D01*
X136223433Y-94438420D02*
X136261528Y-94400324D01*
X136261528Y-94400324D02*
X136299623Y-94324134D01*
X136299623Y-94324134D02*
X136337719Y-94171753D01*
X136337719Y-94171753D02*
X136337719Y-93981277D01*
X136337719Y-93981277D02*
X136299623Y-93828896D01*
X136299623Y-93828896D02*
X136261528Y-93752705D01*
X136261528Y-93752705D02*
X136223433Y-93714610D01*
X136223433Y-93714610D02*
X136147242Y-93676515D01*
X153701528Y-98216515D02*
X154158671Y-98216515D01*
X153930099Y-98216515D02*
X153930099Y-97416515D01*
X153930099Y-97416515D02*
X154006290Y-97530800D01*
X154006290Y-97530800D02*
X154082480Y-97606991D01*
X154082480Y-97606991D02*
X154158671Y-97645086D01*
D10*
X170437197Y-101944677D02*
X170746721Y-102161344D01*
X170437197Y-102316106D02*
X171087197Y-102316106D01*
X171087197Y-102316106D02*
X171087197Y-102068487D01*
X171087197Y-102068487D02*
X171056245Y-102006582D01*
X171056245Y-102006582D02*
X171025292Y-101975629D01*
X171025292Y-101975629D02*
X170963388Y-101944677D01*
X170963388Y-101944677D02*
X170870530Y-101944677D01*
X170870530Y-101944677D02*
X170808626Y-101975629D01*
X170808626Y-101975629D02*
X170777673Y-102006582D01*
X170777673Y-102006582D02*
X170746721Y-102068487D01*
X170746721Y-102068487D02*
X170746721Y-102316106D01*
X170437197Y-101325629D02*
X170437197Y-101697058D01*
X170437197Y-101511344D02*
X171087197Y-101511344D01*
X171087197Y-101511344D02*
X170994340Y-101573248D01*
X170994340Y-101573248D02*
X170932435Y-101635153D01*
X170932435Y-101635153D02*
X170901483Y-101697058D01*
X171087197Y-100923248D02*
X171087197Y-100861343D01*
X171087197Y-100861343D02*
X171056245Y-100799439D01*
X171056245Y-100799439D02*
X171025292Y-100768486D01*
X171025292Y-100768486D02*
X170963388Y-100737534D01*
X170963388Y-100737534D02*
X170839578Y-100706581D01*
X170839578Y-100706581D02*
X170684816Y-100706581D01*
X170684816Y-100706581D02*
X170561007Y-100737534D01*
X170561007Y-100737534D02*
X170499102Y-100768486D01*
X170499102Y-100768486D02*
X170468150Y-100799439D01*
X170468150Y-100799439D02*
X170437197Y-100861343D01*
X170437197Y-100861343D02*
X170437197Y-100923248D01*
X170437197Y-100923248D02*
X170468150Y-100985153D01*
X170468150Y-100985153D02*
X170499102Y-101016105D01*
X170499102Y-101016105D02*
X170561007Y-101047058D01*
X170561007Y-101047058D02*
X170684816Y-101078010D01*
X170684816Y-101078010D02*
X170839578Y-101078010D01*
X170839578Y-101078010D02*
X170963388Y-101047058D01*
X170963388Y-101047058D02*
X171025292Y-101016105D01*
X171025292Y-101016105D02*
X171056245Y-100985153D01*
X171056245Y-100985153D02*
X171087197Y-100923248D01*
X121897304Y-108908898D02*
X122265647Y-109191537D01*
X122265647Y-109191537D02*
X122358158Y-109223509D01*
X122358158Y-109223509D02*
X122444956Y-109212082D01*
X122444956Y-109212082D02*
X122526040Y-109157256D01*
X122526040Y-109157256D02*
X122563725Y-109108143D01*
X121711188Y-109507363D02*
X122054974Y-109771160D01*
X121608952Y-109233842D02*
X122071507Y-109393700D01*
X122071507Y-109393700D02*
X121826553Y-109712930D01*
X148383002Y-91250153D02*
X148847288Y-91250153D01*
X148847288Y-91250153D02*
X148940145Y-91219200D01*
X148940145Y-91219200D02*
X149002050Y-91157296D01*
X149002050Y-91157296D02*
X149033002Y-91064438D01*
X149033002Y-91064438D02*
X149033002Y-91002534D01*
X149033002Y-91590629D02*
X149033002Y-91714438D01*
X149033002Y-91714438D02*
X149002050Y-91776343D01*
X149002050Y-91776343D02*
X148971097Y-91807295D01*
X148971097Y-91807295D02*
X148878240Y-91869200D01*
X148878240Y-91869200D02*
X148754430Y-91900153D01*
X148754430Y-91900153D02*
X148506811Y-91900153D01*
X148506811Y-91900153D02*
X148444907Y-91869200D01*
X148444907Y-91869200D02*
X148413954Y-91838248D01*
X148413954Y-91838248D02*
X148383002Y-91776343D01*
X148383002Y-91776343D02*
X148383002Y-91652534D01*
X148383002Y-91652534D02*
X148413954Y-91590629D01*
X148413954Y-91590629D02*
X148444907Y-91559676D01*
X148444907Y-91559676D02*
X148506811Y-91528724D01*
X148506811Y-91528724D02*
X148661573Y-91528724D01*
X148661573Y-91528724D02*
X148723478Y-91559676D01*
X148723478Y-91559676D02*
X148754430Y-91590629D01*
X148754430Y-91590629D02*
X148785383Y-91652534D01*
X148785383Y-91652534D02*
X148785383Y-91776343D01*
X148785383Y-91776343D02*
X148754430Y-91838248D01*
X148754430Y-91838248D02*
X148723478Y-91869200D01*
X148723478Y-91869200D02*
X148661573Y-91900153D01*
X138191121Y-124493196D02*
X138148839Y-124504525D01*
X138148839Y-124504525D02*
X138075605Y-124569466D01*
X138075605Y-124569466D02*
X138044653Y-124623077D01*
X138044653Y-124623077D02*
X138025030Y-124718970D01*
X138025030Y-124718970D02*
X138047688Y-124803533D01*
X138047688Y-124803533D02*
X138085823Y-124861291D01*
X138085823Y-124861291D02*
X138177569Y-124950001D01*
X138177569Y-124950001D02*
X138257986Y-124996430D01*
X138257986Y-124996430D02*
X138380684Y-125031529D01*
X138380684Y-125031529D02*
X138449772Y-125035676D01*
X138449772Y-125035676D02*
X138534335Y-125013017D01*
X138534335Y-125013017D02*
X138607569Y-124948077D01*
X138607569Y-124948077D02*
X138638522Y-124894466D01*
X138638522Y-124894466D02*
X138658145Y-124798573D01*
X138658145Y-124798573D02*
X138646815Y-124756291D01*
X138770625Y-124541847D02*
X138812907Y-124530517D01*
X138812907Y-124530517D02*
X138870664Y-124492383D01*
X138870664Y-124492383D02*
X138948045Y-124358355D01*
X138948045Y-124358355D02*
X138952192Y-124289267D01*
X138952192Y-124289267D02*
X138940863Y-124246986D01*
X138940863Y-124246986D02*
X138902728Y-124189228D01*
X138902728Y-124189228D02*
X138849117Y-124158275D01*
X138849117Y-124158275D02*
X138753224Y-124138652D01*
X138753224Y-124138652D02*
X138245843Y-124274605D01*
X138245843Y-124274605D02*
X138447034Y-123926133D01*
X139118284Y-124063493D02*
X139334950Y-123688216D01*
X139334950Y-123688216D02*
X138632748Y-123604466D01*
X136637954Y-92526254D02*
X136962954Y-93089170D01*
X136962954Y-93089170D02*
X136918450Y-92578754D01*
X136918450Y-92578754D02*
X137338232Y-92872503D01*
X137338232Y-92872503D02*
X137013232Y-92309587D01*
X137548529Y-92679607D02*
X137590811Y-92690936D01*
X137590811Y-92690936D02*
X137659898Y-92686789D01*
X137659898Y-92686789D02*
X137793926Y-92609408D01*
X137793926Y-92609408D02*
X137832061Y-92551650D01*
X137832061Y-92551650D02*
X137843390Y-92509369D01*
X137843390Y-92509369D02*
X137839244Y-92440281D01*
X137839244Y-92440281D02*
X137808291Y-92386670D01*
X137808291Y-92386670D02*
X137735057Y-92321730D01*
X137735057Y-92321730D02*
X137227676Y-92185778D01*
X137227676Y-92185778D02*
X137576148Y-91984587D01*
D12*
X165892846Y-115598962D02*
X165583322Y-115382295D01*
X165892846Y-115227533D02*
X165242846Y-115227533D01*
X165242846Y-115227533D02*
X165242846Y-115475152D01*
X165242846Y-115475152D02*
X165273798Y-115537057D01*
X165273798Y-115537057D02*
X165304751Y-115568010D01*
X165304751Y-115568010D02*
X165366655Y-115598962D01*
X165366655Y-115598962D02*
X165459513Y-115598962D01*
X165459513Y-115598962D02*
X165521417Y-115568010D01*
X165521417Y-115568010D02*
X165552370Y-115537057D01*
X165552370Y-115537057D02*
X165583322Y-115475152D01*
X165583322Y-115475152D02*
X165583322Y-115227533D01*
X165892846Y-116218010D02*
X165892846Y-115846581D01*
X165892846Y-116032295D02*
X165242846Y-116032295D01*
X165242846Y-116032295D02*
X165335703Y-115970391D01*
X165335703Y-115970391D02*
X165397608Y-115908486D01*
X165397608Y-115908486D02*
X165428560Y-115846581D01*
X165242846Y-116434677D02*
X165242846Y-116868010D01*
X165242846Y-116868010D02*
X165892846Y-116589439D01*
D10*
X161327957Y-108867817D02*
X161358909Y-108898770D01*
X161358909Y-108898770D02*
X161451767Y-108929722D01*
X161451767Y-108929722D02*
X161513671Y-108929722D01*
X161513671Y-108929722D02*
X161606528Y-108898770D01*
X161606528Y-108898770D02*
X161668433Y-108836865D01*
X161668433Y-108836865D02*
X161699386Y-108774960D01*
X161699386Y-108774960D02*
X161730338Y-108651150D01*
X161730338Y-108651150D02*
X161730338Y-108558293D01*
X161730338Y-108558293D02*
X161699386Y-108434484D01*
X161699386Y-108434484D02*
X161668433Y-108372579D01*
X161668433Y-108372579D02*
X161606528Y-108310674D01*
X161606528Y-108310674D02*
X161513671Y-108279722D01*
X161513671Y-108279722D02*
X161451767Y-108279722D01*
X161451767Y-108279722D02*
X161358909Y-108310674D01*
X161358909Y-108310674D02*
X161327957Y-108341627D01*
X161080338Y-108341627D02*
X161049386Y-108310674D01*
X161049386Y-108310674D02*
X160987481Y-108279722D01*
X160987481Y-108279722D02*
X160832719Y-108279722D01*
X160832719Y-108279722D02*
X160770814Y-108310674D01*
X160770814Y-108310674D02*
X160739862Y-108341627D01*
X160739862Y-108341627D02*
X160708909Y-108403531D01*
X160708909Y-108403531D02*
X160708909Y-108465436D01*
X160708909Y-108465436D02*
X160739862Y-108558293D01*
X160739862Y-108558293D02*
X161111290Y-108929722D01*
X161111290Y-108929722D02*
X160708909Y-108929722D01*
X160089861Y-108929722D02*
X160461290Y-108929722D01*
X160275576Y-108929722D02*
X160275576Y-108279722D01*
X160275576Y-108279722D02*
X160337480Y-108372579D01*
X160337480Y-108372579D02*
X160399385Y-108434484D01*
X160399385Y-108434484D02*
X160461290Y-108465436D01*
X170467197Y-103255153D02*
X170776721Y-103471820D01*
X170467197Y-103626582D02*
X171117197Y-103626582D01*
X171117197Y-103626582D02*
X171117197Y-103378963D01*
X171117197Y-103378963D02*
X171086245Y-103317058D01*
X171086245Y-103317058D02*
X171055292Y-103286105D01*
X171055292Y-103286105D02*
X170993388Y-103255153D01*
X170993388Y-103255153D02*
X170900530Y-103255153D01*
X170900530Y-103255153D02*
X170838626Y-103286105D01*
X170838626Y-103286105D02*
X170807673Y-103317058D01*
X170807673Y-103317058D02*
X170776721Y-103378963D01*
X170776721Y-103378963D02*
X170776721Y-103626582D01*
X170467197Y-102945629D02*
X170467197Y-102821820D01*
X170467197Y-102821820D02*
X170498150Y-102759915D01*
X170498150Y-102759915D02*
X170529102Y-102728963D01*
X170529102Y-102728963D02*
X170621959Y-102667058D01*
X170621959Y-102667058D02*
X170745769Y-102636105D01*
X170745769Y-102636105D02*
X170993388Y-102636105D01*
X170993388Y-102636105D02*
X171055292Y-102667058D01*
X171055292Y-102667058D02*
X171086245Y-102698010D01*
X171086245Y-102698010D02*
X171117197Y-102759915D01*
X171117197Y-102759915D02*
X171117197Y-102883724D01*
X171117197Y-102883724D02*
X171086245Y-102945629D01*
X171086245Y-102945629D02*
X171055292Y-102976582D01*
X171055292Y-102976582D02*
X170993388Y-103007534D01*
X170993388Y-103007534D02*
X170838626Y-103007534D01*
X170838626Y-103007534D02*
X170776721Y-102976582D01*
X170776721Y-102976582D02*
X170745769Y-102945629D01*
X170745769Y-102945629D02*
X170714816Y-102883724D01*
X170714816Y-102883724D02*
X170714816Y-102759915D01*
X170714816Y-102759915D02*
X170745769Y-102698010D01*
X170745769Y-102698010D02*
X170776721Y-102667058D01*
X170776721Y-102667058D02*
X170838626Y-102636105D01*
X126246290Y-104859722D02*
X126246290Y-105324008D01*
X126246290Y-105324008D02*
X126277243Y-105416865D01*
X126277243Y-105416865D02*
X126339147Y-105478770D01*
X126339147Y-105478770D02*
X126432005Y-105509722D01*
X126432005Y-105509722D02*
X126493909Y-105509722D01*
X125596290Y-105509722D02*
X125967719Y-105509722D01*
X125782005Y-105509722D02*
X125782005Y-104859722D01*
X125782005Y-104859722D02*
X125843909Y-104952579D01*
X125843909Y-104952579D02*
X125905814Y-105014484D01*
X125905814Y-105014484D02*
X125967719Y-105045436D01*
X125008195Y-104859722D02*
X125317719Y-104859722D01*
X125317719Y-104859722D02*
X125348671Y-105169246D01*
X125348671Y-105169246D02*
X125317719Y-105138293D01*
X125317719Y-105138293D02*
X125255814Y-105107341D01*
X125255814Y-105107341D02*
X125101052Y-105107341D01*
X125101052Y-105107341D02*
X125039147Y-105138293D01*
X125039147Y-105138293D02*
X125008195Y-105169246D01*
X125008195Y-105169246D02*
X124977242Y-105231150D01*
X124977242Y-105231150D02*
X124977242Y-105385912D01*
X124977242Y-105385912D02*
X125008195Y-105447817D01*
X125008195Y-105447817D02*
X125039147Y-105478770D01*
X125039147Y-105478770D02*
X125101052Y-105509722D01*
X125101052Y-105509722D02*
X125255814Y-105509722D01*
X125255814Y-105509722D02*
X125317719Y-105478770D01*
X125317719Y-105478770D02*
X125348671Y-105447817D01*
X154422245Y-121407385D02*
X154097245Y-120844469D01*
X154097245Y-120844469D02*
X154141749Y-121354885D01*
X154141749Y-121354885D02*
X153721967Y-121061136D01*
X153721967Y-121061136D02*
X154046967Y-121624052D01*
X153320995Y-121542822D02*
X153537662Y-121918100D01*
X153331213Y-121250997D02*
X153697384Y-121575699D01*
X153697384Y-121575699D02*
X153348912Y-121776889D01*
X161017197Y-98926582D02*
X161667197Y-98926582D01*
X161667197Y-98926582D02*
X161667197Y-98771820D01*
X161667197Y-98771820D02*
X161636245Y-98678963D01*
X161636245Y-98678963D02*
X161574340Y-98617058D01*
X161574340Y-98617058D02*
X161512435Y-98586105D01*
X161512435Y-98586105D02*
X161388626Y-98555153D01*
X161388626Y-98555153D02*
X161295769Y-98555153D01*
X161295769Y-98555153D02*
X161171959Y-98586105D01*
X161171959Y-98586105D02*
X161110054Y-98617058D01*
X161110054Y-98617058D02*
X161048150Y-98678963D01*
X161048150Y-98678963D02*
X161017197Y-98771820D01*
X161017197Y-98771820D02*
X161017197Y-98926582D01*
X161667197Y-98338486D02*
X161667197Y-97936105D01*
X161667197Y-97936105D02*
X161419578Y-98152772D01*
X161419578Y-98152772D02*
X161419578Y-98059915D01*
X161419578Y-98059915D02*
X161388626Y-97998010D01*
X161388626Y-97998010D02*
X161357673Y-97967058D01*
X161357673Y-97967058D02*
X161295769Y-97936105D01*
X161295769Y-97936105D02*
X161141007Y-97936105D01*
X161141007Y-97936105D02*
X161079102Y-97967058D01*
X161079102Y-97967058D02*
X161048150Y-97998010D01*
X161048150Y-97998010D02*
X161017197Y-98059915D01*
X161017197Y-98059915D02*
X161017197Y-98245629D01*
X161017197Y-98245629D02*
X161048150Y-98307534D01*
X161048150Y-98307534D02*
X161079102Y-98338486D01*
X151836955Y-116357817D02*
X151867907Y-116388770D01*
X151867907Y-116388770D02*
X151960765Y-116419722D01*
X151960765Y-116419722D02*
X152022669Y-116419722D01*
X152022669Y-116419722D02*
X152115526Y-116388770D01*
X152115526Y-116388770D02*
X152177431Y-116326865D01*
X152177431Y-116326865D02*
X152208384Y-116264960D01*
X152208384Y-116264960D02*
X152239336Y-116141150D01*
X152239336Y-116141150D02*
X152239336Y-116048293D01*
X152239336Y-116048293D02*
X152208384Y-115924484D01*
X152208384Y-115924484D02*
X152177431Y-115862579D01*
X152177431Y-115862579D02*
X152115526Y-115800674D01*
X152115526Y-115800674D02*
X152022669Y-115769722D01*
X152022669Y-115769722D02*
X151960765Y-115769722D01*
X151960765Y-115769722D02*
X151867907Y-115800674D01*
X151867907Y-115800674D02*
X151836955Y-115831627D01*
X151558384Y-116419722D02*
X151558384Y-115986389D01*
X151558384Y-116110198D02*
X151527431Y-116048293D01*
X151527431Y-116048293D02*
X151496479Y-116017341D01*
X151496479Y-116017341D02*
X151434574Y-115986389D01*
X151434574Y-115986389D02*
X151372669Y-115986389D01*
X150877431Y-116419722D02*
X150877431Y-116079246D01*
X150877431Y-116079246D02*
X150908384Y-116017341D01*
X150908384Y-116017341D02*
X150970288Y-115986389D01*
X150970288Y-115986389D02*
X151094098Y-115986389D01*
X151094098Y-115986389D02*
X151156003Y-116017341D01*
X150877431Y-116388770D02*
X150939336Y-116419722D01*
X150939336Y-116419722D02*
X151094098Y-116419722D01*
X151094098Y-116419722D02*
X151156003Y-116388770D01*
X151156003Y-116388770D02*
X151186955Y-116326865D01*
X151186955Y-116326865D02*
X151186955Y-116264960D01*
X151186955Y-116264960D02*
X151156003Y-116203055D01*
X151156003Y-116203055D02*
X151094098Y-116172103D01*
X151094098Y-116172103D02*
X150939336Y-116172103D01*
X150939336Y-116172103D02*
X150877431Y-116141150D01*
X150629812Y-115986389D02*
X150289336Y-115986389D01*
X150289336Y-115986389D02*
X150629812Y-116419722D01*
X150629812Y-116419722D02*
X150289336Y-116419722D01*
X150103622Y-115986389D02*
X149948860Y-116419722D01*
X149794099Y-115986389D02*
X149948860Y-116419722D01*
X149948860Y-116419722D02*
X150010765Y-116574484D01*
X150010765Y-116574484D02*
X150041718Y-116605436D01*
X150041718Y-116605436D02*
X150103622Y-116636389D01*
X149639337Y-115986389D02*
X149391718Y-115986389D01*
X149546480Y-116419722D02*
X149546480Y-115862579D01*
X149546480Y-115862579D02*
X149515527Y-115800674D01*
X149515527Y-115800674D02*
X149453622Y-115769722D01*
X149453622Y-115769722D02*
X149391718Y-115769722D01*
X149082193Y-116419722D02*
X149144098Y-116388770D01*
X149144098Y-116388770D02*
X149175051Y-116326865D01*
X149175051Y-116326865D02*
X149175051Y-115769722D01*
X148834575Y-116419722D02*
X148834575Y-115986389D01*
X148834575Y-115769722D02*
X148865527Y-115800674D01*
X148865527Y-115800674D02*
X148834575Y-115831627D01*
X148834575Y-115831627D02*
X148803622Y-115800674D01*
X148803622Y-115800674D02*
X148834575Y-115769722D01*
X148834575Y-115769722D02*
X148834575Y-115831627D01*
X148277432Y-116388770D02*
X148339336Y-116419722D01*
X148339336Y-116419722D02*
X148463146Y-116419722D01*
X148463146Y-116419722D02*
X148525051Y-116388770D01*
X148525051Y-116388770D02*
X148556003Y-116326865D01*
X148556003Y-116326865D02*
X148556003Y-116079246D01*
X148556003Y-116079246D02*
X148525051Y-116017341D01*
X148525051Y-116017341D02*
X148463146Y-115986389D01*
X148463146Y-115986389D02*
X148339336Y-115986389D01*
X148339336Y-115986389D02*
X148277432Y-116017341D01*
X148277432Y-116017341D02*
X148246479Y-116079246D01*
X148246479Y-116079246D02*
X148246479Y-116141150D01*
X148246479Y-116141150D02*
X148556003Y-116203055D01*
X147256003Y-116079246D02*
X147472670Y-116079246D01*
X147472670Y-116419722D02*
X147472670Y-115769722D01*
X147472670Y-115769722D02*
X147163146Y-115769722D01*
X146667908Y-116388770D02*
X146729812Y-116419722D01*
X146729812Y-116419722D02*
X146853622Y-116419722D01*
X146853622Y-116419722D02*
X146915527Y-116388770D01*
X146915527Y-116388770D02*
X146946479Y-116326865D01*
X146946479Y-116326865D02*
X146946479Y-116079246D01*
X146946479Y-116079246D02*
X146915527Y-116017341D01*
X146915527Y-116017341D02*
X146853622Y-115986389D01*
X146853622Y-115986389D02*
X146729812Y-115986389D01*
X146729812Y-115986389D02*
X146667908Y-116017341D01*
X146667908Y-116017341D02*
X146636955Y-116079246D01*
X146636955Y-116079246D02*
X146636955Y-116141150D01*
X146636955Y-116141150D02*
X146946479Y-116203055D01*
X146358384Y-116419722D02*
X146358384Y-115986389D01*
X146358384Y-116048293D02*
X146327431Y-116017341D01*
X146327431Y-116017341D02*
X146265526Y-115986389D01*
X146265526Y-115986389D02*
X146172669Y-115986389D01*
X146172669Y-115986389D02*
X146110765Y-116017341D01*
X146110765Y-116017341D02*
X146079812Y-116079246D01*
X146079812Y-116079246D02*
X146079812Y-116419722D01*
X146079812Y-116079246D02*
X146048860Y-116017341D01*
X146048860Y-116017341D02*
X145986955Y-115986389D01*
X145986955Y-115986389D02*
X145894098Y-115986389D01*
X145894098Y-115986389D02*
X145832193Y-116017341D01*
X145832193Y-116017341D02*
X145801241Y-116079246D01*
X145801241Y-116079246D02*
X145801241Y-116419722D01*
X145213145Y-116419722D02*
X145213145Y-116079246D01*
X145213145Y-116079246D02*
X145244098Y-116017341D01*
X145244098Y-116017341D02*
X145306002Y-115986389D01*
X145306002Y-115986389D02*
X145429812Y-115986389D01*
X145429812Y-115986389D02*
X145491717Y-116017341D01*
X145213145Y-116388770D02*
X145275050Y-116419722D01*
X145275050Y-116419722D02*
X145429812Y-116419722D01*
X145429812Y-116419722D02*
X145491717Y-116388770D01*
X145491717Y-116388770D02*
X145522669Y-116326865D01*
X145522669Y-116326865D02*
X145522669Y-116264960D01*
X145522669Y-116264960D02*
X145491717Y-116203055D01*
X145491717Y-116203055D02*
X145429812Y-116172103D01*
X145429812Y-116172103D02*
X145275050Y-116172103D01*
X145275050Y-116172103D02*
X145213145Y-116141150D01*
X144810764Y-116419722D02*
X144872669Y-116388770D01*
X144872669Y-116388770D02*
X144903622Y-116326865D01*
X144903622Y-116326865D02*
X144903622Y-115769722D01*
X144315527Y-116388770D02*
X144377431Y-116419722D01*
X144377431Y-116419722D02*
X144501241Y-116419722D01*
X144501241Y-116419722D02*
X144563146Y-116388770D01*
X144563146Y-116388770D02*
X144594098Y-116326865D01*
X144594098Y-116326865D02*
X144594098Y-116079246D01*
X144594098Y-116079246D02*
X144563146Y-116017341D01*
X144563146Y-116017341D02*
X144501241Y-115986389D01*
X144501241Y-115986389D02*
X144377431Y-115986389D01*
X144377431Y-115986389D02*
X144315527Y-116017341D01*
X144315527Y-116017341D02*
X144284574Y-116079246D01*
X144284574Y-116079246D02*
X144284574Y-116141150D01*
X144284574Y-116141150D02*
X144594098Y-116203055D01*
X143510765Y-116079246D02*
X143294098Y-116079246D01*
X143201241Y-116419722D02*
X143510765Y-116419722D01*
X143510765Y-116419722D02*
X143510765Y-115769722D01*
X143510765Y-115769722D02*
X143201241Y-115769722D01*
X142984574Y-116419722D02*
X142644098Y-115986389D01*
X142984574Y-115986389D02*
X142644098Y-116419722D01*
X142396480Y-115986389D02*
X142396480Y-116636389D01*
X142396480Y-116017341D02*
X142334575Y-115986389D01*
X142334575Y-115986389D02*
X142210765Y-115986389D01*
X142210765Y-115986389D02*
X142148861Y-116017341D01*
X142148861Y-116017341D02*
X142117908Y-116048293D01*
X142117908Y-116048293D02*
X142086956Y-116110198D01*
X142086956Y-116110198D02*
X142086956Y-116295912D01*
X142086956Y-116295912D02*
X142117908Y-116357817D01*
X142117908Y-116357817D02*
X142148861Y-116388770D01*
X142148861Y-116388770D02*
X142210765Y-116419722D01*
X142210765Y-116419722D02*
X142334575Y-116419722D01*
X142334575Y-116419722D02*
X142396480Y-116388770D01*
X141529813Y-116419722D02*
X141529813Y-116079246D01*
X141529813Y-116079246D02*
X141560766Y-116017341D01*
X141560766Y-116017341D02*
X141622670Y-115986389D01*
X141622670Y-115986389D02*
X141746480Y-115986389D01*
X141746480Y-115986389D02*
X141808385Y-116017341D01*
X141529813Y-116388770D02*
X141591718Y-116419722D01*
X141591718Y-116419722D02*
X141746480Y-116419722D01*
X141746480Y-116419722D02*
X141808385Y-116388770D01*
X141808385Y-116388770D02*
X141839337Y-116326865D01*
X141839337Y-116326865D02*
X141839337Y-116264960D01*
X141839337Y-116264960D02*
X141808385Y-116203055D01*
X141808385Y-116203055D02*
X141746480Y-116172103D01*
X141746480Y-116172103D02*
X141591718Y-116172103D01*
X141591718Y-116172103D02*
X141529813Y-116141150D01*
X141220290Y-115986389D02*
X141220290Y-116419722D01*
X141220290Y-116048293D02*
X141189337Y-116017341D01*
X141189337Y-116017341D02*
X141127432Y-115986389D01*
X141127432Y-115986389D02*
X141034575Y-115986389D01*
X141034575Y-115986389D02*
X140972671Y-116017341D01*
X140972671Y-116017341D02*
X140941718Y-116079246D01*
X140941718Y-116079246D02*
X140941718Y-116419722D01*
X140663147Y-116388770D02*
X140601242Y-116419722D01*
X140601242Y-116419722D02*
X140477433Y-116419722D01*
X140477433Y-116419722D02*
X140415528Y-116388770D01*
X140415528Y-116388770D02*
X140384576Y-116326865D01*
X140384576Y-116326865D02*
X140384576Y-116295912D01*
X140384576Y-116295912D02*
X140415528Y-116234008D01*
X140415528Y-116234008D02*
X140477433Y-116203055D01*
X140477433Y-116203055D02*
X140570290Y-116203055D01*
X140570290Y-116203055D02*
X140632195Y-116172103D01*
X140632195Y-116172103D02*
X140663147Y-116110198D01*
X140663147Y-116110198D02*
X140663147Y-116079246D01*
X140663147Y-116079246D02*
X140632195Y-116017341D01*
X140632195Y-116017341D02*
X140570290Y-115986389D01*
X140570290Y-115986389D02*
X140477433Y-115986389D01*
X140477433Y-115986389D02*
X140415528Y-116017341D01*
X140106005Y-116419722D02*
X140106005Y-115986389D01*
X140106005Y-115769722D02*
X140136957Y-115800674D01*
X140136957Y-115800674D02*
X140106005Y-115831627D01*
X140106005Y-115831627D02*
X140075052Y-115800674D01*
X140075052Y-115800674D02*
X140106005Y-115769722D01*
X140106005Y-115769722D02*
X140106005Y-115831627D01*
X139703623Y-116419722D02*
X139765528Y-116388770D01*
X139765528Y-116388770D02*
X139796481Y-116357817D01*
X139796481Y-116357817D02*
X139827433Y-116295912D01*
X139827433Y-116295912D02*
X139827433Y-116110198D01*
X139827433Y-116110198D02*
X139796481Y-116048293D01*
X139796481Y-116048293D02*
X139765528Y-116017341D01*
X139765528Y-116017341D02*
X139703623Y-115986389D01*
X139703623Y-115986389D02*
X139610766Y-115986389D01*
X139610766Y-115986389D02*
X139548862Y-116017341D01*
X139548862Y-116017341D02*
X139517909Y-116048293D01*
X139517909Y-116048293D02*
X139486957Y-116110198D01*
X139486957Y-116110198D02*
X139486957Y-116295912D01*
X139486957Y-116295912D02*
X139517909Y-116357817D01*
X139517909Y-116357817D02*
X139548862Y-116388770D01*
X139548862Y-116388770D02*
X139610766Y-116419722D01*
X139610766Y-116419722D02*
X139703623Y-116419722D01*
X139208386Y-115986389D02*
X139208386Y-116419722D01*
X139208386Y-116048293D02*
X139177433Y-116017341D01*
X139177433Y-116017341D02*
X139115528Y-115986389D01*
X139115528Y-115986389D02*
X139022671Y-115986389D01*
X139022671Y-115986389D02*
X138960767Y-116017341D01*
X138960767Y-116017341D02*
X138929814Y-116079246D01*
X138929814Y-116079246D02*
X138929814Y-116419722D01*
D11*
X136342481Y-116556515D02*
X136799624Y-116556515D01*
X136571052Y-116556515D02*
X136571052Y-115756515D01*
X136571052Y-115756515D02*
X136647243Y-115870800D01*
X136647243Y-115870800D02*
X136723433Y-115946991D01*
X136723433Y-115946991D02*
X136799624Y-115985086D01*
X135847242Y-115756515D02*
X135771052Y-115756515D01*
X135771052Y-115756515D02*
X135694861Y-115794610D01*
X135694861Y-115794610D02*
X135656766Y-115832705D01*
X135656766Y-115832705D02*
X135618671Y-115908896D01*
X135618671Y-115908896D02*
X135580576Y-116061277D01*
X135580576Y-116061277D02*
X135580576Y-116251753D01*
X135580576Y-116251753D02*
X135618671Y-116404134D01*
X135618671Y-116404134D02*
X135656766Y-116480324D01*
X135656766Y-116480324D02*
X135694861Y-116518420D01*
X135694861Y-116518420D02*
X135771052Y-116556515D01*
X135771052Y-116556515D02*
X135847242Y-116556515D01*
X135847242Y-116556515D02*
X135923433Y-116518420D01*
X135923433Y-116518420D02*
X135961528Y-116480324D01*
X135961528Y-116480324D02*
X135999623Y-116404134D01*
X135999623Y-116404134D02*
X136037719Y-116251753D01*
X136037719Y-116251753D02*
X136037719Y-116061277D01*
X136037719Y-116061277D02*
X135999623Y-115908896D01*
X135999623Y-115908896D02*
X135961528Y-115832705D01*
X135961528Y-115832705D02*
X135923433Y-115794610D01*
X135923433Y-115794610D02*
X135847242Y-115756515D01*
X154261528Y-120236515D02*
X154718671Y-120236515D01*
X154490099Y-120236515D02*
X154490099Y-119436515D01*
X154490099Y-119436515D02*
X154566290Y-119550800D01*
X154566290Y-119550800D02*
X154642480Y-119626991D01*
X154642480Y-119626991D02*
X154718671Y-119665086D01*
D10*
X147608376Y-114315391D02*
X147303614Y-114102057D01*
X147608376Y-113949676D02*
X146968376Y-113949676D01*
X146968376Y-113949676D02*
X146968376Y-114193486D01*
X146968376Y-114193486D02*
X146998852Y-114254438D01*
X146998852Y-114254438D02*
X147029328Y-114284915D01*
X147029328Y-114284915D02*
X147090280Y-114315391D01*
X147090280Y-114315391D02*
X147181709Y-114315391D01*
X147181709Y-114315391D02*
X147242661Y-114284915D01*
X147242661Y-114284915D02*
X147273138Y-114254438D01*
X147273138Y-114254438D02*
X147303614Y-114193486D01*
X147303614Y-114193486D02*
X147303614Y-113949676D01*
X147608376Y-114924915D02*
X147608376Y-114559200D01*
X147608376Y-114742057D02*
X146968376Y-114742057D01*
X146968376Y-114742057D02*
X147059804Y-114681105D01*
X147059804Y-114681105D02*
X147120757Y-114620153D01*
X147120757Y-114620153D02*
X147151233Y-114559200D01*
X147608376Y-115229677D02*
X147608376Y-115351581D01*
X147608376Y-115351581D02*
X147577900Y-115412534D01*
X147577900Y-115412534D02*
X147547423Y-115443010D01*
X147547423Y-115443010D02*
X147455995Y-115503962D01*
X147455995Y-115503962D02*
X147334090Y-115534439D01*
X147334090Y-115534439D02*
X147090280Y-115534439D01*
X147090280Y-115534439D02*
X147029328Y-115503962D01*
X147029328Y-115503962D02*
X146998852Y-115473486D01*
X146998852Y-115473486D02*
X146968376Y-115412534D01*
X146968376Y-115412534D02*
X146968376Y-115290629D01*
X146968376Y-115290629D02*
X146998852Y-115229677D01*
X146998852Y-115229677D02*
X147029328Y-115199200D01*
X147029328Y-115199200D02*
X147090280Y-115168724D01*
X147090280Y-115168724D02*
X147242661Y-115168724D01*
X147242661Y-115168724D02*
X147303614Y-115199200D01*
X147303614Y-115199200D02*
X147334090Y-115229677D01*
X147334090Y-115229677D02*
X147364566Y-115290629D01*
X147364566Y-115290629D02*
X147364566Y-115412534D01*
X147364566Y-115412534D02*
X147334090Y-115473486D01*
X147334090Y-115473486D02*
X147303614Y-115503962D01*
X147303614Y-115503962D02*
X147242661Y-115534439D01*
X130128693Y-115227539D02*
X130497036Y-115510178D01*
X130497036Y-115510178D02*
X130589547Y-115542150D01*
X130589547Y-115542150D02*
X130676345Y-115530723D01*
X130676345Y-115530723D02*
X130757429Y-115475897D01*
X130757429Y-115475897D02*
X130795114Y-115426784D01*
X130008222Y-115486230D02*
X129964823Y-115491943D01*
X129964823Y-115491943D02*
X129902582Y-115522213D01*
X129902582Y-115522213D02*
X129808369Y-115644994D01*
X129808369Y-115644994D02*
X129795240Y-115712949D01*
X129795240Y-115712949D02*
X129800953Y-115756348D01*
X129800953Y-115756348D02*
X129831223Y-115818589D01*
X129831223Y-115818589D02*
X129880335Y-115856274D01*
X129880335Y-115856274D02*
X129972847Y-115888246D01*
X129972847Y-115888246D02*
X130493632Y-115819683D01*
X130493632Y-115819683D02*
X130248678Y-116138913D01*
X124147302Y-110408898D02*
X124515645Y-110691537D01*
X124515645Y-110691537D02*
X124608156Y-110723509D01*
X124608156Y-110723509D02*
X124694954Y-110712082D01*
X124694954Y-110712082D02*
X124776038Y-110657256D01*
X124776038Y-110657256D02*
X124813723Y-110608143D01*
X123996561Y-110605347D02*
X123751607Y-110924578D01*
X123751607Y-110924578D02*
X124079955Y-110903425D01*
X124079955Y-110903425D02*
X124023427Y-110977094D01*
X124023427Y-110977094D02*
X124010298Y-111045049D01*
X124010298Y-111045049D02*
X124016012Y-111088447D01*
X124016012Y-111088447D02*
X124046282Y-111150689D01*
X124046282Y-111150689D02*
X124169062Y-111244902D01*
X124169062Y-111244902D02*
X124237017Y-111258031D01*
X124237017Y-111258031D02*
X124280416Y-111252317D01*
X124280416Y-111252317D02*
X124342658Y-111222048D01*
X124342658Y-111222048D02*
X124455713Y-111074711D01*
X124455713Y-111074711D02*
X124468842Y-111006756D01*
X124468842Y-111006756D02*
X124463129Y-110963357D01*
X170647197Y-111724677D02*
X170956721Y-111941344D01*
X170647197Y-112096106D02*
X171297197Y-112096106D01*
X171297197Y-112096106D02*
X171297197Y-111848487D01*
X171297197Y-111848487D02*
X171266245Y-111786582D01*
X171266245Y-111786582D02*
X171235292Y-111755629D01*
X171235292Y-111755629D02*
X171173388Y-111724677D01*
X171173388Y-111724677D02*
X171080530Y-111724677D01*
X171080530Y-111724677D02*
X171018626Y-111755629D01*
X171018626Y-111755629D02*
X170987673Y-111786582D01*
X170987673Y-111786582D02*
X170956721Y-111848487D01*
X170956721Y-111848487D02*
X170956721Y-112096106D01*
X170647197Y-111105629D02*
X170647197Y-111477058D01*
X170647197Y-111291344D02*
X171297197Y-111291344D01*
X171297197Y-111291344D02*
X171204340Y-111353248D01*
X171204340Y-111353248D02*
X171142435Y-111415153D01*
X171142435Y-111415153D02*
X171111483Y-111477058D01*
X171235292Y-110858010D02*
X171266245Y-110827058D01*
X171266245Y-110827058D02*
X171297197Y-110765153D01*
X171297197Y-110765153D02*
X171297197Y-110610391D01*
X171297197Y-110610391D02*
X171266245Y-110548486D01*
X171266245Y-110548486D02*
X171235292Y-110517534D01*
X171235292Y-110517534D02*
X171173388Y-110486581D01*
X171173388Y-110486581D02*
X171111483Y-110486581D01*
X171111483Y-110486581D02*
X171018626Y-110517534D01*
X171018626Y-110517534D02*
X170647197Y-110888962D01*
X170647197Y-110888962D02*
X170647197Y-110486581D01*
X166337197Y-98626582D02*
X166987197Y-98626582D01*
X166987197Y-98626582D02*
X166987197Y-98471820D01*
X166987197Y-98471820D02*
X166956245Y-98378963D01*
X166956245Y-98378963D02*
X166894340Y-98317058D01*
X166894340Y-98317058D02*
X166832435Y-98286105D01*
X166832435Y-98286105D02*
X166708626Y-98255153D01*
X166708626Y-98255153D02*
X166615769Y-98255153D01*
X166615769Y-98255153D02*
X166491959Y-98286105D01*
X166491959Y-98286105D02*
X166430054Y-98317058D01*
X166430054Y-98317058D02*
X166368150Y-98378963D01*
X166368150Y-98378963D02*
X166337197Y-98471820D01*
X166337197Y-98471820D02*
X166337197Y-98626582D01*
X166987197Y-97667058D02*
X166987197Y-97976582D01*
X166987197Y-97976582D02*
X166677673Y-98007534D01*
X166677673Y-98007534D02*
X166708626Y-97976582D01*
X166708626Y-97976582D02*
X166739578Y-97914677D01*
X166739578Y-97914677D02*
X166739578Y-97759915D01*
X166739578Y-97759915D02*
X166708626Y-97698010D01*
X166708626Y-97698010D02*
X166677673Y-97667058D01*
X166677673Y-97667058D02*
X166615769Y-97636105D01*
X166615769Y-97636105D02*
X166461007Y-97636105D01*
X166461007Y-97636105D02*
X166399102Y-97667058D01*
X166399102Y-97667058D02*
X166368150Y-97698010D01*
X166368150Y-97698010D02*
X166337197Y-97759915D01*
X166337197Y-97759915D02*
X166337197Y-97914677D01*
X166337197Y-97914677D02*
X166368150Y-97976582D01*
X166368150Y-97976582D02*
X166399102Y-98007534D01*
D12*
X162882846Y-115608962D02*
X162573322Y-115392295D01*
X162882846Y-115237533D02*
X162232846Y-115237533D01*
X162232846Y-115237533D02*
X162232846Y-115485152D01*
X162232846Y-115485152D02*
X162263798Y-115547057D01*
X162263798Y-115547057D02*
X162294751Y-115578010D01*
X162294751Y-115578010D02*
X162356655Y-115608962D01*
X162356655Y-115608962D02*
X162449513Y-115608962D01*
X162449513Y-115608962D02*
X162511417Y-115578010D01*
X162511417Y-115578010D02*
X162542370Y-115547057D01*
X162542370Y-115547057D02*
X162573322Y-115485152D01*
X162573322Y-115485152D02*
X162573322Y-115237533D01*
X162882846Y-116228010D02*
X162882846Y-115856581D01*
X162882846Y-116042295D02*
X162232846Y-116042295D01*
X162232846Y-116042295D02*
X162325703Y-115980391D01*
X162325703Y-115980391D02*
X162387608Y-115918486D01*
X162387608Y-115918486D02*
X162418560Y-115856581D01*
X162449513Y-116785153D02*
X162882846Y-116785153D01*
X162201894Y-116630391D02*
X162666179Y-116475629D01*
X162666179Y-116475629D02*
X162666179Y-116878010D01*
D10*
X150853002Y-91340153D02*
X151317288Y-91340153D01*
X151317288Y-91340153D02*
X151410145Y-91309200D01*
X151410145Y-91309200D02*
X151472050Y-91247296D01*
X151472050Y-91247296D02*
X151503002Y-91154438D01*
X151503002Y-91154438D02*
X151503002Y-91092534D01*
X150853002Y-91928248D02*
X150853002Y-91804438D01*
X150853002Y-91804438D02*
X150883954Y-91742534D01*
X150883954Y-91742534D02*
X150914907Y-91711581D01*
X150914907Y-91711581D02*
X151007764Y-91649676D01*
X151007764Y-91649676D02*
X151131573Y-91618724D01*
X151131573Y-91618724D02*
X151379192Y-91618724D01*
X151379192Y-91618724D02*
X151441097Y-91649676D01*
X151441097Y-91649676D02*
X151472050Y-91680629D01*
X151472050Y-91680629D02*
X151503002Y-91742534D01*
X151503002Y-91742534D02*
X151503002Y-91866343D01*
X151503002Y-91866343D02*
X151472050Y-91928248D01*
X151472050Y-91928248D02*
X151441097Y-91959200D01*
X151441097Y-91959200D02*
X151379192Y-91990153D01*
X151379192Y-91990153D02*
X151224430Y-91990153D01*
X151224430Y-91990153D02*
X151162526Y-91959200D01*
X151162526Y-91959200D02*
X151131573Y-91928248D01*
X151131573Y-91928248D02*
X151100621Y-91866343D01*
X151100621Y-91866343D02*
X151100621Y-91742534D01*
X151100621Y-91742534D02*
X151131573Y-91680629D01*
X151131573Y-91680629D02*
X151162526Y-91649676D01*
X151162526Y-91649676D02*
X151224430Y-91618724D01*
X129097957Y-108947817D02*
X129128909Y-108978770D01*
X129128909Y-108978770D02*
X129221767Y-109009722D01*
X129221767Y-109009722D02*
X129283671Y-109009722D01*
X129283671Y-109009722D02*
X129376528Y-108978770D01*
X129376528Y-108978770D02*
X129438433Y-108916865D01*
X129438433Y-108916865D02*
X129469386Y-108854960D01*
X129469386Y-108854960D02*
X129500338Y-108731150D01*
X129500338Y-108731150D02*
X129500338Y-108638293D01*
X129500338Y-108638293D02*
X129469386Y-108514484D01*
X129469386Y-108514484D02*
X129438433Y-108452579D01*
X129438433Y-108452579D02*
X129376528Y-108390674D01*
X129376528Y-108390674D02*
X129283671Y-108359722D01*
X129283671Y-108359722D02*
X129221767Y-108359722D01*
X129221767Y-108359722D02*
X129128909Y-108390674D01*
X129128909Y-108390674D02*
X129097957Y-108421627D01*
X128850338Y-108421627D02*
X128819386Y-108390674D01*
X128819386Y-108390674D02*
X128757481Y-108359722D01*
X128757481Y-108359722D02*
X128602719Y-108359722D01*
X128602719Y-108359722D02*
X128540814Y-108390674D01*
X128540814Y-108390674D02*
X128509862Y-108421627D01*
X128509862Y-108421627D02*
X128478909Y-108483531D01*
X128478909Y-108483531D02*
X128478909Y-108545436D01*
X128478909Y-108545436D02*
X128509862Y-108638293D01*
X128509862Y-108638293D02*
X128881290Y-109009722D01*
X128881290Y-109009722D02*
X128478909Y-109009722D01*
X128262242Y-108359722D02*
X127859861Y-108359722D01*
X127859861Y-108359722D02*
X128076528Y-108607341D01*
X128076528Y-108607341D02*
X127983671Y-108607341D01*
X127983671Y-108607341D02*
X127921766Y-108638293D01*
X127921766Y-108638293D02*
X127890814Y-108669246D01*
X127890814Y-108669246D02*
X127859861Y-108731150D01*
X127859861Y-108731150D02*
X127859861Y-108885912D01*
X127859861Y-108885912D02*
X127890814Y-108947817D01*
X127890814Y-108947817D02*
X127921766Y-108978770D01*
X127921766Y-108978770D02*
X127983671Y-109009722D01*
X127983671Y-109009722D02*
X128169385Y-109009722D01*
X128169385Y-109009722D02*
X128231290Y-108978770D01*
X128231290Y-108978770D02*
X128262242Y-108947817D01*
X138583002Y-91310153D02*
X139047288Y-91310153D01*
X139047288Y-91310153D02*
X139140145Y-91279200D01*
X139140145Y-91279200D02*
X139202050Y-91217296D01*
X139202050Y-91217296D02*
X139233002Y-91124438D01*
X139233002Y-91124438D02*
X139233002Y-91062534D01*
X138861573Y-91712534D02*
X138830621Y-91650629D01*
X138830621Y-91650629D02*
X138799669Y-91619676D01*
X138799669Y-91619676D02*
X138737764Y-91588724D01*
X138737764Y-91588724D02*
X138706811Y-91588724D01*
X138706811Y-91588724D02*
X138644907Y-91619676D01*
X138644907Y-91619676D02*
X138613954Y-91650629D01*
X138613954Y-91650629D02*
X138583002Y-91712534D01*
X138583002Y-91712534D02*
X138583002Y-91836343D01*
X138583002Y-91836343D02*
X138613954Y-91898248D01*
X138613954Y-91898248D02*
X138644907Y-91929200D01*
X138644907Y-91929200D02*
X138706811Y-91960153D01*
X138706811Y-91960153D02*
X138737764Y-91960153D01*
X138737764Y-91960153D02*
X138799669Y-91929200D01*
X138799669Y-91929200D02*
X138830621Y-91898248D01*
X138830621Y-91898248D02*
X138861573Y-91836343D01*
X138861573Y-91836343D02*
X138861573Y-91712534D01*
X138861573Y-91712534D02*
X138892526Y-91650629D01*
X138892526Y-91650629D02*
X138923478Y-91619676D01*
X138923478Y-91619676D02*
X138985383Y-91588724D01*
X138985383Y-91588724D02*
X139109192Y-91588724D01*
X139109192Y-91588724D02*
X139171097Y-91619676D01*
X139171097Y-91619676D02*
X139202050Y-91650629D01*
X139202050Y-91650629D02*
X139233002Y-91712534D01*
X139233002Y-91712534D02*
X139233002Y-91836343D01*
X139233002Y-91836343D02*
X139202050Y-91898248D01*
X139202050Y-91898248D02*
X139171097Y-91929200D01*
X139171097Y-91929200D02*
X139109192Y-91960153D01*
X139109192Y-91960153D02*
X138985383Y-91960153D01*
X138985383Y-91960153D02*
X138923478Y-91929200D01*
X138923478Y-91929200D02*
X138892526Y-91898248D01*
X138892526Y-91898248D02*
X138861573Y-91836343D01*
X153330857Y-92000065D02*
X153005857Y-92562981D01*
X153005857Y-92562981D02*
X153425638Y-92269231D01*
X153425638Y-92269231D02*
X153381134Y-92779648D01*
X153381134Y-92779648D02*
X153706134Y-92216731D01*
X153595579Y-92903457D02*
X153970856Y-93120124D01*
X153970856Y-93120124D02*
X154054606Y-92417922D01*
X164747197Y-98586582D02*
X165397197Y-98586582D01*
X165397197Y-98586582D02*
X165397197Y-98431820D01*
X165397197Y-98431820D02*
X165366245Y-98338963D01*
X165366245Y-98338963D02*
X165304340Y-98277058D01*
X165304340Y-98277058D02*
X165242435Y-98246105D01*
X165242435Y-98246105D02*
X165118626Y-98215153D01*
X165118626Y-98215153D02*
X165025769Y-98215153D01*
X165025769Y-98215153D02*
X164901959Y-98246105D01*
X164901959Y-98246105D02*
X164840054Y-98277058D01*
X164840054Y-98277058D02*
X164778150Y-98338963D01*
X164778150Y-98338963D02*
X164747197Y-98431820D01*
X164747197Y-98431820D02*
X164747197Y-98586582D01*
X165397197Y-97658010D02*
X165397197Y-97781820D01*
X165397197Y-97781820D02*
X165366245Y-97843724D01*
X165366245Y-97843724D02*
X165335292Y-97874677D01*
X165335292Y-97874677D02*
X165242435Y-97936582D01*
X165242435Y-97936582D02*
X165118626Y-97967534D01*
X165118626Y-97967534D02*
X164871007Y-97967534D01*
X164871007Y-97967534D02*
X164809102Y-97936582D01*
X164809102Y-97936582D02*
X164778150Y-97905629D01*
X164778150Y-97905629D02*
X164747197Y-97843724D01*
X164747197Y-97843724D02*
X164747197Y-97719915D01*
X164747197Y-97719915D02*
X164778150Y-97658010D01*
X164778150Y-97658010D02*
X164809102Y-97627058D01*
X164809102Y-97627058D02*
X164871007Y-97596105D01*
X164871007Y-97596105D02*
X165025769Y-97596105D01*
X165025769Y-97596105D02*
X165087673Y-97627058D01*
X165087673Y-97627058D02*
X165118626Y-97658010D01*
X165118626Y-97658010D02*
X165149578Y-97719915D01*
X165149578Y-97719915D02*
X165149578Y-97843724D01*
X165149578Y-97843724D02*
X165118626Y-97905629D01*
X165118626Y-97905629D02*
X165087673Y-97936582D01*
X165087673Y-97936582D02*
X165025769Y-97967534D01*
X128906290Y-104859722D02*
X128906290Y-105324008D01*
X128906290Y-105324008D02*
X128937243Y-105416865D01*
X128937243Y-105416865D02*
X128999147Y-105478770D01*
X128999147Y-105478770D02*
X129092005Y-105509722D01*
X129092005Y-105509722D02*
X129153909Y-105509722D01*
X128256290Y-105509722D02*
X128627719Y-105509722D01*
X128442005Y-105509722D02*
X128442005Y-104859722D01*
X128442005Y-104859722D02*
X128503909Y-104952579D01*
X128503909Y-104952579D02*
X128565814Y-105014484D01*
X128565814Y-105014484D02*
X128627719Y-105045436D01*
X127699147Y-104859722D02*
X127822957Y-104859722D01*
X127822957Y-104859722D02*
X127884861Y-104890674D01*
X127884861Y-104890674D02*
X127915814Y-104921627D01*
X127915814Y-104921627D02*
X127977719Y-105014484D01*
X127977719Y-105014484D02*
X128008671Y-105138293D01*
X128008671Y-105138293D02*
X128008671Y-105385912D01*
X128008671Y-105385912D02*
X127977719Y-105447817D01*
X127977719Y-105447817D02*
X127946766Y-105478770D01*
X127946766Y-105478770D02*
X127884861Y-105509722D01*
X127884861Y-105509722D02*
X127761052Y-105509722D01*
X127761052Y-105509722D02*
X127699147Y-105478770D01*
X127699147Y-105478770D02*
X127668195Y-105447817D01*
X127668195Y-105447817D02*
X127637242Y-105385912D01*
X127637242Y-105385912D02*
X127637242Y-105231150D01*
X127637242Y-105231150D02*
X127668195Y-105169246D01*
X127668195Y-105169246D02*
X127699147Y-105138293D01*
X127699147Y-105138293D02*
X127761052Y-105107341D01*
X127761052Y-105107341D02*
X127884861Y-105107341D01*
X127884861Y-105107341D02*
X127946766Y-105138293D01*
X127946766Y-105138293D02*
X127977719Y-105169246D01*
X127977719Y-105169246D02*
X128008671Y-105231150D01*
X168572242Y-113553917D02*
X168355575Y-113863441D01*
X168200813Y-113553917D02*
X168200813Y-114203917D01*
X168200813Y-114203917D02*
X168448432Y-114203917D01*
X168448432Y-114203917D02*
X168510337Y-114172965D01*
X168510337Y-114172965D02*
X168541290Y-114142012D01*
X168541290Y-114142012D02*
X168572242Y-114080108D01*
X168572242Y-114080108D02*
X168572242Y-113987250D01*
X168572242Y-113987250D02*
X168541290Y-113925346D01*
X168541290Y-113925346D02*
X168510337Y-113894393D01*
X168510337Y-113894393D02*
X168448432Y-113863441D01*
X168448432Y-113863441D02*
X168200813Y-113863441D01*
X169191290Y-113553917D02*
X168819861Y-113553917D01*
X169005575Y-113553917D02*
X169005575Y-114203917D01*
X169005575Y-114203917D02*
X168943671Y-114111060D01*
X168943671Y-114111060D02*
X168881766Y-114049155D01*
X168881766Y-114049155D02*
X168819861Y-114018203D01*
X169810338Y-113553917D02*
X169438909Y-113553917D01*
X169624623Y-113553917D02*
X169624623Y-114203917D01*
X169624623Y-114203917D02*
X169562719Y-114111060D01*
X169562719Y-114111060D02*
X169500814Y-114049155D01*
X169500814Y-114049155D02*
X169438909Y-114018203D01*
X162351097Y-103288962D02*
X162382050Y-103258010D01*
X162382050Y-103258010D02*
X162413002Y-103165152D01*
X162413002Y-103165152D02*
X162413002Y-103103248D01*
X162413002Y-103103248D02*
X162382050Y-103010391D01*
X162382050Y-103010391D02*
X162320145Y-102948486D01*
X162320145Y-102948486D02*
X162258240Y-102917533D01*
X162258240Y-102917533D02*
X162134430Y-102886581D01*
X162134430Y-102886581D02*
X162041573Y-102886581D01*
X162041573Y-102886581D02*
X161917764Y-102917533D01*
X161917764Y-102917533D02*
X161855859Y-102948486D01*
X161855859Y-102948486D02*
X161793954Y-103010391D01*
X161793954Y-103010391D02*
X161763002Y-103103248D01*
X161763002Y-103103248D02*
X161763002Y-103165152D01*
X161763002Y-103165152D02*
X161793954Y-103258010D01*
X161793954Y-103258010D02*
X161824907Y-103288962D01*
X161824907Y-103536581D02*
X161793954Y-103567533D01*
X161793954Y-103567533D02*
X161763002Y-103629438D01*
X161763002Y-103629438D02*
X161763002Y-103784200D01*
X161763002Y-103784200D02*
X161793954Y-103846105D01*
X161793954Y-103846105D02*
X161824907Y-103877057D01*
X161824907Y-103877057D02*
X161886811Y-103908010D01*
X161886811Y-103908010D02*
X161948716Y-103908010D01*
X161948716Y-103908010D02*
X162041573Y-103877057D01*
X162041573Y-103877057D02*
X162413002Y-103505629D01*
X162413002Y-103505629D02*
X162413002Y-103908010D01*
X161763002Y-104310391D02*
X161763002Y-104372296D01*
X161763002Y-104372296D02*
X161793954Y-104434200D01*
X161793954Y-104434200D02*
X161824907Y-104465153D01*
X161824907Y-104465153D02*
X161886811Y-104496105D01*
X161886811Y-104496105D02*
X162010621Y-104527058D01*
X162010621Y-104527058D02*
X162165383Y-104527058D01*
X162165383Y-104527058D02*
X162289192Y-104496105D01*
X162289192Y-104496105D02*
X162351097Y-104465153D01*
X162351097Y-104465153D02*
X162382050Y-104434200D01*
X162382050Y-104434200D02*
X162413002Y-104372296D01*
X162413002Y-104372296D02*
X162413002Y-104310391D01*
X162413002Y-104310391D02*
X162382050Y-104248486D01*
X162382050Y-104248486D02*
X162351097Y-104217534D01*
X162351097Y-104217534D02*
X162289192Y-104186581D01*
X162289192Y-104186581D02*
X162165383Y-104155629D01*
X162165383Y-104155629D02*
X162010621Y-104155629D01*
X162010621Y-104155629D02*
X161886811Y-104186581D01*
X161886811Y-104186581D02*
X161824907Y-104217534D01*
X161824907Y-104217534D02*
X161793954Y-104248486D01*
X161793954Y-104248486D02*
X161763002Y-104310391D01*
X163921097Y-103358962D02*
X163952050Y-103328010D01*
X163952050Y-103328010D02*
X163983002Y-103235152D01*
X163983002Y-103235152D02*
X163983002Y-103173248D01*
X163983002Y-103173248D02*
X163952050Y-103080391D01*
X163952050Y-103080391D02*
X163890145Y-103018486D01*
X163890145Y-103018486D02*
X163828240Y-102987533D01*
X163828240Y-102987533D02*
X163704430Y-102956581D01*
X163704430Y-102956581D02*
X163611573Y-102956581D01*
X163611573Y-102956581D02*
X163487764Y-102987533D01*
X163487764Y-102987533D02*
X163425859Y-103018486D01*
X163425859Y-103018486D02*
X163363954Y-103080391D01*
X163363954Y-103080391D02*
X163333002Y-103173248D01*
X163333002Y-103173248D02*
X163333002Y-103235152D01*
X163333002Y-103235152D02*
X163363954Y-103328010D01*
X163363954Y-103328010D02*
X163394907Y-103358962D01*
X163394907Y-103606581D02*
X163363954Y-103637533D01*
X163363954Y-103637533D02*
X163333002Y-103699438D01*
X163333002Y-103699438D02*
X163333002Y-103854200D01*
X163333002Y-103854200D02*
X163363954Y-103916105D01*
X163363954Y-103916105D02*
X163394907Y-103947057D01*
X163394907Y-103947057D02*
X163456811Y-103978010D01*
X163456811Y-103978010D02*
X163518716Y-103978010D01*
X163518716Y-103978010D02*
X163611573Y-103947057D01*
X163611573Y-103947057D02*
X163983002Y-103575629D01*
X163983002Y-103575629D02*
X163983002Y-103978010D01*
X163333002Y-104566105D02*
X163333002Y-104256581D01*
X163333002Y-104256581D02*
X163642526Y-104225629D01*
X163642526Y-104225629D02*
X163611573Y-104256581D01*
X163611573Y-104256581D02*
X163580621Y-104318486D01*
X163580621Y-104318486D02*
X163580621Y-104473248D01*
X163580621Y-104473248D02*
X163611573Y-104535153D01*
X163611573Y-104535153D02*
X163642526Y-104566105D01*
X163642526Y-104566105D02*
X163704430Y-104597058D01*
X163704430Y-104597058D02*
X163859192Y-104597058D01*
X163859192Y-104597058D02*
X163921097Y-104566105D01*
X163921097Y-104566105D02*
X163952050Y-104535153D01*
X163952050Y-104535153D02*
X163983002Y-104473248D01*
X163983002Y-104473248D02*
X163983002Y-104318486D01*
X163983002Y-104318486D02*
X163952050Y-104256581D01*
X163952050Y-104256581D02*
X163921097Y-104225629D01*
X134597474Y-91247941D02*
X134639755Y-91259270D01*
X134639755Y-91259270D02*
X134735648Y-91239647D01*
X134735648Y-91239647D02*
X134789259Y-91208694D01*
X134789259Y-91208694D02*
X134854200Y-91135460D01*
X134854200Y-91135460D02*
X134876858Y-91050897D01*
X134876858Y-91050897D02*
X134872712Y-90981810D01*
X134872712Y-90981810D02*
X134837612Y-90859111D01*
X134837612Y-90859111D02*
X134791184Y-90778695D01*
X134791184Y-90778695D02*
X134702473Y-90686949D01*
X134702473Y-90686949D02*
X134644716Y-90648814D01*
X134644716Y-90648814D02*
X134560152Y-90626155D01*
X134560152Y-90626155D02*
X134464259Y-90645778D01*
X134464259Y-90645778D02*
X134410648Y-90676730D01*
X134410648Y-90676730D02*
X134345708Y-90749964D01*
X134345708Y-90749964D02*
X134334378Y-90792246D01*
X134119934Y-90916056D02*
X134077652Y-90904726D01*
X134077652Y-90904726D02*
X134008565Y-90908873D01*
X134008565Y-90908873D02*
X133874537Y-90986254D01*
X133874537Y-90986254D02*
X133836402Y-91044012D01*
X133836402Y-91044012D02*
X133825073Y-91086294D01*
X133825073Y-91086294D02*
X133829220Y-91155381D01*
X133829220Y-91155381D02*
X133860172Y-91208992D01*
X133860172Y-91208992D02*
X133933406Y-91273933D01*
X133933406Y-91273933D02*
X134440787Y-91409885D01*
X134440787Y-91409885D02*
X134092315Y-91611075D01*
X133393148Y-91514369D02*
X133609815Y-91889647D01*
X133403366Y-91222544D02*
X133769537Y-91547246D01*
X133769537Y-91547246D02*
X133421065Y-91748437D01*
X126197303Y-112208898D02*
X126565646Y-112491537D01*
X126565646Y-112491537D02*
X126658157Y-112523509D01*
X126658157Y-112523509D02*
X126744955Y-112512082D01*
X126744955Y-112512082D02*
X126826039Y-112457256D01*
X126826039Y-112457256D02*
X126863724Y-112408143D01*
X125820451Y-112700021D02*
X126008877Y-112454460D01*
X126008877Y-112454460D02*
X126273282Y-112618330D01*
X126273282Y-112618330D02*
X126229883Y-112624043D01*
X126229883Y-112624043D02*
X126167641Y-112654313D01*
X126167641Y-112654313D02*
X126073428Y-112777094D01*
X126073428Y-112777094D02*
X126060299Y-112845049D01*
X126060299Y-112845049D02*
X126066013Y-112888447D01*
X126066013Y-112888447D02*
X126096283Y-112950689D01*
X126096283Y-112950689D02*
X126219063Y-113044902D01*
X126219063Y-113044902D02*
X126287018Y-113058031D01*
X126287018Y-113058031D02*
X126330417Y-113052317D01*
X126330417Y-113052317D02*
X126392659Y-113022048D01*
X126392659Y-113022048D02*
X126486872Y-112899267D01*
X126486872Y-112899267D02*
X126500001Y-112831312D01*
X126500001Y-112831312D02*
X126494287Y-112787913D01*
D12*
X161232846Y-115518962D02*
X160923322Y-115302295D01*
X161232846Y-115147533D02*
X160582846Y-115147533D01*
X160582846Y-115147533D02*
X160582846Y-115395152D01*
X160582846Y-115395152D02*
X160613798Y-115457057D01*
X160613798Y-115457057D02*
X160644751Y-115488010D01*
X160644751Y-115488010D02*
X160706655Y-115518962D01*
X160706655Y-115518962D02*
X160799513Y-115518962D01*
X160799513Y-115518962D02*
X160861417Y-115488010D01*
X160861417Y-115488010D02*
X160892370Y-115457057D01*
X160892370Y-115457057D02*
X160923322Y-115395152D01*
X160923322Y-115395152D02*
X160923322Y-115147533D01*
X161232846Y-116138010D02*
X161232846Y-115766581D01*
X161232846Y-115952295D02*
X160582846Y-115952295D01*
X160582846Y-115952295D02*
X160675703Y-115890391D01*
X160675703Y-115890391D02*
X160737608Y-115828486D01*
X160737608Y-115828486D02*
X160768560Y-115766581D01*
X160582846Y-116726105D02*
X160582846Y-116416581D01*
X160582846Y-116416581D02*
X160892370Y-116385629D01*
X160892370Y-116385629D02*
X160861417Y-116416581D01*
X160861417Y-116416581D02*
X160830465Y-116478486D01*
X160830465Y-116478486D02*
X160830465Y-116633248D01*
X160830465Y-116633248D02*
X160861417Y-116695153D01*
X160861417Y-116695153D02*
X160892370Y-116726105D01*
X160892370Y-116726105D02*
X160954274Y-116757058D01*
X160954274Y-116757058D02*
X161109036Y-116757058D01*
X161109036Y-116757058D02*
X161170941Y-116726105D01*
X161170941Y-116726105D02*
X161201894Y-116695153D01*
X161201894Y-116695153D02*
X161232846Y-116633248D01*
X161232846Y-116633248D02*
X161232846Y-116478486D01*
X161232846Y-116478486D02*
X161201894Y-116416581D01*
X161201894Y-116416581D02*
X161170941Y-116385629D01*
X164442846Y-115568962D02*
X164133322Y-115352295D01*
X164442846Y-115197533D02*
X163792846Y-115197533D01*
X163792846Y-115197533D02*
X163792846Y-115445152D01*
X163792846Y-115445152D02*
X163823798Y-115507057D01*
X163823798Y-115507057D02*
X163854751Y-115538010D01*
X163854751Y-115538010D02*
X163916655Y-115568962D01*
X163916655Y-115568962D02*
X164009513Y-115568962D01*
X164009513Y-115568962D02*
X164071417Y-115538010D01*
X164071417Y-115538010D02*
X164102370Y-115507057D01*
X164102370Y-115507057D02*
X164133322Y-115445152D01*
X164133322Y-115445152D02*
X164133322Y-115197533D01*
X164442846Y-116188010D02*
X164442846Y-115816581D01*
X164442846Y-116002295D02*
X163792846Y-116002295D01*
X163792846Y-116002295D02*
X163885703Y-115940391D01*
X163885703Y-115940391D02*
X163947608Y-115878486D01*
X163947608Y-115878486D02*
X163978560Y-115816581D01*
X164071417Y-116559439D02*
X164040465Y-116497534D01*
X164040465Y-116497534D02*
X164009513Y-116466581D01*
X164009513Y-116466581D02*
X163947608Y-116435629D01*
X163947608Y-116435629D02*
X163916655Y-116435629D01*
X163916655Y-116435629D02*
X163854751Y-116466581D01*
X163854751Y-116466581D02*
X163823798Y-116497534D01*
X163823798Y-116497534D02*
X163792846Y-116559439D01*
X163792846Y-116559439D02*
X163792846Y-116683248D01*
X163792846Y-116683248D02*
X163823798Y-116745153D01*
X163823798Y-116745153D02*
X163854751Y-116776105D01*
X163854751Y-116776105D02*
X163916655Y-116807058D01*
X163916655Y-116807058D02*
X163947608Y-116807058D01*
X163947608Y-116807058D02*
X164009513Y-116776105D01*
X164009513Y-116776105D02*
X164040465Y-116745153D01*
X164040465Y-116745153D02*
X164071417Y-116683248D01*
X164071417Y-116683248D02*
X164071417Y-116559439D01*
X164071417Y-116559439D02*
X164102370Y-116497534D01*
X164102370Y-116497534D02*
X164133322Y-116466581D01*
X164133322Y-116466581D02*
X164195227Y-116435629D01*
X164195227Y-116435629D02*
X164319036Y-116435629D01*
X164319036Y-116435629D02*
X164380941Y-116466581D01*
X164380941Y-116466581D02*
X164411894Y-116497534D01*
X164411894Y-116497534D02*
X164442846Y-116559439D01*
X164442846Y-116559439D02*
X164442846Y-116683248D01*
X164442846Y-116683248D02*
X164411894Y-116745153D01*
X164411894Y-116745153D02*
X164380941Y-116776105D01*
X164380941Y-116776105D02*
X164319036Y-116807058D01*
X164319036Y-116807058D02*
X164195227Y-116807058D01*
X164195227Y-116807058D02*
X164133322Y-116776105D01*
X164133322Y-116776105D02*
X164102370Y-116745153D01*
X164102370Y-116745153D02*
X164071417Y-116683248D01*
D10*
X124587197Y-107493010D02*
X125237197Y-107493010D01*
X125237197Y-107493010D02*
X124772911Y-107276343D01*
X124772911Y-107276343D02*
X125237197Y-107059676D01*
X125237197Y-107059676D02*
X124587197Y-107059676D01*
X124587197Y-106409676D02*
X124587197Y-106781105D01*
X124587197Y-106595391D02*
X125237197Y-106595391D01*
X125237197Y-106595391D02*
X125144340Y-106657295D01*
X125144340Y-106657295D02*
X125082435Y-106719200D01*
X125082435Y-106719200D02*
X125051483Y-106781105D01*
X131496290Y-104949722D02*
X131496290Y-105414008D01*
X131496290Y-105414008D02*
X131527243Y-105506865D01*
X131527243Y-105506865D02*
X131589147Y-105568770D01*
X131589147Y-105568770D02*
X131682005Y-105599722D01*
X131682005Y-105599722D02*
X131743909Y-105599722D01*
X130846290Y-105599722D02*
X131217719Y-105599722D01*
X131032005Y-105599722D02*
X131032005Y-104949722D01*
X131032005Y-104949722D02*
X131093909Y-105042579D01*
X131093909Y-105042579D02*
X131155814Y-105104484D01*
X131155814Y-105104484D02*
X131217719Y-105135436D01*
X130629623Y-104949722D02*
X130196290Y-104949722D01*
X130196290Y-104949722D02*
X130474861Y-105599722D01*
X163427197Y-98806582D02*
X164077197Y-98806582D01*
X164077197Y-98806582D02*
X164077197Y-98651820D01*
X164077197Y-98651820D02*
X164046245Y-98558963D01*
X164046245Y-98558963D02*
X163984340Y-98497058D01*
X163984340Y-98497058D02*
X163922435Y-98466105D01*
X163922435Y-98466105D02*
X163798626Y-98435153D01*
X163798626Y-98435153D02*
X163705769Y-98435153D01*
X163705769Y-98435153D02*
X163581959Y-98466105D01*
X163581959Y-98466105D02*
X163520054Y-98497058D01*
X163520054Y-98497058D02*
X163458150Y-98558963D01*
X163458150Y-98558963D02*
X163427197Y-98651820D01*
X163427197Y-98651820D02*
X163427197Y-98806582D01*
X163427197Y-97816105D02*
X163427197Y-98187534D01*
X163427197Y-98001820D02*
X164077197Y-98001820D01*
X164077197Y-98001820D02*
X163984340Y-98063724D01*
X163984340Y-98063724D02*
X163922435Y-98125629D01*
X163922435Y-98125629D02*
X163891483Y-98187534D01*
X154244763Y-103809494D02*
X154244763Y-104526631D01*
X154244763Y-104526631D02*
X154292572Y-104670058D01*
X154292572Y-104670058D02*
X154388190Y-104765677D01*
X154388190Y-104765677D02*
X154531618Y-104813486D01*
X154531618Y-104813486D02*
X154627236Y-104813486D01*
X153240771Y-104813486D02*
X153814481Y-104813486D01*
X153527626Y-104813486D02*
X153527626Y-103809494D01*
X153527626Y-103809494D02*
X153623244Y-103952921D01*
X153623244Y-103952921D02*
X153718863Y-104048539D01*
X153718863Y-104048539D02*
X153814481Y-104096349D01*
D12*
X167517957Y-115769566D02*
X167734624Y-115460042D01*
X167889386Y-115769566D02*
X167889386Y-115119566D01*
X167889386Y-115119566D02*
X167641767Y-115119566D01*
X167641767Y-115119566D02*
X167579862Y-115150518D01*
X167579862Y-115150518D02*
X167548909Y-115181471D01*
X167548909Y-115181471D02*
X167517957Y-115243375D01*
X167517957Y-115243375D02*
X167517957Y-115336233D01*
X167517957Y-115336233D02*
X167548909Y-115398137D01*
X167548909Y-115398137D02*
X167579862Y-115429090D01*
X167579862Y-115429090D02*
X167641767Y-115460042D01*
X167641767Y-115460042D02*
X167889386Y-115460042D01*
X166898909Y-115769566D02*
X167270338Y-115769566D01*
X167084624Y-115769566D02*
X167084624Y-115119566D01*
X167084624Y-115119566D02*
X167146528Y-115212423D01*
X167146528Y-115212423D02*
X167208433Y-115274328D01*
X167208433Y-115274328D02*
X167270338Y-115305280D01*
X166341766Y-115119566D02*
X166465576Y-115119566D01*
X166465576Y-115119566D02*
X166527480Y-115150518D01*
X166527480Y-115150518D02*
X166558433Y-115181471D01*
X166558433Y-115181471D02*
X166620338Y-115274328D01*
X166620338Y-115274328D02*
X166651290Y-115398137D01*
X166651290Y-115398137D02*
X166651290Y-115645756D01*
X166651290Y-115645756D02*
X166620338Y-115707661D01*
X166620338Y-115707661D02*
X166589385Y-115738614D01*
X166589385Y-115738614D02*
X166527480Y-115769566D01*
X166527480Y-115769566D02*
X166403671Y-115769566D01*
X166403671Y-115769566D02*
X166341766Y-115738614D01*
X166341766Y-115738614D02*
X166310814Y-115707661D01*
X166310814Y-115707661D02*
X166279861Y-115645756D01*
X166279861Y-115645756D02*
X166279861Y-115490994D01*
X166279861Y-115490994D02*
X166310814Y-115429090D01*
X166310814Y-115429090D02*
X166341766Y-115398137D01*
X166341766Y-115398137D02*
X166403671Y-115367185D01*
X166403671Y-115367185D02*
X166527480Y-115367185D01*
X166527480Y-115367185D02*
X166589385Y-115398137D01*
X166589385Y-115398137D02*
X166620338Y-115429090D01*
X166620338Y-115429090D02*
X166651290Y-115490994D01*
D10*
X153049078Y-91300443D02*
X153091360Y-91289114D01*
X153091360Y-91289114D02*
X153164594Y-91224173D01*
X153164594Y-91224173D02*
X153195546Y-91170562D01*
X153195546Y-91170562D02*
X153215169Y-91074669D01*
X153215169Y-91074669D02*
X153192511Y-90990106D01*
X153192511Y-90990106D02*
X153154376Y-90932348D01*
X153154376Y-90932348D02*
X153062630Y-90843638D01*
X153062630Y-90843638D02*
X152982213Y-90797209D01*
X152982213Y-90797209D02*
X152859515Y-90762110D01*
X152859515Y-90762110D02*
X152790427Y-90757963D01*
X152790427Y-90757963D02*
X152705864Y-90780622D01*
X152705864Y-90780622D02*
X152632630Y-90845562D01*
X152632630Y-90845562D02*
X152601677Y-90899173D01*
X152601677Y-90899173D02*
X152582054Y-90995066D01*
X152582054Y-90995066D02*
X152593384Y-91037348D01*
X152469574Y-91251792D02*
X152427292Y-91263122D01*
X152427292Y-91263122D02*
X152369535Y-91301256D01*
X152369535Y-91301256D02*
X152292154Y-91435284D01*
X152292154Y-91435284D02*
X152288007Y-91504372D01*
X152288007Y-91504372D02*
X152299336Y-91546653D01*
X152299336Y-91546653D02*
X152337471Y-91604411D01*
X152337471Y-91604411D02*
X152391082Y-91635364D01*
X152391082Y-91635364D02*
X152486975Y-91654987D01*
X152486975Y-91654987D02*
X152994356Y-91519034D01*
X152994356Y-91519034D02*
X152793165Y-91867506D01*
X152638403Y-92135562D02*
X152576498Y-92242784D01*
X152576498Y-92242784D02*
X152518741Y-92280919D01*
X152518741Y-92280919D02*
X152476459Y-92292249D01*
X152476459Y-92292249D02*
X152365090Y-92299431D01*
X152365090Y-92299431D02*
X152242391Y-92264332D01*
X152242391Y-92264332D02*
X152027947Y-92140522D01*
X152027947Y-92140522D02*
X151989812Y-92082765D01*
X151989812Y-92082765D02*
X151978483Y-92040483D01*
X151978483Y-92040483D02*
X151982630Y-91971396D01*
X151982630Y-91971396D02*
X152044534Y-91864173D01*
X152044534Y-91864173D02*
X152102292Y-91826038D01*
X152102292Y-91826038D02*
X152144574Y-91814709D01*
X152144574Y-91814709D02*
X152213661Y-91818856D01*
X152213661Y-91818856D02*
X152347689Y-91896237D01*
X152347689Y-91896237D02*
X152385824Y-91953995D01*
X152385824Y-91953995D02*
X152397153Y-91996277D01*
X152397153Y-91996277D02*
X152393006Y-92065364D01*
X152393006Y-92065364D02*
X152331102Y-92172586D01*
X152331102Y-92172586D02*
X152273344Y-92210721D01*
X152273344Y-92210721D02*
X152231062Y-92222050D01*
X152231062Y-92222050D02*
X152161975Y-92217903D01*
X137549342Y-122033575D02*
X137874342Y-121470659D01*
X137874342Y-121470659D02*
X137454561Y-121764409D01*
X137454561Y-121764409D02*
X137499065Y-121253992D01*
X137499065Y-121253992D02*
X137174065Y-121816909D01*
X136962954Y-120944469D02*
X137231009Y-121099230D01*
X137231009Y-121099230D02*
X137103053Y-121382762D01*
X137103053Y-121382762D02*
X137091724Y-121340480D01*
X137091724Y-121340480D02*
X137053589Y-121282722D01*
X137053589Y-121282722D02*
X136919561Y-121205341D01*
X136919561Y-121205341D02*
X136850474Y-121201195D01*
X136850474Y-121201195D02*
X136808192Y-121212524D01*
X136808192Y-121212524D02*
X136750434Y-121250659D01*
X136750434Y-121250659D02*
X136673053Y-121384687D01*
X136673053Y-121384687D02*
X136668906Y-121453774D01*
X136668906Y-121453774D02*
X136680236Y-121496056D01*
X136680236Y-121496056D02*
X136718370Y-121553814D01*
X136718370Y-121553814D02*
X136852398Y-121631195D01*
X136852398Y-121631195D02*
X136921485Y-121635341D01*
X136921485Y-121635341D02*
X136963767Y-121624012D01*
D13*
X150271100Y-91516820D02*
G75*
G02*
X149509100Y-91516820I-381000J0D01*
G01*
X149509100Y-91516820D02*
G75*
G02*
X150271100Y-91516820I381000J0D01*
G01*
D14*
X140490100Y-88616820D02*
X140490100Y-90016820D01*
X141190100Y-90716820D02*
X141790100Y-90716820D01*
X141790100Y-87916820D02*
X141190100Y-87916820D01*
X142490100Y-90016820D02*
X142490100Y-88616820D01*
X140490100Y-88616820D02*
G75*
G02*
X141190100Y-87916820I699999J1D01*
G01*
X141190100Y-90716820D02*
G75*
G02*
X140490100Y-90016820I0J700000D01*
G01*
X141790100Y-87916820D02*
G75*
G02*
X142490100Y-88616820I1J-699999D01*
G01*
X142490100Y-90016820D02*
G75*
G02*
X141790100Y-90716820I-700000J0D01*
G01*
D15*
X167466300Y-101310520D02*
G75*
G02*
X167313900Y-101310520I-76200J0D01*
G01*
X167313900Y-101310520D02*
G75*
G02*
X167466300Y-101310520I76200J0D01*
G01*
X155731038Y-121480966D02*
G75*
G02*
X155578638Y-121480966I-76200J0D01*
G01*
X155578638Y-121480966D02*
G75*
G02*
X155731038Y-121480966I76200J0D01*
G01*
X162566300Y-101042120D02*
G75*
G02*
X162413900Y-101042120I-76200J0D01*
G01*
X162413900Y-101042120D02*
G75*
G02*
X162566300Y-101042120I76200J0D01*
G01*
D11*
X135190100Y-94816820D02*
X135190100Y-97216820D01*
X135190100Y-97216820D02*
X135590100Y-97216820D01*
X137590100Y-94816820D02*
X135190100Y-94816820D01*
X139590100Y-97216820D02*
X137390100Y-97216820D01*
X141590100Y-94816820D02*
X139390100Y-94816820D01*
X143590100Y-97216820D02*
X141390100Y-97216820D01*
X145590100Y-94816820D02*
X143390100Y-94816820D01*
X147390100Y-97216820D02*
X145390100Y-97216820D01*
X149590100Y-94816820D02*
X147390100Y-94816820D01*
X151590100Y-97216820D02*
X149190100Y-97216820D01*
X153590100Y-94816820D02*
X151390100Y-94816820D01*
X155790100Y-94816820D02*
X155390100Y-94816820D01*
X155790100Y-94816820D02*
X155790100Y-97216820D01*
X155790100Y-97216820D02*
X153390100Y-97216820D01*
D14*
X120304133Y-112460566D02*
X120780145Y-112825823D01*
X121027185Y-110368391D02*
X120174919Y-111479086D01*
X121761625Y-112696609D02*
X122613891Y-111585914D01*
X122484677Y-110604434D02*
X122008665Y-110239177D01*
X120304133Y-112460566D02*
G75*
G02*
X120174919Y-111479086I426133J555347D01*
G01*
X121027185Y-110368391D02*
G75*
G02*
X122008665Y-110239178I555346J-426129D01*
G01*
X121761625Y-112696609D02*
G75*
G02*
X120780145Y-112825823I-555347J426133D01*
G01*
X122484677Y-110604434D02*
G75*
G02*
X122613891Y-111585914I-426132J-555347D01*
G01*
D15*
X152734600Y-114516820D02*
G75*
G02*
X152582200Y-114516820I-76200J0D01*
G01*
X152582200Y-114516820D02*
G75*
G02*
X152734600Y-114516820I76200J0D01*
G01*
D14*
X147690100Y-88566820D02*
X147690100Y-89966820D01*
X148390100Y-90666820D02*
X148990100Y-90666820D01*
X148990100Y-87866820D02*
X148390100Y-87866820D01*
X149690100Y-89966820D02*
X149690100Y-88566820D01*
X147690100Y-88566820D02*
G75*
G02*
X148390100Y-87866820I699999J1D01*
G01*
X148390100Y-90666820D02*
G75*
G02*
X147690100Y-89966820I0J700000D01*
G01*
X148990100Y-87866820D02*
G75*
G02*
X149690100Y-88566820I1J-699999D01*
G01*
X149690100Y-89966820D02*
G75*
G02*
X148990100Y-90666820I-700000J0D01*
G01*
D15*
X138249137Y-122934818D02*
G75*
G02*
X138096737Y-122934818I-76200J0D01*
G01*
X138096737Y-122934818D02*
G75*
G02*
X138249137Y-122934818I76200J0D01*
G01*
D16*
X165190100Y-113611820D02*
X165190100Y-113771820D01*
X165990100Y-113611820D02*
X165990100Y-113771820D01*
D15*
X160463100Y-106709270D02*
X160463100Y-106324370D01*
X161517100Y-106324370D02*
X161517100Y-106709270D01*
X161066300Y-108116820D02*
G75*
G02*
X160913900Y-108116820I-76200J0D01*
G01*
X160913900Y-108116820D02*
G75*
G02*
X161066300Y-108116820I76200J0D01*
G01*
D14*
X124790100Y-102366820D02*
X124790100Y-103766820D01*
X125490100Y-104466820D02*
X126090100Y-104466820D01*
X126090100Y-101666820D02*
X125490100Y-101666820D01*
X126790100Y-103766820D02*
X126790100Y-102366820D01*
X124790100Y-102366820D02*
G75*
G02*
X125490100Y-101666820I700000J0D01*
G01*
X125490100Y-104466820D02*
G75*
G02*
X124790100Y-103766820I-1J699999D01*
G01*
X126090100Y-101666820D02*
G75*
G02*
X126790100Y-102366820I0J-700000D01*
G01*
X126790100Y-103766820D02*
G75*
G02*
X126090100Y-104466820I-699999J-1D01*
G01*
D15*
X161366300Y-101042120D02*
G75*
G02*
X161213900Y-101042120I-76200J0D01*
G01*
X161213900Y-101042120D02*
G75*
G02*
X161366300Y-101042120I76200J0D01*
G01*
D11*
X135190100Y-116816820D02*
X135190100Y-119216820D01*
X135190100Y-119216820D02*
X135590100Y-119216820D01*
X137590100Y-116816820D02*
X135190100Y-116816820D01*
X139590100Y-119216820D02*
X137390100Y-119216820D01*
X141590100Y-116816820D02*
X139390100Y-116816820D01*
X143590100Y-119216820D02*
X141390100Y-119216820D01*
X145590100Y-116816820D02*
X143390100Y-116816820D01*
X147390100Y-119216820D02*
X145390100Y-119216820D01*
X149590100Y-116816820D02*
X147390100Y-116816820D01*
X151590100Y-119216820D02*
X149190100Y-119216820D01*
X153590100Y-116816820D02*
X151390100Y-116816820D01*
X155790100Y-116816820D02*
X155390100Y-116816820D01*
X155790100Y-116816820D02*
X155790100Y-119216820D01*
X155790100Y-119216820D02*
X153390100Y-119216820D01*
D15*
X152766300Y-114516820D02*
G75*
G02*
X152613900Y-114516820I-76200J0D01*
G01*
X152613900Y-114516820D02*
G75*
G02*
X152766300Y-114516820I76200J0D01*
G01*
D16*
X149010100Y-114216820D02*
X149170100Y-114216820D01*
X149010100Y-115016820D02*
X149170100Y-115016820D01*
D14*
X127599828Y-118344886D02*
X128075840Y-118710143D01*
X128322880Y-116252711D02*
X127470614Y-117363406D01*
X129057320Y-118580929D02*
X129909586Y-117470234D01*
X129780372Y-116488754D02*
X129304360Y-116123497D01*
X127599828Y-118344886D02*
G75*
G02*
X127470614Y-117363406I426133J555347D01*
G01*
X128322880Y-116252711D02*
G75*
G02*
X129304360Y-116123498I555346J-426129D01*
G01*
X129057320Y-118580929D02*
G75*
G02*
X128075840Y-118710143I-555347J426133D01*
G01*
X129780372Y-116488754D02*
G75*
G02*
X129909586Y-117470234I-426132J-555347D01*
G01*
X122404133Y-114060566D02*
X122880145Y-114425823D01*
X123127185Y-111968391D02*
X122274919Y-113079086D01*
X123861625Y-114296609D02*
X124713891Y-113185914D01*
X124584677Y-112204434D02*
X124108665Y-111839177D01*
X122404133Y-114060566D02*
G75*
G02*
X122274919Y-113079086I426133J555347D01*
G01*
X123127185Y-111968391D02*
G75*
G02*
X124108665Y-111839178I555346J-426129D01*
G01*
X123861625Y-114296609D02*
G75*
G02*
X122880145Y-114425823I-555347J426133D01*
G01*
X124584677Y-112204434D02*
G75*
G02*
X124713891Y-113185914I-426132J-555347D01*
G01*
D15*
X166366300Y-100742120D02*
G75*
G02*
X166213900Y-100742120I-76200J0D01*
G01*
X166213900Y-100742120D02*
G75*
G02*
X166366300Y-100742120I76200J0D01*
G01*
D16*
X162190100Y-113611820D02*
X162190100Y-113771820D01*
X162990100Y-113611820D02*
X162990100Y-113771820D01*
D14*
X150210100Y-88556820D02*
X150210100Y-89956820D01*
X150910100Y-90656820D02*
X151510100Y-90656820D01*
X151510100Y-87856820D02*
X150910100Y-87856820D01*
X152210100Y-89956820D02*
X152210100Y-88556820D01*
X150210100Y-88556820D02*
G75*
G02*
X150910100Y-87856820I700000J0D01*
G01*
X150910100Y-90656820D02*
G75*
G02*
X150210100Y-89956820I-1J699999D01*
G01*
X151510100Y-87856820D02*
G75*
G02*
X152210100Y-88556820I0J-700000D01*
G01*
X152210100Y-89956820D02*
G75*
G02*
X151510100Y-90656820I-699999J-1D01*
G01*
D15*
X127666300Y-108616820D02*
G75*
G02*
X127513900Y-108616820I-76200J0D01*
G01*
X127513900Y-108616820D02*
G75*
G02*
X127666300Y-108616820I76200J0D01*
G01*
D14*
X137790100Y-88616820D02*
X137790100Y-90016820D01*
X138490100Y-90716820D02*
X139090100Y-90716820D01*
X139090100Y-87916820D02*
X138490100Y-87916820D01*
X139790100Y-90016820D02*
X139790100Y-88616820D01*
X137790100Y-88616820D02*
G75*
G02*
X138490100Y-87916820I699999J1D01*
G01*
X138490100Y-90716820D02*
G75*
G02*
X137790100Y-90016820I0J700000D01*
G01*
X139090100Y-87916820D02*
G75*
G02*
X139790100Y-88616820I1J-699999D01*
G01*
X139790100Y-90016820D02*
G75*
G02*
X139090100Y-90716820I-700000J0D01*
G01*
D15*
X165166300Y-100742120D02*
G75*
G02*
X165013900Y-100742120I-76200J0D01*
G01*
X165013900Y-100742120D02*
G75*
G02*
X165166300Y-100742120I76200J0D01*
G01*
D14*
X127290100Y-102366820D02*
X127290100Y-103766820D01*
X127990100Y-104466820D02*
X128590100Y-104466820D01*
X128590100Y-101666820D02*
X127990100Y-101666820D01*
X129290100Y-103766820D02*
X129290100Y-102366820D01*
X127290100Y-102366820D02*
G75*
G02*
X127990100Y-101666820I700000J0D01*
G01*
X127990100Y-104466820D02*
G75*
G02*
X127290100Y-103766820I-1J699999D01*
G01*
X128590100Y-101666820D02*
G75*
G02*
X129290100Y-102366820I0J-700000D01*
G01*
X129290100Y-103766820D02*
G75*
G02*
X128590100Y-104466820I-699999J-1D01*
G01*
D15*
X162236300Y-106796820D02*
G75*
G02*
X162083900Y-106796820I-76200J0D01*
G01*
X162083900Y-106796820D02*
G75*
G02*
X162236300Y-106796820I76200J0D01*
G01*
X162828000Y-105297530D02*
G75*
G02*
X162675600Y-105297530I-76200J0D01*
G01*
X162675600Y-105297530D02*
G75*
G02*
X162828000Y-105297530I76200J0D01*
G01*
X135766300Y-93282845D02*
G75*
G02*
X135613900Y-93282845I-76200J0D01*
G01*
X135613900Y-93282845D02*
G75*
G02*
X135766300Y-93282845I76200J0D01*
G01*
D14*
X124504133Y-115660566D02*
X124980145Y-116025823D01*
X125227185Y-113568391D02*
X124374919Y-114679086D01*
X125961625Y-115896609D02*
X126813891Y-114785914D01*
X126684677Y-113804434D02*
X126208665Y-113439177D01*
X124504133Y-115660566D02*
G75*
G02*
X124374919Y-114679086I426133J555347D01*
G01*
X125227185Y-113568391D02*
G75*
G02*
X126208665Y-113439178I555346J-426129D01*
G01*
X125961625Y-115896609D02*
G75*
G02*
X124980145Y-116025823I-555347J426133D01*
G01*
X126684677Y-113804434D02*
G75*
G02*
X126813891Y-114785914I-426132J-555347D01*
G01*
D16*
X160690100Y-113611820D02*
X160690100Y-113771820D01*
X161490100Y-113611820D02*
X161490100Y-113771820D01*
X163690100Y-113611820D02*
X163690100Y-113771820D01*
X164490100Y-113611820D02*
X164490100Y-113771820D01*
D14*
X129960100Y-102316820D02*
X129960100Y-103716820D01*
X130660100Y-104416820D02*
X131260100Y-104416820D01*
X131260100Y-101616820D02*
X130660100Y-101616820D01*
X131960100Y-103716820D02*
X131960100Y-102316820D01*
X129960100Y-102316820D02*
G75*
G02*
X130660100Y-101616820I700000J0D01*
G01*
X130660100Y-104416820D02*
G75*
G02*
X129960100Y-103716820I-1J699999D01*
G01*
X131260100Y-101616820D02*
G75*
G02*
X131960100Y-102316820I0J-700000D01*
G01*
X131960100Y-103716820D02*
G75*
G02*
X131260100Y-104416820I-699999J-1D01*
G01*
D15*
X163766300Y-100923120D02*
G75*
G02*
X163613900Y-100923120I-76200J0D01*
G01*
X163613900Y-100923120D02*
G75*
G02*
X163766300Y-100923120I76200J0D01*
G01*
D16*
X145390100Y-99316820D02*
X145390100Y-101190820D01*
X145390100Y-113116820D02*
X145390100Y-111716820D01*
X145390100Y-113116820D02*
X156640100Y-113116820D01*
X156640100Y-99316820D02*
X145390100Y-99316820D01*
D17*
X160460100Y-109816820D02*
G75*
G02*
X160220100Y-109816820I-120000J0D01*
G01*
X160220100Y-109816820D02*
G75*
G02*
X160460100Y-109816820I120000J0D01*
G01*
D16*
X166790100Y-113611820D02*
X166790100Y-113771820D01*
X167590100Y-113611820D02*
X167590100Y-113771820D01*
D15*
X153166300Y-90682845D02*
G75*
G02*
X153013900Y-90682845I-76200J0D01*
G01*
X153013900Y-90682845D02*
G75*
G02*
X153166300Y-90682845I76200J0D01*
G01*
D18*
X154490100Y-96016820D03*
D19*
X152490100Y-96016820D03*
X150490100Y-96016820D03*
X148490100Y-96016820D03*
X146490100Y-96016820D03*
X144490100Y-96016820D03*
X142490100Y-96016820D03*
X140490100Y-96016820D03*
X138490100Y-96016820D03*
X136490100Y-96016820D03*
D18*
X154490100Y-118016820D03*
D19*
X152490100Y-118016820D03*
X150490100Y-118016820D03*
X148490100Y-118016820D03*
X146490100Y-118016820D03*
X144490100Y-118016820D03*
X142490100Y-118016820D03*
X140490100Y-118016820D03*
X138490100Y-118016820D03*
X136490100Y-118016820D03*
%LPC*%
G36*
X140740100Y-89166820D02*
G01*
X142240100Y-89166820D01*
X142240100Y-89466820D01*
X140740100Y-89466820D01*
X140740100Y-89166820D01*
G37*
D20*
G36*
X122080734Y-111870068D02*
G01*
X121898106Y-112108074D01*
X120708076Y-111194932D01*
X120890704Y-110956926D01*
X122080734Y-111870068D01*
G37*
G36*
X147940100Y-89116820D02*
G01*
X149440100Y-89116820D01*
X149440100Y-89416820D01*
X147940100Y-89416820D01*
X147940100Y-89116820D01*
G37*
G36*
X126540100Y-103216820D02*
G01*
X125040100Y-103216820D01*
X125040100Y-102916820D01*
X126540100Y-102916820D01*
X126540100Y-103216820D01*
G37*
G36*
X129376429Y-117754388D02*
G01*
X129193801Y-117992394D01*
X128003771Y-117079252D01*
X128186399Y-116841246D01*
X129376429Y-117754388D01*
G37*
G36*
X124180734Y-113470068D02*
G01*
X123998106Y-113708074D01*
X122808076Y-112794932D01*
X122990704Y-112556926D01*
X124180734Y-113470068D01*
G37*
G36*
X151960100Y-89406820D02*
G01*
X150460100Y-89406820D01*
X150460100Y-89106820D01*
X151960100Y-89106820D01*
X151960100Y-89406820D01*
G37*
G36*
X138040100Y-89166820D02*
G01*
X139540100Y-89166820D01*
X139540100Y-89466820D01*
X138040100Y-89466820D01*
X138040100Y-89166820D01*
G37*
G36*
X129040100Y-103216820D02*
G01*
X127540100Y-103216820D01*
X127540100Y-102916820D01*
X129040100Y-102916820D01*
X129040100Y-103216820D01*
G37*
G36*
X126280734Y-115070068D02*
G01*
X126098106Y-115308074D01*
X124908076Y-114394932D01*
X125090704Y-114156926D01*
X126280734Y-115070068D01*
G37*
G36*
X131710100Y-103166820D02*
G01*
X130210100Y-103166820D01*
X130210100Y-102866820D01*
X131710100Y-102866820D01*
X131710100Y-103166820D01*
G37*
D21*
X167967100Y-108891820D03*
X167967100Y-107641820D03*
X167967100Y-106391820D03*
X167967100Y-105141820D03*
X147365100Y-91539820D03*
X146115100Y-91539820D03*
X144865100Y-91539820D03*
X143615100Y-91539820D03*
D22*
X134440100Y-122266820D03*
X131840100Y-120806820D03*
D23*
X134030100Y-96016820D03*
X134030100Y-97286820D03*
X132760100Y-96016820D03*
X132760100Y-97286820D03*
X131490100Y-96016820D03*
X131490100Y-97286820D03*
X130220100Y-96016820D03*
X130220100Y-97286820D03*
X128950100Y-96016820D03*
X128950100Y-97286820D03*
D24*
X161230100Y-96916820D03*
X161230100Y-95646820D03*
X159960100Y-96916820D03*
X159960100Y-95646820D03*
X158690100Y-96916820D03*
X158690100Y-95646820D03*
X157420100Y-96916820D03*
X157420100Y-95646820D03*
D21*
X143615100Y-122493820D03*
X144865100Y-122493820D03*
X146115100Y-122493820D03*
X147365100Y-122493820D03*
D22*
X138270100Y-120966820D03*
D21*
X123013100Y-105141820D03*
X123013100Y-106391820D03*
X123013100Y-107641820D03*
X123013100Y-108891820D03*
D25*
X168510100Y-103866820D03*
X169596700Y-103866820D03*
D26*
X141490100Y-88666820D03*
D27*
X141490100Y-89966820D03*
D28*
X167390100Y-100804220D03*
X167390100Y-99816820D03*
D29*
X155920688Y-121941431D03*
X156388988Y-122752551D03*
D28*
X162490100Y-100535820D03*
X162490100Y-99548420D03*
D25*
X168720100Y-110276820D03*
X169806700Y-110276820D03*
D30*
X163015100Y-107541820D03*
X163665100Y-107541820D03*
D31*
X164690100Y-107016820D03*
D30*
X163665100Y-106491820D03*
X163015100Y-106491820D03*
D32*
X154490100Y-96016820D03*
D33*
X154490100Y-94416820D03*
X152490100Y-97616820D03*
D32*
X152490100Y-96016820D03*
X150490100Y-96016820D03*
D33*
X150490100Y-94416820D03*
X148490100Y-97616820D03*
D32*
X148490100Y-96016820D03*
X146490100Y-96016820D03*
D33*
X146490100Y-94416820D03*
X144490100Y-97616820D03*
D32*
X144490100Y-96016820D03*
X142490100Y-96016820D03*
D33*
X142490100Y-94416820D03*
X140490100Y-97616820D03*
D32*
X140490100Y-96016820D03*
X138490100Y-96016820D03*
D33*
X138490100Y-94416820D03*
X136490100Y-97616820D03*
D32*
X136490100Y-96016820D03*
D25*
X168510100Y-101366820D03*
X169596700Y-101366820D03*
D34*
X121790100Y-111016820D03*
D35*
X120998710Y-112048180D03*
D36*
X152126700Y-114516820D03*
X151190100Y-114516820D03*
D26*
X148690100Y-88616820D03*
D27*
X148690100Y-89916820D03*
D37*
X137907087Y-123395283D03*
X137438787Y-124206403D03*
D38*
X137182263Y-91604912D03*
X136857263Y-91041996D03*
D39*
X135890099Y-90416820D03*
D38*
X135947936Y-91566996D03*
X136272936Y-92129912D03*
D40*
X165590100Y-112966820D03*
X165590100Y-114416820D03*
D41*
X160990100Y-107341820D03*
X160990100Y-105691820D03*
D25*
X168546800Y-102616820D03*
X169633400Y-102616820D03*
D42*
X125790100Y-103716820D03*
D43*
X125790100Y-102416820D03*
D44*
X153797936Y-122478728D03*
X154122936Y-123041644D03*
D45*
X155090100Y-123666820D03*
D44*
X155032263Y-122516644D03*
X154707263Y-121953728D03*
D28*
X161290100Y-100535820D03*
X161290100Y-99548420D03*
D32*
X154490100Y-118016820D03*
D33*
X154490100Y-116416820D03*
X152490100Y-119616820D03*
D32*
X152490100Y-118016820D03*
X150490100Y-118016820D03*
D33*
X150490100Y-116416820D03*
X148490100Y-119616820D03*
D32*
X148490100Y-118016820D03*
X146490100Y-118016820D03*
D33*
X146490100Y-116416820D03*
X144490100Y-119616820D03*
D32*
X144490100Y-118016820D03*
X142490100Y-118016820D03*
D33*
X142490100Y-116416820D03*
X140490100Y-119616820D03*
D32*
X140490100Y-118016820D03*
X138490100Y-118016820D03*
D33*
X138490100Y-116416820D03*
X136490100Y-119616820D03*
D32*
X136490100Y-118016820D03*
D46*
X153196400Y-114516820D03*
X154183800Y-114516820D03*
D47*
X148365100Y-114616820D03*
X149815100Y-114616820D03*
D34*
X129085795Y-116901140D03*
D35*
X128294405Y-117932500D03*
D34*
X123890100Y-112616820D03*
D35*
X123098710Y-113648180D03*
D25*
X168746800Y-111516820D03*
X169833400Y-111516820D03*
D28*
X166290100Y-100235820D03*
X166290100Y-99248420D03*
D40*
X162590100Y-112966820D03*
X162590100Y-114416820D03*
D42*
X151210100Y-89906820D03*
D43*
X151210100Y-88606820D03*
D36*
X127058400Y-108616820D03*
X126121800Y-108616820D03*
D26*
X138790100Y-88666820D03*
D27*
X138790100Y-89966820D03*
D48*
X154670837Y-92113582D03*
X154995837Y-91550666D03*
D49*
X155053673Y-90400491D03*
D48*
X154086510Y-91025666D03*
X153761510Y-91588582D03*
D28*
X165090100Y-100235820D03*
X165090100Y-99248420D03*
D42*
X128290100Y-103716820D03*
D43*
X128290100Y-102416820D03*
D25*
X168750100Y-112756820D03*
X169836700Y-112756820D03*
D50*
X162160100Y-106265120D03*
X162160100Y-105328520D03*
D36*
X163283500Y-105297530D03*
X164220100Y-105297530D03*
D51*
X135424250Y-92822380D03*
X134955950Y-92011260D03*
D34*
X125990100Y-114216820D03*
D35*
X125198710Y-115248180D03*
D40*
X161090100Y-112966820D03*
X161090100Y-114416820D03*
X164090100Y-112966820D03*
X164090100Y-114416820D03*
D30*
X127965100Y-106491820D03*
X127315100Y-106491820D03*
D52*
X126290100Y-107016820D03*
D30*
X127315100Y-107541820D03*
X127965100Y-107541820D03*
D42*
X130960100Y-103666820D03*
D43*
X130960100Y-102366820D03*
D28*
X163690100Y-100416820D03*
X163690100Y-99429420D03*
D53*
X158790100Y-109216820D03*
X158790100Y-108116820D03*
X158790100Y-107016820D03*
X158790100Y-105916820D03*
X158790100Y-104816820D03*
X158790100Y-103716820D03*
X158790100Y-102616820D03*
X158790100Y-101516820D03*
D54*
X146090100Y-107816820D03*
D55*
X158290100Y-99416820D03*
D56*
X158290100Y-112766820D03*
D54*
X146090100Y-102916820D03*
D57*
X145990100Y-110866820D03*
D40*
X167190100Y-112966820D03*
X167190100Y-114416820D03*
D58*
X153355950Y-90222380D03*
X153824250Y-89411260D03*
D59*
X136265100Y-121903904D03*
X135940100Y-122466820D03*
D60*
X135882264Y-123616995D03*
D59*
X136849427Y-122991820D03*
X137174427Y-122428904D03*
%LPD*%
M02*
